%TF.GenerationSoftware,KiCad,Pcbnew,5.1.8-db9833491~87~ubuntu20.04.1*%
%TF.CreationDate,2020-11-05T18:06:58+01:00*%
%TF.ProjectId,rosalyn-rx,726f7361-6c79-46e2-9d72-782e6b696361,v1.0*%
%TF.SameCoordinates,Original*%
%TF.FileFunction,Soldermask,Top*%
%TF.FilePolarity,Negative*%
%FSLAX46Y46*%
G04 Gerber Fmt 4.6, Leading zero omitted, Abs format (unit mm)*
G04 Created by KiCad (PCBNEW 5.1.8-db9833491~87~ubuntu20.04.1) date 2020-11-05 18:06:58*
%MOMM*%
%LPD*%
G01*
G04 APERTURE LIST*
%ADD10O,1.700000X1.700000*%
%ADD11R,1.700000X1.700000*%
%ADD12R,0.850000X0.650000*%
%ADD13R,0.800000X0.900000*%
G04 APERTURE END LIST*
D10*
%TO.C,J4*%
X120410000Y-108890000D03*
X120410000Y-91110000D03*
X120410000Y-106350000D03*
X120410000Y-103810000D03*
X120410000Y-101270000D03*
X120410000Y-98730000D03*
X120410000Y-96190000D03*
X120410000Y-93650000D03*
X122950000Y-91110000D03*
X122950000Y-93650000D03*
X122950000Y-96190000D03*
X122950000Y-98730000D03*
X122950000Y-101270000D03*
X122950000Y-103810000D03*
X122950000Y-106350000D03*
X122950000Y-108890000D03*
D11*
X125490000Y-91110000D03*
D10*
X125490000Y-93650000D03*
X125490000Y-96190000D03*
X125490000Y-98730000D03*
X125490000Y-101270000D03*
X125490000Y-103810000D03*
X125490000Y-106350000D03*
X125490000Y-108890000D03*
%TD*%
%TO.C,J3*%
G36*
G01*
X144525000Y-97900000D02*
X143275000Y-97900000D01*
G75*
G02*
X143125000Y-97750000I0J150000D01*
G01*
X143125000Y-97450000D01*
G75*
G02*
X143275000Y-97300000I150000J0D01*
G01*
X144525000Y-97300000D01*
G75*
G02*
X144675000Y-97450000I0J-150000D01*
G01*
X144675000Y-97750000D01*
G75*
G02*
X144525000Y-97900000I-150000J0D01*
G01*
G37*
G36*
G01*
X144525000Y-96900000D02*
X143275000Y-96900000D01*
G75*
G02*
X143125000Y-96750000I0J150000D01*
G01*
X143125000Y-96450000D01*
G75*
G02*
X143275000Y-96300000I150000J0D01*
G01*
X144525000Y-96300000D01*
G75*
G02*
X144675000Y-96450000I0J-150000D01*
G01*
X144675000Y-96750000D01*
G75*
G02*
X144525000Y-96900000I-150000J0D01*
G01*
G37*
G36*
G01*
X144525000Y-95900000D02*
X143275000Y-95900000D01*
G75*
G02*
X143125000Y-95750000I0J150000D01*
G01*
X143125000Y-95450000D01*
G75*
G02*
X143275000Y-95300000I150000J0D01*
G01*
X144525000Y-95300000D01*
G75*
G02*
X144675000Y-95450000I0J-150000D01*
G01*
X144675000Y-95750000D01*
G75*
G02*
X144525000Y-95900000I-150000J0D01*
G01*
G37*
G36*
G01*
X144525000Y-94900000D02*
X143275000Y-94900000D01*
G75*
G02*
X143125000Y-94750000I0J150000D01*
G01*
X143125000Y-94450000D01*
G75*
G02*
X143275000Y-94300000I150000J0D01*
G01*
X144525000Y-94300000D01*
G75*
G02*
X144675000Y-94450000I0J-150000D01*
G01*
X144675000Y-94750000D01*
G75*
G02*
X144525000Y-94900000I-150000J0D01*
G01*
G37*
G36*
G01*
X148425001Y-99500000D02*
X147124999Y-99500000D01*
G75*
G02*
X146875000Y-99250001I0J249999D01*
G01*
X146875000Y-98549999D01*
G75*
G02*
X147124999Y-98300000I249999J0D01*
G01*
X148425001Y-98300000D01*
G75*
G02*
X148675000Y-98549999I0J-249999D01*
G01*
X148675000Y-99250001D01*
G75*
G02*
X148425001Y-99500000I-249999J0D01*
G01*
G37*
G36*
G01*
X148425001Y-93900000D02*
X147124999Y-93900000D01*
G75*
G02*
X146875000Y-93650001I0J249999D01*
G01*
X146875000Y-92949999D01*
G75*
G02*
X147124999Y-92700000I249999J0D01*
G01*
X148425001Y-92700000D01*
G75*
G02*
X148675000Y-92949999I0J-249999D01*
G01*
X148675000Y-93650001D01*
G75*
G02*
X148425001Y-93900000I-249999J0D01*
G01*
G37*
%TD*%
%TO.C,J2*%
G36*
G01*
X144525000Y-105700000D02*
X143275000Y-105700000D01*
G75*
G02*
X143125000Y-105550000I0J150000D01*
G01*
X143125000Y-105250000D01*
G75*
G02*
X143275000Y-105100000I150000J0D01*
G01*
X144525000Y-105100000D01*
G75*
G02*
X144675000Y-105250000I0J-150000D01*
G01*
X144675000Y-105550000D01*
G75*
G02*
X144525000Y-105700000I-150000J0D01*
G01*
G37*
G36*
G01*
X144525000Y-104700000D02*
X143275000Y-104700000D01*
G75*
G02*
X143125000Y-104550000I0J150000D01*
G01*
X143125000Y-104250000D01*
G75*
G02*
X143275000Y-104100000I150000J0D01*
G01*
X144525000Y-104100000D01*
G75*
G02*
X144675000Y-104250000I0J-150000D01*
G01*
X144675000Y-104550000D01*
G75*
G02*
X144525000Y-104700000I-150000J0D01*
G01*
G37*
G36*
G01*
X144525000Y-103700000D02*
X143275000Y-103700000D01*
G75*
G02*
X143125000Y-103550000I0J150000D01*
G01*
X143125000Y-103250000D01*
G75*
G02*
X143275000Y-103100000I150000J0D01*
G01*
X144525000Y-103100000D01*
G75*
G02*
X144675000Y-103250000I0J-150000D01*
G01*
X144675000Y-103550000D01*
G75*
G02*
X144525000Y-103700000I-150000J0D01*
G01*
G37*
G36*
G01*
X144525000Y-102700000D02*
X143275000Y-102700000D01*
G75*
G02*
X143125000Y-102550000I0J150000D01*
G01*
X143125000Y-102250000D01*
G75*
G02*
X143275000Y-102100000I150000J0D01*
G01*
X144525000Y-102100000D01*
G75*
G02*
X144675000Y-102250000I0J-150000D01*
G01*
X144675000Y-102550000D01*
G75*
G02*
X144525000Y-102700000I-150000J0D01*
G01*
G37*
G36*
G01*
X148425001Y-107300000D02*
X147124999Y-107300000D01*
G75*
G02*
X146875000Y-107050001I0J249999D01*
G01*
X146875000Y-106349999D01*
G75*
G02*
X147124999Y-106100000I249999J0D01*
G01*
X148425001Y-106100000D01*
G75*
G02*
X148675000Y-106349999I0J-249999D01*
G01*
X148675000Y-107050001D01*
G75*
G02*
X148425001Y-107300000I-249999J0D01*
G01*
G37*
G36*
G01*
X148425001Y-101700000D02*
X147124999Y-101700000D01*
G75*
G02*
X146875000Y-101450001I0J249999D01*
G01*
X146875000Y-100749999D01*
G75*
G02*
X147124999Y-100500000I249999J0D01*
G01*
X148425001Y-100500000D01*
G75*
G02*
X148675000Y-100749999I0J-249999D01*
G01*
X148675000Y-101450001D01*
G75*
G02*
X148425001Y-101700000I-249999J0D01*
G01*
G37*
%TD*%
%TO.C,J1*%
G36*
G01*
X141245000Y-90537500D02*
X141245000Y-90862500D01*
G75*
G02*
X141082500Y-91025000I-162500J0D01*
G01*
X140557500Y-91025000D01*
G75*
G02*
X140395000Y-90862500I0J162500D01*
G01*
X140395000Y-90537500D01*
G75*
G02*
X140557500Y-90375000I162500J0D01*
G01*
X141082500Y-90375000D01*
G75*
G02*
X141245000Y-90537500I0J-162500D01*
G01*
G37*
G36*
G01*
X141245000Y-91537500D02*
X141245000Y-91862500D01*
G75*
G02*
X141082500Y-92025000I-162500J0D01*
G01*
X140557500Y-92025000D01*
G75*
G02*
X140395000Y-91862500I0J162500D01*
G01*
X140395000Y-91537500D01*
G75*
G02*
X140557500Y-91375000I162500J0D01*
G01*
X141082500Y-91375000D01*
G75*
G02*
X141245000Y-91537500I0J-162500D01*
G01*
G37*
G36*
G01*
X141245000Y-92537500D02*
X141245000Y-92862500D01*
G75*
G02*
X141082500Y-93025000I-162500J0D01*
G01*
X140557500Y-93025000D01*
G75*
G02*
X140395000Y-92862500I0J162500D01*
G01*
X140395000Y-92537500D01*
G75*
G02*
X140557500Y-92375000I162500J0D01*
G01*
X141082500Y-92375000D01*
G75*
G02*
X141245000Y-92537500I0J-162500D01*
G01*
G37*
D12*
X140820000Y-93700000D03*
%TD*%
%TO.C,R12*%
G36*
G01*
X141203000Y-96615000D02*
X141753000Y-96615000D01*
G75*
G02*
X141953000Y-96815000I0J-200000D01*
G01*
X141953000Y-97215000D01*
G75*
G02*
X141753000Y-97415000I-200000J0D01*
G01*
X141203000Y-97415000D01*
G75*
G02*
X141003000Y-97215000I0J200000D01*
G01*
X141003000Y-96815000D01*
G75*
G02*
X141203000Y-96615000I200000J0D01*
G01*
G37*
G36*
G01*
X141203000Y-94965000D02*
X141753000Y-94965000D01*
G75*
G02*
X141953000Y-95165000I0J-200000D01*
G01*
X141953000Y-95565000D01*
G75*
G02*
X141753000Y-95765000I-200000J0D01*
G01*
X141203000Y-95765000D01*
G75*
G02*
X141003000Y-95565000I0J200000D01*
G01*
X141003000Y-95165000D01*
G75*
G02*
X141203000Y-94965000I200000J0D01*
G01*
G37*
%TD*%
%TO.C,R11*%
G36*
G01*
X141203000Y-99605000D02*
X141753000Y-99605000D01*
G75*
G02*
X141953000Y-99805000I0J-200000D01*
G01*
X141953000Y-100205000D01*
G75*
G02*
X141753000Y-100405000I-200000J0D01*
G01*
X141203000Y-100405000D01*
G75*
G02*
X141003000Y-100205000I0J200000D01*
G01*
X141003000Y-99805000D01*
G75*
G02*
X141203000Y-99605000I200000J0D01*
G01*
G37*
G36*
G01*
X141203000Y-97955000D02*
X141753000Y-97955000D01*
G75*
G02*
X141953000Y-98155000I0J-200000D01*
G01*
X141953000Y-98555000D01*
G75*
G02*
X141753000Y-98755000I-200000J0D01*
G01*
X141203000Y-98755000D01*
G75*
G02*
X141003000Y-98555000I0J200000D01*
G01*
X141003000Y-98155000D01*
G75*
G02*
X141203000Y-97955000I200000J0D01*
G01*
G37*
%TD*%
%TO.C,D2*%
G36*
G01*
X147550000Y-91696250D02*
X147550000Y-91183750D01*
G75*
G02*
X147768750Y-90965000I218750J0D01*
G01*
X148206250Y-90965000D01*
G75*
G02*
X148425000Y-91183750I0J-218750D01*
G01*
X148425000Y-91696250D01*
G75*
G02*
X148206250Y-91915000I-218750J0D01*
G01*
X147768750Y-91915000D01*
G75*
G02*
X147550000Y-91696250I0J218750D01*
G01*
G37*
G36*
G01*
X145975000Y-91696250D02*
X145975000Y-91183750D01*
G75*
G02*
X146193750Y-90965000I218750J0D01*
G01*
X146631250Y-90965000D01*
G75*
G02*
X146850000Y-91183750I0J-218750D01*
G01*
X146850000Y-91696250D01*
G75*
G02*
X146631250Y-91915000I-218750J0D01*
G01*
X146193750Y-91915000D01*
G75*
G02*
X145975000Y-91696250I0J218750D01*
G01*
G37*
%TD*%
%TO.C,D1*%
G36*
G01*
X147550000Y-108806250D02*
X147550000Y-108293750D01*
G75*
G02*
X147768750Y-108075000I218750J0D01*
G01*
X148206250Y-108075000D01*
G75*
G02*
X148425000Y-108293750I0J-218750D01*
G01*
X148425000Y-108806250D01*
G75*
G02*
X148206250Y-109025000I-218750J0D01*
G01*
X147768750Y-109025000D01*
G75*
G02*
X147550000Y-108806250I0J218750D01*
G01*
G37*
G36*
G01*
X145975000Y-108806250D02*
X145975000Y-108293750D01*
G75*
G02*
X146193750Y-108075000I218750J0D01*
G01*
X146631250Y-108075000D01*
G75*
G02*
X146850000Y-108293750I0J-218750D01*
G01*
X146850000Y-108806250D01*
G75*
G02*
X146631250Y-109025000I-218750J0D01*
G01*
X146193750Y-109025000D01*
G75*
G02*
X145975000Y-108806250I0J218750D01*
G01*
G37*
%TD*%
%TO.C,C7*%
G36*
G01*
X135725000Y-93960000D02*
X135725000Y-93460000D01*
G75*
G02*
X135950000Y-93235000I225000J0D01*
G01*
X136400000Y-93235000D01*
G75*
G02*
X136625000Y-93460000I0J-225000D01*
G01*
X136625000Y-93960000D01*
G75*
G02*
X136400000Y-94185000I-225000J0D01*
G01*
X135950000Y-94185000D01*
G75*
G02*
X135725000Y-93960000I0J225000D01*
G01*
G37*
G36*
G01*
X134175000Y-93960000D02*
X134175000Y-93460000D01*
G75*
G02*
X134400000Y-93235000I225000J0D01*
G01*
X134850000Y-93235000D01*
G75*
G02*
X135075000Y-93460000I0J-225000D01*
G01*
X135075000Y-93960000D01*
G75*
G02*
X134850000Y-94185000I-225000J0D01*
G01*
X134400000Y-94185000D01*
G75*
G02*
X134175000Y-93960000I0J225000D01*
G01*
G37*
%TD*%
%TO.C,C6*%
G36*
G01*
X141140000Y-102175000D02*
X140640000Y-102175000D01*
G75*
G02*
X140415000Y-101950000I0J225000D01*
G01*
X140415000Y-101500000D01*
G75*
G02*
X140640000Y-101275000I225000J0D01*
G01*
X141140000Y-101275000D01*
G75*
G02*
X141365000Y-101500000I0J-225000D01*
G01*
X141365000Y-101950000D01*
G75*
G02*
X141140000Y-102175000I-225000J0D01*
G01*
G37*
G36*
G01*
X141140000Y-103725000D02*
X140640000Y-103725000D01*
G75*
G02*
X140415000Y-103500000I0J225000D01*
G01*
X140415000Y-103050000D01*
G75*
G02*
X140640000Y-102825000I225000J0D01*
G01*
X141140000Y-102825000D01*
G75*
G02*
X141365000Y-103050000I0J-225000D01*
G01*
X141365000Y-103500000D01*
G75*
G02*
X141140000Y-103725000I-225000J0D01*
G01*
G37*
%TD*%
%TO.C,C5*%
G36*
G01*
X134175000Y-107150000D02*
X134175000Y-107650000D01*
G75*
G02*
X133950000Y-107875000I-225000J0D01*
G01*
X133500000Y-107875000D01*
G75*
G02*
X133275000Y-107650000I0J225000D01*
G01*
X133275000Y-107150000D01*
G75*
G02*
X133500000Y-106925000I225000J0D01*
G01*
X133950000Y-106925000D01*
G75*
G02*
X134175000Y-107150000I0J-225000D01*
G01*
G37*
G36*
G01*
X135725000Y-107150000D02*
X135725000Y-107650000D01*
G75*
G02*
X135500000Y-107875000I-225000J0D01*
G01*
X135050000Y-107875000D01*
G75*
G02*
X134825000Y-107650000I0J225000D01*
G01*
X134825000Y-107150000D01*
G75*
G02*
X135050000Y-106925000I225000J0D01*
G01*
X135500000Y-106925000D01*
G75*
G02*
X135725000Y-107150000I0J-225000D01*
G01*
G37*
%TD*%
D13*
%TO.C,U3*%
X140340000Y-107880000D03*
X139390000Y-105880000D03*
X141290000Y-105880000D03*
%TD*%
%TO.C,C4*%
G36*
G01*
X138065000Y-106430000D02*
X137115000Y-106430000D01*
G75*
G02*
X136865000Y-106180000I0J250000D01*
G01*
X136865000Y-105680000D01*
G75*
G02*
X137115000Y-105430000I250000J0D01*
G01*
X138065000Y-105430000D01*
G75*
G02*
X138315000Y-105680000I0J-250000D01*
G01*
X138315000Y-106180000D01*
G75*
G02*
X138065000Y-106430000I-250000J0D01*
G01*
G37*
G36*
G01*
X138065000Y-108330000D02*
X137115000Y-108330000D01*
G75*
G02*
X136865000Y-108080000I0J250000D01*
G01*
X136865000Y-107580000D01*
G75*
G02*
X137115000Y-107330000I250000J0D01*
G01*
X138065000Y-107330000D01*
G75*
G02*
X138315000Y-107580000I0J-250000D01*
G01*
X138315000Y-108080000D01*
G75*
G02*
X138065000Y-108330000I-250000J0D01*
G01*
G37*
%TD*%
%TO.C,C3*%
G36*
G01*
X143370000Y-108345000D02*
X143370000Y-109295000D01*
G75*
G02*
X143120000Y-109545000I-250000J0D01*
G01*
X142620000Y-109545000D01*
G75*
G02*
X142370000Y-109295000I0J250000D01*
G01*
X142370000Y-108345000D01*
G75*
G02*
X142620000Y-108095000I250000J0D01*
G01*
X143120000Y-108095000D01*
G75*
G02*
X143370000Y-108345000I0J-250000D01*
G01*
G37*
G36*
G01*
X145270000Y-108345000D02*
X145270000Y-109295000D01*
G75*
G02*
X145020000Y-109545000I-250000J0D01*
G01*
X144520000Y-109545000D01*
G75*
G02*
X144270000Y-109295000I0J250000D01*
G01*
X144270000Y-108345000D01*
G75*
G02*
X144520000Y-108095000I250000J0D01*
G01*
X145020000Y-108095000D01*
G75*
G02*
X145270000Y-108345000I0J-250000D01*
G01*
G37*
%TD*%
%TO.C,C2*%
G36*
G01*
X134175000Y-105670000D02*
X134175000Y-106170000D01*
G75*
G02*
X133950000Y-106395000I-225000J0D01*
G01*
X133500000Y-106395000D01*
G75*
G02*
X133275000Y-106170000I0J225000D01*
G01*
X133275000Y-105670000D01*
G75*
G02*
X133500000Y-105445000I225000J0D01*
G01*
X133950000Y-105445000D01*
G75*
G02*
X134175000Y-105670000I0J-225000D01*
G01*
G37*
G36*
G01*
X135725000Y-105670000D02*
X135725000Y-106170000D01*
G75*
G02*
X135500000Y-106395000I-225000J0D01*
G01*
X135050000Y-106395000D01*
G75*
G02*
X134825000Y-106170000I0J225000D01*
G01*
X134825000Y-105670000D01*
G75*
G02*
X135050000Y-105445000I225000J0D01*
G01*
X135500000Y-105445000D01*
G75*
G02*
X135725000Y-105670000I0J-225000D01*
G01*
G37*
%TD*%
%TO.C,U1*%
G36*
G01*
X132325000Y-104900000D02*
X132175000Y-104900000D01*
G75*
G02*
X132100000Y-104825000I0J75000D01*
G01*
X132100000Y-103500000D01*
G75*
G02*
X132175000Y-103425000I75000J0D01*
G01*
X132325000Y-103425000D01*
G75*
G02*
X132400000Y-103500000I0J-75000D01*
G01*
X132400000Y-104825000D01*
G75*
G02*
X132325000Y-104900000I-75000J0D01*
G01*
G37*
G36*
G01*
X132825000Y-104900000D02*
X132675000Y-104900000D01*
G75*
G02*
X132600000Y-104825000I0J75000D01*
G01*
X132600000Y-103500000D01*
G75*
G02*
X132675000Y-103425000I75000J0D01*
G01*
X132825000Y-103425000D01*
G75*
G02*
X132900000Y-103500000I0J-75000D01*
G01*
X132900000Y-104825000D01*
G75*
G02*
X132825000Y-104900000I-75000J0D01*
G01*
G37*
G36*
G01*
X133325000Y-104900000D02*
X133175000Y-104900000D01*
G75*
G02*
X133100000Y-104825000I0J75000D01*
G01*
X133100000Y-103500000D01*
G75*
G02*
X133175000Y-103425000I75000J0D01*
G01*
X133325000Y-103425000D01*
G75*
G02*
X133400000Y-103500000I0J-75000D01*
G01*
X133400000Y-104825000D01*
G75*
G02*
X133325000Y-104900000I-75000J0D01*
G01*
G37*
G36*
G01*
X133825000Y-104900000D02*
X133675000Y-104900000D01*
G75*
G02*
X133600000Y-104825000I0J75000D01*
G01*
X133600000Y-103500000D01*
G75*
G02*
X133675000Y-103425000I75000J0D01*
G01*
X133825000Y-103425000D01*
G75*
G02*
X133900000Y-103500000I0J-75000D01*
G01*
X133900000Y-104825000D01*
G75*
G02*
X133825000Y-104900000I-75000J0D01*
G01*
G37*
G36*
G01*
X134325000Y-104900000D02*
X134175000Y-104900000D01*
G75*
G02*
X134100000Y-104825000I0J75000D01*
G01*
X134100000Y-103500000D01*
G75*
G02*
X134175000Y-103425000I75000J0D01*
G01*
X134325000Y-103425000D01*
G75*
G02*
X134400000Y-103500000I0J-75000D01*
G01*
X134400000Y-104825000D01*
G75*
G02*
X134325000Y-104900000I-75000J0D01*
G01*
G37*
G36*
G01*
X134825000Y-104900000D02*
X134675000Y-104900000D01*
G75*
G02*
X134600000Y-104825000I0J75000D01*
G01*
X134600000Y-103500000D01*
G75*
G02*
X134675000Y-103425000I75000J0D01*
G01*
X134825000Y-103425000D01*
G75*
G02*
X134900000Y-103500000I0J-75000D01*
G01*
X134900000Y-104825000D01*
G75*
G02*
X134825000Y-104900000I-75000J0D01*
G01*
G37*
G36*
G01*
X135325000Y-104900000D02*
X135175000Y-104900000D01*
G75*
G02*
X135100000Y-104825000I0J75000D01*
G01*
X135100000Y-103500000D01*
G75*
G02*
X135175000Y-103425000I75000J0D01*
G01*
X135325000Y-103425000D01*
G75*
G02*
X135400000Y-103500000I0J-75000D01*
G01*
X135400000Y-104825000D01*
G75*
G02*
X135325000Y-104900000I-75000J0D01*
G01*
G37*
G36*
G01*
X135825000Y-104900000D02*
X135675000Y-104900000D01*
G75*
G02*
X135600000Y-104825000I0J75000D01*
G01*
X135600000Y-103500000D01*
G75*
G02*
X135675000Y-103425000I75000J0D01*
G01*
X135825000Y-103425000D01*
G75*
G02*
X135900000Y-103500000I0J-75000D01*
G01*
X135900000Y-104825000D01*
G75*
G02*
X135825000Y-104900000I-75000J0D01*
G01*
G37*
G36*
G01*
X136325000Y-104900000D02*
X136175000Y-104900000D01*
G75*
G02*
X136100000Y-104825000I0J75000D01*
G01*
X136100000Y-103500000D01*
G75*
G02*
X136175000Y-103425000I75000J0D01*
G01*
X136325000Y-103425000D01*
G75*
G02*
X136400000Y-103500000I0J-75000D01*
G01*
X136400000Y-104825000D01*
G75*
G02*
X136325000Y-104900000I-75000J0D01*
G01*
G37*
G36*
G01*
X136825000Y-104900000D02*
X136675000Y-104900000D01*
G75*
G02*
X136600000Y-104825000I0J75000D01*
G01*
X136600000Y-103500000D01*
G75*
G02*
X136675000Y-103425000I75000J0D01*
G01*
X136825000Y-103425000D01*
G75*
G02*
X136900000Y-103500000I0J-75000D01*
G01*
X136900000Y-104825000D01*
G75*
G02*
X136825000Y-104900000I-75000J0D01*
G01*
G37*
G36*
G01*
X137325000Y-104900000D02*
X137175000Y-104900000D01*
G75*
G02*
X137100000Y-104825000I0J75000D01*
G01*
X137100000Y-103500000D01*
G75*
G02*
X137175000Y-103425000I75000J0D01*
G01*
X137325000Y-103425000D01*
G75*
G02*
X137400000Y-103500000I0J-75000D01*
G01*
X137400000Y-104825000D01*
G75*
G02*
X137325000Y-104900000I-75000J0D01*
G01*
G37*
G36*
G01*
X137825000Y-104900000D02*
X137675000Y-104900000D01*
G75*
G02*
X137600000Y-104825000I0J75000D01*
G01*
X137600000Y-103500000D01*
G75*
G02*
X137675000Y-103425000I75000J0D01*
G01*
X137825000Y-103425000D01*
G75*
G02*
X137900000Y-103500000I0J-75000D01*
G01*
X137900000Y-104825000D01*
G75*
G02*
X137825000Y-104900000I-75000J0D01*
G01*
G37*
G36*
G01*
X139825000Y-102900000D02*
X138500000Y-102900000D01*
G75*
G02*
X138425000Y-102825000I0J75000D01*
G01*
X138425000Y-102675000D01*
G75*
G02*
X138500000Y-102600000I75000J0D01*
G01*
X139825000Y-102600000D01*
G75*
G02*
X139900000Y-102675000I0J-75000D01*
G01*
X139900000Y-102825000D01*
G75*
G02*
X139825000Y-102900000I-75000J0D01*
G01*
G37*
G36*
G01*
X139825000Y-102400000D02*
X138500000Y-102400000D01*
G75*
G02*
X138425000Y-102325000I0J75000D01*
G01*
X138425000Y-102175000D01*
G75*
G02*
X138500000Y-102100000I75000J0D01*
G01*
X139825000Y-102100000D01*
G75*
G02*
X139900000Y-102175000I0J-75000D01*
G01*
X139900000Y-102325000D01*
G75*
G02*
X139825000Y-102400000I-75000J0D01*
G01*
G37*
G36*
G01*
X139825000Y-101900000D02*
X138500000Y-101900000D01*
G75*
G02*
X138425000Y-101825000I0J75000D01*
G01*
X138425000Y-101675000D01*
G75*
G02*
X138500000Y-101600000I75000J0D01*
G01*
X139825000Y-101600000D01*
G75*
G02*
X139900000Y-101675000I0J-75000D01*
G01*
X139900000Y-101825000D01*
G75*
G02*
X139825000Y-101900000I-75000J0D01*
G01*
G37*
G36*
G01*
X139825000Y-101400000D02*
X138500000Y-101400000D01*
G75*
G02*
X138425000Y-101325000I0J75000D01*
G01*
X138425000Y-101175000D01*
G75*
G02*
X138500000Y-101100000I75000J0D01*
G01*
X139825000Y-101100000D01*
G75*
G02*
X139900000Y-101175000I0J-75000D01*
G01*
X139900000Y-101325000D01*
G75*
G02*
X139825000Y-101400000I-75000J0D01*
G01*
G37*
G36*
G01*
X139825000Y-100900000D02*
X138500000Y-100900000D01*
G75*
G02*
X138425000Y-100825000I0J75000D01*
G01*
X138425000Y-100675000D01*
G75*
G02*
X138500000Y-100600000I75000J0D01*
G01*
X139825000Y-100600000D01*
G75*
G02*
X139900000Y-100675000I0J-75000D01*
G01*
X139900000Y-100825000D01*
G75*
G02*
X139825000Y-100900000I-75000J0D01*
G01*
G37*
G36*
G01*
X139825000Y-100400000D02*
X138500000Y-100400000D01*
G75*
G02*
X138425000Y-100325000I0J75000D01*
G01*
X138425000Y-100175000D01*
G75*
G02*
X138500000Y-100100000I75000J0D01*
G01*
X139825000Y-100100000D01*
G75*
G02*
X139900000Y-100175000I0J-75000D01*
G01*
X139900000Y-100325000D01*
G75*
G02*
X139825000Y-100400000I-75000J0D01*
G01*
G37*
G36*
G01*
X139825000Y-99900000D02*
X138500000Y-99900000D01*
G75*
G02*
X138425000Y-99825000I0J75000D01*
G01*
X138425000Y-99675000D01*
G75*
G02*
X138500000Y-99600000I75000J0D01*
G01*
X139825000Y-99600000D01*
G75*
G02*
X139900000Y-99675000I0J-75000D01*
G01*
X139900000Y-99825000D01*
G75*
G02*
X139825000Y-99900000I-75000J0D01*
G01*
G37*
G36*
G01*
X139825000Y-99400000D02*
X138500000Y-99400000D01*
G75*
G02*
X138425000Y-99325000I0J75000D01*
G01*
X138425000Y-99175000D01*
G75*
G02*
X138500000Y-99100000I75000J0D01*
G01*
X139825000Y-99100000D01*
G75*
G02*
X139900000Y-99175000I0J-75000D01*
G01*
X139900000Y-99325000D01*
G75*
G02*
X139825000Y-99400000I-75000J0D01*
G01*
G37*
G36*
G01*
X139825000Y-98900000D02*
X138500000Y-98900000D01*
G75*
G02*
X138425000Y-98825000I0J75000D01*
G01*
X138425000Y-98675000D01*
G75*
G02*
X138500000Y-98600000I75000J0D01*
G01*
X139825000Y-98600000D01*
G75*
G02*
X139900000Y-98675000I0J-75000D01*
G01*
X139900000Y-98825000D01*
G75*
G02*
X139825000Y-98900000I-75000J0D01*
G01*
G37*
G36*
G01*
X139825000Y-98400000D02*
X138500000Y-98400000D01*
G75*
G02*
X138425000Y-98325000I0J75000D01*
G01*
X138425000Y-98175000D01*
G75*
G02*
X138500000Y-98100000I75000J0D01*
G01*
X139825000Y-98100000D01*
G75*
G02*
X139900000Y-98175000I0J-75000D01*
G01*
X139900000Y-98325000D01*
G75*
G02*
X139825000Y-98400000I-75000J0D01*
G01*
G37*
G36*
G01*
X139825000Y-97900000D02*
X138500000Y-97900000D01*
G75*
G02*
X138425000Y-97825000I0J75000D01*
G01*
X138425000Y-97675000D01*
G75*
G02*
X138500000Y-97600000I75000J0D01*
G01*
X139825000Y-97600000D01*
G75*
G02*
X139900000Y-97675000I0J-75000D01*
G01*
X139900000Y-97825000D01*
G75*
G02*
X139825000Y-97900000I-75000J0D01*
G01*
G37*
G36*
G01*
X139825000Y-97400000D02*
X138500000Y-97400000D01*
G75*
G02*
X138425000Y-97325000I0J75000D01*
G01*
X138425000Y-97175000D01*
G75*
G02*
X138500000Y-97100000I75000J0D01*
G01*
X139825000Y-97100000D01*
G75*
G02*
X139900000Y-97175000I0J-75000D01*
G01*
X139900000Y-97325000D01*
G75*
G02*
X139825000Y-97400000I-75000J0D01*
G01*
G37*
G36*
G01*
X137825000Y-96575000D02*
X137675000Y-96575000D01*
G75*
G02*
X137600000Y-96500000I0J75000D01*
G01*
X137600000Y-95175000D01*
G75*
G02*
X137675000Y-95100000I75000J0D01*
G01*
X137825000Y-95100000D01*
G75*
G02*
X137900000Y-95175000I0J-75000D01*
G01*
X137900000Y-96500000D01*
G75*
G02*
X137825000Y-96575000I-75000J0D01*
G01*
G37*
G36*
G01*
X137325000Y-96575000D02*
X137175000Y-96575000D01*
G75*
G02*
X137100000Y-96500000I0J75000D01*
G01*
X137100000Y-95175000D01*
G75*
G02*
X137175000Y-95100000I75000J0D01*
G01*
X137325000Y-95100000D01*
G75*
G02*
X137400000Y-95175000I0J-75000D01*
G01*
X137400000Y-96500000D01*
G75*
G02*
X137325000Y-96575000I-75000J0D01*
G01*
G37*
G36*
G01*
X136825000Y-96575000D02*
X136675000Y-96575000D01*
G75*
G02*
X136600000Y-96500000I0J75000D01*
G01*
X136600000Y-95175000D01*
G75*
G02*
X136675000Y-95100000I75000J0D01*
G01*
X136825000Y-95100000D01*
G75*
G02*
X136900000Y-95175000I0J-75000D01*
G01*
X136900000Y-96500000D01*
G75*
G02*
X136825000Y-96575000I-75000J0D01*
G01*
G37*
G36*
G01*
X136325000Y-96575000D02*
X136175000Y-96575000D01*
G75*
G02*
X136100000Y-96500000I0J75000D01*
G01*
X136100000Y-95175000D01*
G75*
G02*
X136175000Y-95100000I75000J0D01*
G01*
X136325000Y-95100000D01*
G75*
G02*
X136400000Y-95175000I0J-75000D01*
G01*
X136400000Y-96500000D01*
G75*
G02*
X136325000Y-96575000I-75000J0D01*
G01*
G37*
G36*
G01*
X135825000Y-96575000D02*
X135675000Y-96575000D01*
G75*
G02*
X135600000Y-96500000I0J75000D01*
G01*
X135600000Y-95175000D01*
G75*
G02*
X135675000Y-95100000I75000J0D01*
G01*
X135825000Y-95100000D01*
G75*
G02*
X135900000Y-95175000I0J-75000D01*
G01*
X135900000Y-96500000D01*
G75*
G02*
X135825000Y-96575000I-75000J0D01*
G01*
G37*
G36*
G01*
X135325000Y-96575000D02*
X135175000Y-96575000D01*
G75*
G02*
X135100000Y-96500000I0J75000D01*
G01*
X135100000Y-95175000D01*
G75*
G02*
X135175000Y-95100000I75000J0D01*
G01*
X135325000Y-95100000D01*
G75*
G02*
X135400000Y-95175000I0J-75000D01*
G01*
X135400000Y-96500000D01*
G75*
G02*
X135325000Y-96575000I-75000J0D01*
G01*
G37*
G36*
G01*
X134825000Y-96575000D02*
X134675000Y-96575000D01*
G75*
G02*
X134600000Y-96500000I0J75000D01*
G01*
X134600000Y-95175000D01*
G75*
G02*
X134675000Y-95100000I75000J0D01*
G01*
X134825000Y-95100000D01*
G75*
G02*
X134900000Y-95175000I0J-75000D01*
G01*
X134900000Y-96500000D01*
G75*
G02*
X134825000Y-96575000I-75000J0D01*
G01*
G37*
G36*
G01*
X134325000Y-96575000D02*
X134175000Y-96575000D01*
G75*
G02*
X134100000Y-96500000I0J75000D01*
G01*
X134100000Y-95175000D01*
G75*
G02*
X134175000Y-95100000I75000J0D01*
G01*
X134325000Y-95100000D01*
G75*
G02*
X134400000Y-95175000I0J-75000D01*
G01*
X134400000Y-96500000D01*
G75*
G02*
X134325000Y-96575000I-75000J0D01*
G01*
G37*
G36*
G01*
X133825000Y-96575000D02*
X133675000Y-96575000D01*
G75*
G02*
X133600000Y-96500000I0J75000D01*
G01*
X133600000Y-95175000D01*
G75*
G02*
X133675000Y-95100000I75000J0D01*
G01*
X133825000Y-95100000D01*
G75*
G02*
X133900000Y-95175000I0J-75000D01*
G01*
X133900000Y-96500000D01*
G75*
G02*
X133825000Y-96575000I-75000J0D01*
G01*
G37*
G36*
G01*
X133325000Y-96575000D02*
X133175000Y-96575000D01*
G75*
G02*
X133100000Y-96500000I0J75000D01*
G01*
X133100000Y-95175000D01*
G75*
G02*
X133175000Y-95100000I75000J0D01*
G01*
X133325000Y-95100000D01*
G75*
G02*
X133400000Y-95175000I0J-75000D01*
G01*
X133400000Y-96500000D01*
G75*
G02*
X133325000Y-96575000I-75000J0D01*
G01*
G37*
G36*
G01*
X132825000Y-96575000D02*
X132675000Y-96575000D01*
G75*
G02*
X132600000Y-96500000I0J75000D01*
G01*
X132600000Y-95175000D01*
G75*
G02*
X132675000Y-95100000I75000J0D01*
G01*
X132825000Y-95100000D01*
G75*
G02*
X132900000Y-95175000I0J-75000D01*
G01*
X132900000Y-96500000D01*
G75*
G02*
X132825000Y-96575000I-75000J0D01*
G01*
G37*
G36*
G01*
X132325000Y-96575000D02*
X132175000Y-96575000D01*
G75*
G02*
X132100000Y-96500000I0J75000D01*
G01*
X132100000Y-95175000D01*
G75*
G02*
X132175000Y-95100000I75000J0D01*
G01*
X132325000Y-95100000D01*
G75*
G02*
X132400000Y-95175000I0J-75000D01*
G01*
X132400000Y-96500000D01*
G75*
G02*
X132325000Y-96575000I-75000J0D01*
G01*
G37*
G36*
G01*
X131500000Y-97400000D02*
X130175000Y-97400000D01*
G75*
G02*
X130100000Y-97325000I0J75000D01*
G01*
X130100000Y-97175000D01*
G75*
G02*
X130175000Y-97100000I75000J0D01*
G01*
X131500000Y-97100000D01*
G75*
G02*
X131575000Y-97175000I0J-75000D01*
G01*
X131575000Y-97325000D01*
G75*
G02*
X131500000Y-97400000I-75000J0D01*
G01*
G37*
G36*
G01*
X131500000Y-97900000D02*
X130175000Y-97900000D01*
G75*
G02*
X130100000Y-97825000I0J75000D01*
G01*
X130100000Y-97675000D01*
G75*
G02*
X130175000Y-97600000I75000J0D01*
G01*
X131500000Y-97600000D01*
G75*
G02*
X131575000Y-97675000I0J-75000D01*
G01*
X131575000Y-97825000D01*
G75*
G02*
X131500000Y-97900000I-75000J0D01*
G01*
G37*
G36*
G01*
X131500000Y-98400000D02*
X130175000Y-98400000D01*
G75*
G02*
X130100000Y-98325000I0J75000D01*
G01*
X130100000Y-98175000D01*
G75*
G02*
X130175000Y-98100000I75000J0D01*
G01*
X131500000Y-98100000D01*
G75*
G02*
X131575000Y-98175000I0J-75000D01*
G01*
X131575000Y-98325000D01*
G75*
G02*
X131500000Y-98400000I-75000J0D01*
G01*
G37*
G36*
G01*
X131500000Y-98900000D02*
X130175000Y-98900000D01*
G75*
G02*
X130100000Y-98825000I0J75000D01*
G01*
X130100000Y-98675000D01*
G75*
G02*
X130175000Y-98600000I75000J0D01*
G01*
X131500000Y-98600000D01*
G75*
G02*
X131575000Y-98675000I0J-75000D01*
G01*
X131575000Y-98825000D01*
G75*
G02*
X131500000Y-98900000I-75000J0D01*
G01*
G37*
G36*
G01*
X131500000Y-99400000D02*
X130175000Y-99400000D01*
G75*
G02*
X130100000Y-99325000I0J75000D01*
G01*
X130100000Y-99175000D01*
G75*
G02*
X130175000Y-99100000I75000J0D01*
G01*
X131500000Y-99100000D01*
G75*
G02*
X131575000Y-99175000I0J-75000D01*
G01*
X131575000Y-99325000D01*
G75*
G02*
X131500000Y-99400000I-75000J0D01*
G01*
G37*
G36*
G01*
X131500000Y-99900000D02*
X130175000Y-99900000D01*
G75*
G02*
X130100000Y-99825000I0J75000D01*
G01*
X130100000Y-99675000D01*
G75*
G02*
X130175000Y-99600000I75000J0D01*
G01*
X131500000Y-99600000D01*
G75*
G02*
X131575000Y-99675000I0J-75000D01*
G01*
X131575000Y-99825000D01*
G75*
G02*
X131500000Y-99900000I-75000J0D01*
G01*
G37*
G36*
G01*
X131500000Y-100400000D02*
X130175000Y-100400000D01*
G75*
G02*
X130100000Y-100325000I0J75000D01*
G01*
X130100000Y-100175000D01*
G75*
G02*
X130175000Y-100100000I75000J0D01*
G01*
X131500000Y-100100000D01*
G75*
G02*
X131575000Y-100175000I0J-75000D01*
G01*
X131575000Y-100325000D01*
G75*
G02*
X131500000Y-100400000I-75000J0D01*
G01*
G37*
G36*
G01*
X131500000Y-100900000D02*
X130175000Y-100900000D01*
G75*
G02*
X130100000Y-100825000I0J75000D01*
G01*
X130100000Y-100675000D01*
G75*
G02*
X130175000Y-100600000I75000J0D01*
G01*
X131500000Y-100600000D01*
G75*
G02*
X131575000Y-100675000I0J-75000D01*
G01*
X131575000Y-100825000D01*
G75*
G02*
X131500000Y-100900000I-75000J0D01*
G01*
G37*
G36*
G01*
X131500000Y-101400000D02*
X130175000Y-101400000D01*
G75*
G02*
X130100000Y-101325000I0J75000D01*
G01*
X130100000Y-101175000D01*
G75*
G02*
X130175000Y-101100000I75000J0D01*
G01*
X131500000Y-101100000D01*
G75*
G02*
X131575000Y-101175000I0J-75000D01*
G01*
X131575000Y-101325000D01*
G75*
G02*
X131500000Y-101400000I-75000J0D01*
G01*
G37*
G36*
G01*
X131500000Y-101900000D02*
X130175000Y-101900000D01*
G75*
G02*
X130100000Y-101825000I0J75000D01*
G01*
X130100000Y-101675000D01*
G75*
G02*
X130175000Y-101600000I75000J0D01*
G01*
X131500000Y-101600000D01*
G75*
G02*
X131575000Y-101675000I0J-75000D01*
G01*
X131575000Y-101825000D01*
G75*
G02*
X131500000Y-101900000I-75000J0D01*
G01*
G37*
G36*
G01*
X131500000Y-102400000D02*
X130175000Y-102400000D01*
G75*
G02*
X130100000Y-102325000I0J75000D01*
G01*
X130100000Y-102175000D01*
G75*
G02*
X130175000Y-102100000I75000J0D01*
G01*
X131500000Y-102100000D01*
G75*
G02*
X131575000Y-102175000I0J-75000D01*
G01*
X131575000Y-102325000D01*
G75*
G02*
X131500000Y-102400000I-75000J0D01*
G01*
G37*
G36*
G01*
X131500000Y-102900000D02*
X130175000Y-102900000D01*
G75*
G02*
X130100000Y-102825000I0J75000D01*
G01*
X130100000Y-102675000D01*
G75*
G02*
X130175000Y-102600000I75000J0D01*
G01*
X131500000Y-102600000D01*
G75*
G02*
X131575000Y-102675000I0J-75000D01*
G01*
X131575000Y-102825000D01*
G75*
G02*
X131500000Y-102900000I-75000J0D01*
G01*
G37*
%TD*%
%TO.C,C8*%
G36*
G01*
X138658000Y-93504000D02*
X139158000Y-93504000D01*
G75*
G02*
X139383000Y-93729000I0J-225000D01*
G01*
X139383000Y-94179000D01*
G75*
G02*
X139158000Y-94404000I-225000J0D01*
G01*
X138658000Y-94404000D01*
G75*
G02*
X138433000Y-94179000I0J225000D01*
G01*
X138433000Y-93729000D01*
G75*
G02*
X138658000Y-93504000I225000J0D01*
G01*
G37*
G36*
G01*
X138658000Y-95054000D02*
X139158000Y-95054000D01*
G75*
G02*
X139383000Y-95279000I0J-225000D01*
G01*
X139383000Y-95729000D01*
G75*
G02*
X139158000Y-95954000I-225000J0D01*
G01*
X138658000Y-95954000D01*
G75*
G02*
X138433000Y-95729000I0J225000D01*
G01*
X138433000Y-95279000D01*
G75*
G02*
X138658000Y-95054000I225000J0D01*
G01*
G37*
%TD*%
M02*
