%TF.GenerationSoftware,KiCad,Pcbnew,5.1.8-db9833491~87~ubuntu20.04.1*%
%TF.CreationDate,2020-11-05T18:06:58+01:00*%
%TF.ProjectId,rosalyn-rx,726f7361-6c79-46e2-9d72-782e6b696361,v1.0*%
%TF.SameCoordinates,Original*%
%TF.FileFunction,Paste,Bot*%
%TF.FilePolarity,Positive*%
%FSLAX46Y46*%
G04 Gerber Fmt 4.6, Leading zero omitted, Abs format (unit mm)*
G04 Created by KiCad (PCBNEW 5.1.8-db9833491~87~ubuntu20.04.1) date 2020-11-05 18:06:58*
%MOMM*%
%LPD*%
G01*
G04 APERTURE LIST*
%ADD10R,0.750000X1.500000*%
G04 APERTURE END LIST*
D10*
%TO.C,U2*%
X146420000Y-93500000D03*
X145150000Y-93500000D03*
X143880000Y-93500000D03*
X138310000Y-93500000D03*
X137040000Y-93500000D03*
X135770000Y-93500000D03*
X134500000Y-93500000D03*
X133230000Y-93500000D03*
X131960000Y-93500000D03*
X130690000Y-93500000D03*
X129420000Y-93500000D03*
X129420000Y-106500000D03*
X130690000Y-106500000D03*
X131960000Y-106500000D03*
X133230000Y-106500000D03*
X134500000Y-106500000D03*
X135770000Y-106500000D03*
X137040000Y-106500000D03*
X138310000Y-106500000D03*
X143880000Y-106500000D03*
X145150000Y-106500000D03*
X146420000Y-106500000D03*
%TD*%
%TO.C,C1*%
G36*
G01*
X130975000Y-107960000D02*
X130975000Y-108460000D01*
G75*
G02*
X130750000Y-108685000I-225000J0D01*
G01*
X130300000Y-108685000D01*
G75*
G02*
X130075000Y-108460000I0J225000D01*
G01*
X130075000Y-107960000D01*
G75*
G02*
X130300000Y-107735000I225000J0D01*
G01*
X130750000Y-107735000D01*
G75*
G02*
X130975000Y-107960000I0J-225000D01*
G01*
G37*
G36*
G01*
X132525000Y-107960000D02*
X132525000Y-108460000D01*
G75*
G02*
X132300000Y-108685000I-225000J0D01*
G01*
X131850000Y-108685000D01*
G75*
G02*
X131625000Y-108460000I0J225000D01*
G01*
X131625000Y-107960000D01*
G75*
G02*
X131850000Y-107735000I225000J0D01*
G01*
X132300000Y-107735000D01*
G75*
G02*
X132525000Y-107960000I0J-225000D01*
G01*
G37*
%TD*%
%TO.C,R10*%
G36*
G01*
X133045000Y-91810000D02*
X133415000Y-91810000D01*
G75*
G02*
X133550000Y-91945000I0J-135000D01*
G01*
X133550000Y-92215000D01*
G75*
G02*
X133415000Y-92350000I-135000J0D01*
G01*
X133045000Y-92350000D01*
G75*
G02*
X132910000Y-92215000I0J135000D01*
G01*
X132910000Y-91945000D01*
G75*
G02*
X133045000Y-91810000I135000J0D01*
G01*
G37*
G36*
G01*
X133045000Y-90790000D02*
X133415000Y-90790000D01*
G75*
G02*
X133550000Y-90925000I0J-135000D01*
G01*
X133550000Y-91195000D01*
G75*
G02*
X133415000Y-91330000I-135000J0D01*
G01*
X133045000Y-91330000D01*
G75*
G02*
X132910000Y-91195000I0J135000D01*
G01*
X132910000Y-90925000D01*
G75*
G02*
X133045000Y-90790000I135000J0D01*
G01*
G37*
%TD*%
%TO.C,R9*%
G36*
G01*
X131775000Y-91810000D02*
X132145000Y-91810000D01*
G75*
G02*
X132280000Y-91945000I0J-135000D01*
G01*
X132280000Y-92215000D01*
G75*
G02*
X132145000Y-92350000I-135000J0D01*
G01*
X131775000Y-92350000D01*
G75*
G02*
X131640000Y-92215000I0J135000D01*
G01*
X131640000Y-91945000D01*
G75*
G02*
X131775000Y-91810000I135000J0D01*
G01*
G37*
G36*
G01*
X131775000Y-90790000D02*
X132145000Y-90790000D01*
G75*
G02*
X132280000Y-90925000I0J-135000D01*
G01*
X132280000Y-91195000D01*
G75*
G02*
X132145000Y-91330000I-135000J0D01*
G01*
X131775000Y-91330000D01*
G75*
G02*
X131640000Y-91195000I0J135000D01*
G01*
X131640000Y-90925000D01*
G75*
G02*
X131775000Y-90790000I135000J0D01*
G01*
G37*
%TD*%
%TO.C,R8*%
G36*
G01*
X133445000Y-108210000D02*
X133075000Y-108210000D01*
G75*
G02*
X132940000Y-108075000I0J135000D01*
G01*
X132940000Y-107805000D01*
G75*
G02*
X133075000Y-107670000I135000J0D01*
G01*
X133445000Y-107670000D01*
G75*
G02*
X133580000Y-107805000I0J-135000D01*
G01*
X133580000Y-108075000D01*
G75*
G02*
X133445000Y-108210000I-135000J0D01*
G01*
G37*
G36*
G01*
X133445000Y-109230000D02*
X133075000Y-109230000D01*
G75*
G02*
X132940000Y-109095000I0J135000D01*
G01*
X132940000Y-108825000D01*
G75*
G02*
X133075000Y-108690000I135000J0D01*
G01*
X133445000Y-108690000D01*
G75*
G02*
X133580000Y-108825000I0J-135000D01*
G01*
X133580000Y-109095000D01*
G75*
G02*
X133445000Y-109230000I-135000J0D01*
G01*
G37*
%TD*%
%TO.C,R7*%
G36*
G01*
X130505000Y-91810000D02*
X130875000Y-91810000D01*
G75*
G02*
X131010000Y-91945000I0J-135000D01*
G01*
X131010000Y-92215000D01*
G75*
G02*
X130875000Y-92350000I-135000J0D01*
G01*
X130505000Y-92350000D01*
G75*
G02*
X130370000Y-92215000I0J135000D01*
G01*
X130370000Y-91945000D01*
G75*
G02*
X130505000Y-91810000I135000J0D01*
G01*
G37*
G36*
G01*
X130505000Y-90790000D02*
X130875000Y-90790000D01*
G75*
G02*
X131010000Y-90925000I0J-135000D01*
G01*
X131010000Y-91195000D01*
G75*
G02*
X130875000Y-91330000I-135000J0D01*
G01*
X130505000Y-91330000D01*
G75*
G02*
X130370000Y-91195000I0J135000D01*
G01*
X130370000Y-90925000D01*
G75*
G02*
X130505000Y-90790000I135000J0D01*
G01*
G37*
%TD*%
%TO.C,R6*%
G36*
G01*
X134685000Y-108190000D02*
X134315000Y-108190000D01*
G75*
G02*
X134180000Y-108055000I0J135000D01*
G01*
X134180000Y-107785000D01*
G75*
G02*
X134315000Y-107650000I135000J0D01*
G01*
X134685000Y-107650000D01*
G75*
G02*
X134820000Y-107785000I0J-135000D01*
G01*
X134820000Y-108055000D01*
G75*
G02*
X134685000Y-108190000I-135000J0D01*
G01*
G37*
G36*
G01*
X134685000Y-109210000D02*
X134315000Y-109210000D01*
G75*
G02*
X134180000Y-109075000I0J135000D01*
G01*
X134180000Y-108805000D01*
G75*
G02*
X134315000Y-108670000I135000J0D01*
G01*
X134685000Y-108670000D01*
G75*
G02*
X134820000Y-108805000I0J-135000D01*
G01*
X134820000Y-109075000D01*
G75*
G02*
X134685000Y-109210000I-135000J0D01*
G01*
G37*
%TD*%
%TO.C,R5*%
G36*
G01*
X135955000Y-108190000D02*
X135585000Y-108190000D01*
G75*
G02*
X135450000Y-108055000I0J135000D01*
G01*
X135450000Y-107785000D01*
G75*
G02*
X135585000Y-107650000I135000J0D01*
G01*
X135955000Y-107650000D01*
G75*
G02*
X136090000Y-107785000I0J-135000D01*
G01*
X136090000Y-108055000D01*
G75*
G02*
X135955000Y-108190000I-135000J0D01*
G01*
G37*
G36*
G01*
X135955000Y-109210000D02*
X135585000Y-109210000D01*
G75*
G02*
X135450000Y-109075000I0J135000D01*
G01*
X135450000Y-108805000D01*
G75*
G02*
X135585000Y-108670000I135000J0D01*
G01*
X135955000Y-108670000D01*
G75*
G02*
X136090000Y-108805000I0J-135000D01*
G01*
X136090000Y-109075000D01*
G75*
G02*
X135955000Y-109210000I-135000J0D01*
G01*
G37*
%TD*%
%TO.C,R4*%
G36*
G01*
X135955000Y-91330000D02*
X135585000Y-91330000D01*
G75*
G02*
X135450000Y-91195000I0J135000D01*
G01*
X135450000Y-90925000D01*
G75*
G02*
X135585000Y-90790000I135000J0D01*
G01*
X135955000Y-90790000D01*
G75*
G02*
X136090000Y-90925000I0J-135000D01*
G01*
X136090000Y-91195000D01*
G75*
G02*
X135955000Y-91330000I-135000J0D01*
G01*
G37*
G36*
G01*
X135955000Y-92350000D02*
X135585000Y-92350000D01*
G75*
G02*
X135450000Y-92215000I0J135000D01*
G01*
X135450000Y-91945000D01*
G75*
G02*
X135585000Y-91810000I135000J0D01*
G01*
X135955000Y-91810000D01*
G75*
G02*
X136090000Y-91945000I0J-135000D01*
G01*
X136090000Y-92215000D01*
G75*
G02*
X135955000Y-92350000I-135000J0D01*
G01*
G37*
%TD*%
%TO.C,R3*%
G36*
G01*
X134685000Y-91330000D02*
X134315000Y-91330000D01*
G75*
G02*
X134180000Y-91195000I0J135000D01*
G01*
X134180000Y-90925000D01*
G75*
G02*
X134315000Y-90790000I135000J0D01*
G01*
X134685000Y-90790000D01*
G75*
G02*
X134820000Y-90925000I0J-135000D01*
G01*
X134820000Y-91195000D01*
G75*
G02*
X134685000Y-91330000I-135000J0D01*
G01*
G37*
G36*
G01*
X134685000Y-92350000D02*
X134315000Y-92350000D01*
G75*
G02*
X134180000Y-92215000I0J135000D01*
G01*
X134180000Y-91945000D01*
G75*
G02*
X134315000Y-91810000I135000J0D01*
G01*
X134685000Y-91810000D01*
G75*
G02*
X134820000Y-91945000I0J-135000D01*
G01*
X134820000Y-92215000D01*
G75*
G02*
X134685000Y-92350000I-135000J0D01*
G01*
G37*
%TD*%
%TO.C,R2*%
G36*
G01*
X137225000Y-91330000D02*
X136855000Y-91330000D01*
G75*
G02*
X136720000Y-91195000I0J135000D01*
G01*
X136720000Y-90925000D01*
G75*
G02*
X136855000Y-90790000I135000J0D01*
G01*
X137225000Y-90790000D01*
G75*
G02*
X137360000Y-90925000I0J-135000D01*
G01*
X137360000Y-91195000D01*
G75*
G02*
X137225000Y-91330000I-135000J0D01*
G01*
G37*
G36*
G01*
X137225000Y-92350000D02*
X136855000Y-92350000D01*
G75*
G02*
X136720000Y-92215000I0J135000D01*
G01*
X136720000Y-91945000D01*
G75*
G02*
X136855000Y-91810000I135000J0D01*
G01*
X137225000Y-91810000D01*
G75*
G02*
X137360000Y-91945000I0J-135000D01*
G01*
X137360000Y-92215000D01*
G75*
G02*
X137225000Y-92350000I-135000J0D01*
G01*
G37*
%TD*%
%TO.C,R1*%
G36*
G01*
X138495000Y-91330000D02*
X138125000Y-91330000D01*
G75*
G02*
X137990000Y-91195000I0J135000D01*
G01*
X137990000Y-90925000D01*
G75*
G02*
X138125000Y-90790000I135000J0D01*
G01*
X138495000Y-90790000D01*
G75*
G02*
X138630000Y-90925000I0J-135000D01*
G01*
X138630000Y-91195000D01*
G75*
G02*
X138495000Y-91330000I-135000J0D01*
G01*
G37*
G36*
G01*
X138495000Y-92350000D02*
X138125000Y-92350000D01*
G75*
G02*
X137990000Y-92215000I0J135000D01*
G01*
X137990000Y-91945000D01*
G75*
G02*
X138125000Y-91810000I135000J0D01*
G01*
X138495000Y-91810000D01*
G75*
G02*
X138630000Y-91945000I0J-135000D01*
G01*
X138630000Y-92215000D01*
G75*
G02*
X138495000Y-92350000I-135000J0D01*
G01*
G37*
%TD*%
M02*
