%TF.GenerationSoftware,KiCad,Pcbnew,5.1.8-db9833491~87~ubuntu20.04.1*%
%TF.CreationDate,2020-11-23T17:04:18+01:00*%
%TF.ProjectId,rosalyn-rx,726f7361-6c79-46e2-9d72-782e6b696361,v1.0*%
%TF.SameCoordinates,Original*%
%TF.FileFunction,Copper,L4,Bot*%
%TF.FilePolarity,Positive*%
%FSLAX46Y46*%
G04 Gerber Fmt 4.6, Leading zero omitted, Abs format (unit mm)*
G04 Created by KiCad (PCBNEW 5.1.8-db9833491~87~ubuntu20.04.1) date 2020-11-23 17:04:18*
%MOMM*%
%LPD*%
G01*
G04 APERTURE LIST*
%TA.AperFunction,SMDPad,CuDef*%
%ADD10R,0.750000X1.500000*%
%TD*%
%TA.AperFunction,ComponentPad*%
%ADD11O,1.700000X1.700000*%
%TD*%
%TA.AperFunction,ComponentPad*%
%ADD12R,1.700000X1.700000*%
%TD*%
%TA.AperFunction,ViaPad*%
%ADD13C,0.800000*%
%TD*%
%TA.AperFunction,ViaPad*%
%ADD14C,0.600000*%
%TD*%
%TA.AperFunction,Conductor*%
%ADD15C,0.250000*%
%TD*%
%TA.AperFunction,Conductor*%
%ADD16C,0.200000*%
%TD*%
%TA.AperFunction,Conductor*%
%ADD17C,0.500000*%
%TD*%
%TA.AperFunction,Conductor*%
%ADD18C,0.400000*%
%TD*%
G04 APERTURE END LIST*
%TO.P,C14,1*%
%TO.N,Net-(C14-Pad1)*%
%TA.AperFunction,SMDPad,CuDef*%
G36*
G01*
X149190000Y-106215000D02*
X149190000Y-105265000D01*
G75*
G02*
X149440000Y-105015000I250000J0D01*
G01*
X149940000Y-105015000D01*
G75*
G02*
X150190000Y-105265000I0J-250000D01*
G01*
X150190000Y-106215000D01*
G75*
G02*
X149940000Y-106465000I-250000J0D01*
G01*
X149440000Y-106465000D01*
G75*
G02*
X149190000Y-106215000I0J250000D01*
G01*
G37*
%TD.AperFunction*%
%TO.P,C14,2*%
%TO.N,GND*%
%TA.AperFunction,SMDPad,CuDef*%
G36*
G01*
X151090000Y-106215000D02*
X151090000Y-105265000D01*
G75*
G02*
X151340000Y-105015000I250000J0D01*
G01*
X151840000Y-105015000D01*
G75*
G02*
X152090000Y-105265000I0J-250000D01*
G01*
X152090000Y-106215000D01*
G75*
G02*
X151840000Y-106465000I-250000J0D01*
G01*
X151340000Y-106465000D01*
G75*
G02*
X151090000Y-106215000I0J250000D01*
G01*
G37*
%TD.AperFunction*%
%TD*%
%TO.P,C15,2*%
%TO.N,GND*%
%TA.AperFunction,SMDPad,CuDef*%
G36*
G01*
X150840000Y-103575000D02*
X151340000Y-103575000D01*
G75*
G02*
X151565000Y-103800000I0J-225000D01*
G01*
X151565000Y-104250000D01*
G75*
G02*
X151340000Y-104475000I-225000J0D01*
G01*
X150840000Y-104475000D01*
G75*
G02*
X150615000Y-104250000I0J225000D01*
G01*
X150615000Y-103800000D01*
G75*
G02*
X150840000Y-103575000I225000J0D01*
G01*
G37*
%TD.AperFunction*%
%TO.P,C15,1*%
%TO.N,Net-(C14-Pad1)*%
%TA.AperFunction,SMDPad,CuDef*%
G36*
G01*
X150840000Y-102025000D02*
X151340000Y-102025000D01*
G75*
G02*
X151565000Y-102250000I0J-225000D01*
G01*
X151565000Y-102700000D01*
G75*
G02*
X151340000Y-102925000I-225000J0D01*
G01*
X150840000Y-102925000D01*
G75*
G02*
X150615000Y-102700000I0J225000D01*
G01*
X150615000Y-102250000D01*
G75*
G02*
X150840000Y-102025000I225000J0D01*
G01*
G37*
%TD.AperFunction*%
%TD*%
%TO.P,C6,2*%
%TO.N,GND*%
%TA.AperFunction,SMDPad,CuDef*%
G36*
G01*
X149350000Y-103575000D02*
X149850000Y-103575000D01*
G75*
G02*
X150075000Y-103800000I0J-225000D01*
G01*
X150075000Y-104250000D01*
G75*
G02*
X149850000Y-104475000I-225000J0D01*
G01*
X149350000Y-104475000D01*
G75*
G02*
X149125000Y-104250000I0J225000D01*
G01*
X149125000Y-103800000D01*
G75*
G02*
X149350000Y-103575000I225000J0D01*
G01*
G37*
%TD.AperFunction*%
%TO.P,C6,1*%
%TO.N,Net-(C14-Pad1)*%
%TA.AperFunction,SMDPad,CuDef*%
G36*
G01*
X149350000Y-102025000D02*
X149850000Y-102025000D01*
G75*
G02*
X150075000Y-102250000I0J-225000D01*
G01*
X150075000Y-102700000D01*
G75*
G02*
X149850000Y-102925000I-225000J0D01*
G01*
X149350000Y-102925000D01*
G75*
G02*
X149125000Y-102700000I0J225000D01*
G01*
X149125000Y-102250000D01*
G75*
G02*
X149350000Y-102025000I225000J0D01*
G01*
G37*
%TD.AperFunction*%
%TD*%
%TO.P,FB2,2*%
%TO.N,+3V3*%
%TA.AperFunction,SMDPad,CuDef*%
G36*
G01*
X151245000Y-107991250D02*
X151245000Y-107228750D01*
G75*
G02*
X151463750Y-107010000I218750J0D01*
G01*
X151901250Y-107010000D01*
G75*
G02*
X152120000Y-107228750I0J-218750D01*
G01*
X152120000Y-107991250D01*
G75*
G02*
X151901250Y-108210000I-218750J0D01*
G01*
X151463750Y-108210000D01*
G75*
G02*
X151245000Y-107991250I0J218750D01*
G01*
G37*
%TD.AperFunction*%
%TO.P,FB2,1*%
%TO.N,Net-(C14-Pad1)*%
%TA.AperFunction,SMDPad,CuDef*%
G36*
G01*
X149120000Y-107991250D02*
X149120000Y-107228750D01*
G75*
G02*
X149338750Y-107010000I218750J0D01*
G01*
X149776250Y-107010000D01*
G75*
G02*
X149995000Y-107228750I0J-218750D01*
G01*
X149995000Y-107991250D01*
G75*
G02*
X149776250Y-108210000I-218750J0D01*
G01*
X149338750Y-108210000D01*
G75*
G02*
X149120000Y-107991250I0J218750D01*
G01*
G37*
%TD.AperFunction*%
%TD*%
D10*
%TO.P,U2,1*%
%TO.N,GND*%
X147420000Y-106500000D03*
%TO.P,U2,2*%
X146150000Y-106500000D03*
%TO.P,U2,3*%
X144880000Y-106500000D03*
%TO.P,U2,4*%
X139310000Y-106500000D03*
%TO.P,U2,5*%
X138040000Y-106500000D03*
%TO.P,U2,6*%
%TO.N,e22_rxen*%
X136770000Y-106500000D03*
%TO.P,U2,7*%
%TO.N,e22_txen*%
X135500000Y-106500000D03*
%TO.P,U2,8*%
%TO.N,e22_dio2*%
X134230000Y-106500000D03*
%TO.P,U2,9*%
%TO.N,+3V3*%
X132960000Y-106500000D03*
%TO.P,U2,10*%
%TO.N,GND*%
X131690000Y-106500000D03*
%TO.P,U2,11*%
X130420000Y-106500000D03*
%TO.P,U2,12*%
X130420000Y-93500000D03*
%TO.P,U2,13*%
%TO.N,e22_dio1*%
X131690000Y-93500000D03*
%TO.P,U2,14*%
%TO.N,e22_busy*%
X132960000Y-93500000D03*
%TO.P,U2,15*%
%TO.N,e22_nrst*%
X134230000Y-93500000D03*
%TO.P,U2,16*%
%TO.N,spi2_miso*%
X135500000Y-93500000D03*
%TO.P,U2,17*%
%TO.N,spi2_mosi*%
X136770000Y-93500000D03*
%TO.P,U2,18*%
%TO.N,spi2_sck*%
X138040000Y-93500000D03*
%TO.P,U2,19*%
%TO.N,e22_nss*%
X139310000Y-93500000D03*
%TO.P,U2,20*%
%TO.N,GND*%
X144880000Y-93500000D03*
%TO.P,U2,21*%
%TO.N,N/C*%
X146150000Y-93500000D03*
%TO.P,U2,22*%
%TO.N,GND*%
X147420000Y-93500000D03*
%TD*%
%TO.P,U6,1*%
%TO.N,Net-(C14-Pad1)*%
%TA.AperFunction,SMDPad,CuDef*%
G36*
G01*
X149450000Y-101087500D02*
X149450000Y-100912500D01*
G75*
G02*
X149537500Y-100825000I87500J0D01*
G01*
X149912500Y-100825000D01*
G75*
G02*
X150000000Y-100912500I0J-87500D01*
G01*
X150000000Y-101087500D01*
G75*
G02*
X149912500Y-101175000I-87500J0D01*
G01*
X149537500Y-101175000D01*
G75*
G02*
X149450000Y-101087500I0J87500D01*
G01*
G37*
%TD.AperFunction*%
%TO.P,U6,2*%
%TO.N,spi1_sck*%
%TA.AperFunction,SMDPad,CuDef*%
G36*
G01*
X149450000Y-100587500D02*
X149450000Y-100412500D01*
G75*
G02*
X149537500Y-100325000I87500J0D01*
G01*
X149912500Y-100325000D01*
G75*
G02*
X150000000Y-100412500I0J-87500D01*
G01*
X150000000Y-100587500D01*
G75*
G02*
X149912500Y-100675000I-87500J0D01*
G01*
X149537500Y-100675000D01*
G75*
G02*
X149450000Y-100587500I0J87500D01*
G01*
G37*
%TD.AperFunction*%
%TO.P,U6,3*%
%TO.N,spi1_mosi*%
%TA.AperFunction,SMDPad,CuDef*%
G36*
G01*
X149450000Y-100087500D02*
X149450000Y-99912500D01*
G75*
G02*
X149537500Y-99825000I87500J0D01*
G01*
X149912500Y-99825000D01*
G75*
G02*
X150000000Y-99912500I0J-87500D01*
G01*
X150000000Y-100087500D01*
G75*
G02*
X149912500Y-100175000I-87500J0D01*
G01*
X149537500Y-100175000D01*
G75*
G02*
X149450000Y-100087500I0J87500D01*
G01*
G37*
%TD.AperFunction*%
%TO.P,U6,4*%
%TO.N,spi1_miso*%
%TA.AperFunction,SMDPad,CuDef*%
G36*
G01*
X149450000Y-99587500D02*
X149450000Y-99412500D01*
G75*
G02*
X149537500Y-99325000I87500J0D01*
G01*
X149912500Y-99325000D01*
G75*
G02*
X150000000Y-99412500I0J-87500D01*
G01*
X150000000Y-99587500D01*
G75*
G02*
X149912500Y-99675000I-87500J0D01*
G01*
X149537500Y-99675000D01*
G75*
G02*
X149450000Y-99587500I0J87500D01*
G01*
G37*
%TD.AperFunction*%
%TO.P,U6,5*%
%TO.N,icm_nss*%
%TA.AperFunction,SMDPad,CuDef*%
G36*
G01*
X149450000Y-99087500D02*
X149450000Y-98912500D01*
G75*
G02*
X149537500Y-98825000I87500J0D01*
G01*
X149912500Y-98825000D01*
G75*
G02*
X150000000Y-98912500I0J-87500D01*
G01*
X150000000Y-99087500D01*
G75*
G02*
X149912500Y-99175000I-87500J0D01*
G01*
X149537500Y-99175000D01*
G75*
G02*
X149450000Y-99087500I0J87500D01*
G01*
G37*
%TD.AperFunction*%
%TO.P,U6,6*%
%TO.N,icm_int*%
%TA.AperFunction,SMDPad,CuDef*%
G36*
G01*
X150275000Y-98962500D02*
X150275000Y-98587500D01*
G75*
G02*
X150362500Y-98500000I87500J0D01*
G01*
X150537500Y-98500000D01*
G75*
G02*
X150625000Y-98587500I0J-87500D01*
G01*
X150625000Y-98962500D01*
G75*
G02*
X150537500Y-99050000I-87500J0D01*
G01*
X150362500Y-99050000D01*
G75*
G02*
X150275000Y-98962500I0J87500D01*
G01*
G37*
%TD.AperFunction*%
%TO.P,U6,7*%
%TO.N,N/C*%
%TA.AperFunction,SMDPad,CuDef*%
G36*
G01*
X150775000Y-98962500D02*
X150775000Y-98587500D01*
G75*
G02*
X150862500Y-98500000I87500J0D01*
G01*
X151037500Y-98500000D01*
G75*
G02*
X151125000Y-98587500I0J-87500D01*
G01*
X151125000Y-98962500D01*
G75*
G02*
X151037500Y-99050000I-87500J0D01*
G01*
X150862500Y-99050000D01*
G75*
G02*
X150775000Y-98962500I0J87500D01*
G01*
G37*
%TD.AperFunction*%
%TO.P,U6,8*%
%TO.N,GND*%
%TA.AperFunction,SMDPad,CuDef*%
G36*
G01*
X151275000Y-98962500D02*
X151275000Y-98587500D01*
G75*
G02*
X151362500Y-98500000I87500J0D01*
G01*
X151537500Y-98500000D01*
G75*
G02*
X151625000Y-98587500I0J-87500D01*
G01*
X151625000Y-98962500D01*
G75*
G02*
X151537500Y-99050000I-87500J0D01*
G01*
X151362500Y-99050000D01*
G75*
G02*
X151275000Y-98962500I0J87500D01*
G01*
G37*
%TD.AperFunction*%
%TO.P,U6,9*%
%TA.AperFunction,SMDPad,CuDef*%
G36*
G01*
X151900000Y-99087500D02*
X151900000Y-98912500D01*
G75*
G02*
X151987500Y-98825000I87500J0D01*
G01*
X152362500Y-98825000D01*
G75*
G02*
X152450000Y-98912500I0J-87500D01*
G01*
X152450000Y-99087500D01*
G75*
G02*
X152362500Y-99175000I-87500J0D01*
G01*
X151987500Y-99175000D01*
G75*
G02*
X151900000Y-99087500I0J87500D01*
G01*
G37*
%TD.AperFunction*%
%TO.P,U6,10*%
%TA.AperFunction,SMDPad,CuDef*%
G36*
G01*
X151900000Y-99587500D02*
X151900000Y-99412500D01*
G75*
G02*
X151987500Y-99325000I87500J0D01*
G01*
X152362500Y-99325000D01*
G75*
G02*
X152450000Y-99412500I0J-87500D01*
G01*
X152450000Y-99587500D01*
G75*
G02*
X152362500Y-99675000I-87500J0D01*
G01*
X151987500Y-99675000D01*
G75*
G02*
X151900000Y-99587500I0J87500D01*
G01*
G37*
%TD.AperFunction*%
%TO.P,U6,11*%
%TA.AperFunction,SMDPad,CuDef*%
G36*
G01*
X151900000Y-100087500D02*
X151900000Y-99912500D01*
G75*
G02*
X151987500Y-99825000I87500J0D01*
G01*
X152362500Y-99825000D01*
G75*
G02*
X152450000Y-99912500I0J-87500D01*
G01*
X152450000Y-100087500D01*
G75*
G02*
X152362500Y-100175000I-87500J0D01*
G01*
X151987500Y-100175000D01*
G75*
G02*
X151900000Y-100087500I0J87500D01*
G01*
G37*
%TD.AperFunction*%
%TO.P,U6,12*%
%TA.AperFunction,SMDPad,CuDef*%
G36*
G01*
X151900000Y-100587500D02*
X151900000Y-100412500D01*
G75*
G02*
X151987500Y-100325000I87500J0D01*
G01*
X152362500Y-100325000D01*
G75*
G02*
X152450000Y-100412500I0J-87500D01*
G01*
X152450000Y-100587500D01*
G75*
G02*
X152362500Y-100675000I-87500J0D01*
G01*
X151987500Y-100675000D01*
G75*
G02*
X151900000Y-100587500I0J87500D01*
G01*
G37*
%TD.AperFunction*%
%TO.P,U6,13*%
%TA.AperFunction,SMDPad,CuDef*%
G36*
G01*
X151900000Y-101087500D02*
X151900000Y-100912500D01*
G75*
G02*
X151987500Y-100825000I87500J0D01*
G01*
X152362500Y-100825000D01*
G75*
G02*
X152450000Y-100912500I0J-87500D01*
G01*
X152450000Y-101087500D01*
G75*
G02*
X152362500Y-101175000I-87500J0D01*
G01*
X151987500Y-101175000D01*
G75*
G02*
X151900000Y-101087500I0J87500D01*
G01*
G37*
%TD.AperFunction*%
%TO.P,U6,14*%
%TO.N,Net-(C13-Pad1)*%
%TA.AperFunction,SMDPad,CuDef*%
G36*
G01*
X151275000Y-101412500D02*
X151275000Y-101037500D01*
G75*
G02*
X151362500Y-100950000I87500J0D01*
G01*
X151537500Y-100950000D01*
G75*
G02*
X151625000Y-101037500I0J-87500D01*
G01*
X151625000Y-101412500D01*
G75*
G02*
X151537500Y-101500000I-87500J0D01*
G01*
X151362500Y-101500000D01*
G75*
G02*
X151275000Y-101412500I0J87500D01*
G01*
G37*
%TD.AperFunction*%
%TO.P,U6,15*%
%TO.N,GND*%
%TA.AperFunction,SMDPad,CuDef*%
G36*
G01*
X150775000Y-101412500D02*
X150775000Y-101037500D01*
G75*
G02*
X150862500Y-100950000I87500J0D01*
G01*
X151037500Y-100950000D01*
G75*
G02*
X151125000Y-101037500I0J-87500D01*
G01*
X151125000Y-101412500D01*
G75*
G02*
X151037500Y-101500000I-87500J0D01*
G01*
X150862500Y-101500000D01*
G75*
G02*
X150775000Y-101412500I0J87500D01*
G01*
G37*
%TD.AperFunction*%
%TO.P,U6,16*%
%TO.N,Net-(C14-Pad1)*%
%TA.AperFunction,SMDPad,CuDef*%
G36*
G01*
X150275000Y-101412500D02*
X150275000Y-101037500D01*
G75*
G02*
X150362500Y-100950000I87500J0D01*
G01*
X150537500Y-100950000D01*
G75*
G02*
X150625000Y-101037500I0J-87500D01*
G01*
X150625000Y-101412500D01*
G75*
G02*
X150537500Y-101500000I-87500J0D01*
G01*
X150362500Y-101500000D01*
G75*
G02*
X150275000Y-101412500I0J87500D01*
G01*
G37*
%TD.AperFunction*%
%TD*%
D11*
%TO.P,J4,10*%
%TO.N,GND*%
X120410000Y-108890000D03*
X120410000Y-91110000D03*
X120410000Y-106350000D03*
X120410000Y-103810000D03*
X120410000Y-101270000D03*
X120410000Y-98730000D03*
X120410000Y-96190000D03*
X120410000Y-93650000D03*
%TO.P,J4,9*%
%TO.N,+5V*%
X122950000Y-91110000D03*
X122950000Y-93650000D03*
X122950000Y-96190000D03*
X122950000Y-98730000D03*
X122950000Y-101270000D03*
X122950000Y-103810000D03*
X122950000Y-106350000D03*
X122950000Y-108890000D03*
D12*
%TO.P,J4,1*%
%TO.N,Net-(J4-Pad1)*%
X125490000Y-91110000D03*
D11*
%TO.P,J4,2*%
%TO.N,Net-(J4-Pad2)*%
X125490000Y-93650000D03*
%TO.P,J4,3*%
%TO.N,Net-(J4-Pad3)*%
X125490000Y-96190000D03*
%TO.P,J4,4*%
%TO.N,Net-(J4-Pad4)*%
X125490000Y-98730000D03*
%TO.P,J4,5*%
%TO.N,Net-(J4-Pad5)*%
X125490000Y-101270000D03*
%TO.P,J4,6*%
%TO.N,Net-(J4-Pad6)*%
X125490000Y-103810000D03*
%TO.P,J4,7*%
%TO.N,Net-(J4-Pad7)*%
X125490000Y-106350000D03*
%TO.P,J4,8*%
%TO.N,Net-(J4-Pad8)*%
X125490000Y-108890000D03*
%TD*%
%TO.P,C13,1*%
%TO.N,Net-(C13-Pad1)*%
%TA.AperFunction,SMDPad,CuDef*%
G36*
G01*
X152350000Y-102025000D02*
X152850000Y-102025000D01*
G75*
G02*
X153075000Y-102250000I0J-225000D01*
G01*
X153075000Y-102700000D01*
G75*
G02*
X152850000Y-102925000I-225000J0D01*
G01*
X152350000Y-102925000D01*
G75*
G02*
X152125000Y-102700000I0J225000D01*
G01*
X152125000Y-102250000D01*
G75*
G02*
X152350000Y-102025000I225000J0D01*
G01*
G37*
%TD.AperFunction*%
%TO.P,C13,2*%
%TO.N,GND*%
%TA.AperFunction,SMDPad,CuDef*%
G36*
G01*
X152350000Y-103575000D02*
X152850000Y-103575000D01*
G75*
G02*
X153075000Y-103800000I0J-225000D01*
G01*
X153075000Y-104250000D01*
G75*
G02*
X152850000Y-104475000I-225000J0D01*
G01*
X152350000Y-104475000D01*
G75*
G02*
X152125000Y-104250000I0J225000D01*
G01*
X152125000Y-103800000D01*
G75*
G02*
X152350000Y-103575000I225000J0D01*
G01*
G37*
%TD.AperFunction*%
%TD*%
D13*
%TO.N,e22_nss*%
X142400000Y-93200000D03*
D14*
%TO.N,e22_rxen*%
X139352738Y-101997789D03*
%TO.N,e22_txen*%
X138720000Y-102520000D03*
D13*
%TO.N,e22_dio1*%
X139240000Y-99060000D03*
D14*
%TO.N,e22_dio2*%
X137970000Y-102850000D03*
D13*
%TO.N,e22_busy*%
X140290000Y-98510000D03*
%TO.N,e22_nrst*%
X141330000Y-97610000D03*
%TO.N,GND*%
X134110000Y-95480000D03*
X144880000Y-92150000D03*
X147420000Y-92150000D03*
X146160000Y-105150000D03*
X147410000Y-105150000D03*
X144160000Y-95210000D03*
X143423776Y-97752199D03*
X132960000Y-91630000D03*
X131690000Y-107860000D03*
X130419996Y-107850000D03*
X133519996Y-104260000D03*
D14*
X130420000Y-94749994D03*
D13*
X131980000Y-103180000D03*
X136050000Y-108660000D03*
D14*
X139309997Y-108570003D03*
X138040000Y-108570000D03*
D13*
X145170000Y-105010000D03*
X140550000Y-108660000D03*
X134560000Y-108660000D03*
D14*
X141350038Y-102970021D03*
D13*
X137776256Y-101793232D03*
X150369992Y-95569992D03*
X152690000Y-105740000D03*
D14*
X151310000Y-100430000D03*
D13*
%TO.N,+3V3*%
X133020000Y-95740000D03*
X132730000Y-102280000D03*
X146180000Y-96490000D03*
X138340000Y-91680000D03*
X127010000Y-91150000D03*
X132960000Y-107859986D03*
X135930000Y-96390000D03*
D14*
X141850000Y-105400000D03*
D13*
X137069953Y-103612337D03*
X127010000Y-108830000D03*
X151680000Y-108810004D03*
%TO.N,+5V*%
X129370000Y-106430000D03*
X129400000Y-92630000D03*
D14*
%TO.N,i2c_sda*%
X142870000Y-105480000D03*
X147247613Y-101943504D03*
D13*
X142660000Y-101970000D03*
X141885190Y-109155040D03*
D14*
%TO.N,i2c_scl*%
X143850000Y-105470000D03*
X147240000Y-102829990D03*
X143440000Y-102860000D03*
D13*
X143850002Y-109310000D03*
%TO.N,hmi_error*%
X129130000Y-103720000D03*
X142270000Y-100660004D03*
%TO.N,hmi_status*%
X129150000Y-96260000D03*
X143100000Y-99830000D03*
%TO.N,swclk*%
X143600000Y-93400000D03*
X142740000Y-98730000D03*
D14*
%TO.N,boot0*%
X133570477Y-105160011D03*
D13*
X138730000Y-101010000D03*
D14*
%TO.N,spi1_sck*%
X147347440Y-101149745D03*
%TO.N,spi1_mosi*%
X146380734Y-101073837D03*
%TO.N,spi1_miso*%
X147180000Y-99710000D03*
D13*
%TO.N,spi2_sck*%
X140600000Y-93199970D03*
%TO.N,spi2_miso*%
X141650000Y-98650000D03*
%TO.N,spi2_mosi*%
X141200000Y-94400000D03*
%TO.N,icm_int*%
X150200000Y-98010010D03*
%TO.N,icm_nss*%
X148720000Y-98790000D03*
%TO.N,Net-(C14-Pad1)*%
X146370000Y-108090000D03*
%TD*%
D15*
%TO.N,e22_nss*%
X141474999Y-92274999D02*
X142400000Y-93200000D01*
X139535001Y-92274999D02*
X141474999Y-92274999D01*
X139310000Y-92500000D02*
X139535001Y-92274999D01*
X139310000Y-93500000D02*
X139310000Y-92500000D01*
D16*
%TO.N,e22_rxen*%
X136770000Y-106500000D02*
X136770000Y-105508992D01*
X136770000Y-105508992D02*
X139352738Y-102926254D01*
X139352738Y-102926254D02*
X139352738Y-101997789D01*
%TO.N,e22_txen*%
X135500000Y-106500000D02*
X135500000Y-106213292D01*
X135500000Y-104890000D02*
X135500000Y-106500000D01*
X136030000Y-104360000D02*
X135500000Y-104890000D01*
X137353292Y-104360000D02*
X136030000Y-104360000D01*
X138720000Y-102993292D02*
X137353292Y-104360000D01*
X138720000Y-102520000D02*
X138720000Y-102993292D01*
D15*
%TO.N,e22_dio1*%
X131690000Y-96500000D02*
X134250000Y-99060000D01*
X134250000Y-99060000D02*
X139240000Y-99060000D01*
X131690000Y-93500000D02*
X131690000Y-96500000D01*
D16*
%TO.N,e22_dio2*%
X136581702Y-102850000D02*
X137970000Y-102850000D01*
X134230000Y-106500000D02*
X134230000Y-105201702D01*
X134230000Y-105201702D02*
X136581702Y-102850000D01*
D15*
%TO.N,e22_busy*%
X134060001Y-98110001D02*
X139890001Y-98110001D01*
X132200000Y-96250000D02*
X134060001Y-98110001D01*
X139890001Y-98110001D02*
X140290000Y-98510000D01*
X132200000Y-95420000D02*
X132200000Y-96250000D01*
X132960000Y-94660000D02*
X132200000Y-95420000D01*
X132960000Y-93500000D02*
X132960000Y-94660000D01*
%TO.N,e22_nrst*%
X138445002Y-97610000D02*
X141330000Y-97610000D01*
X134230000Y-93500000D02*
X134230000Y-94290000D01*
X134835001Y-94895001D02*
X134835001Y-96485001D01*
X134230000Y-94290000D02*
X134835001Y-94895001D01*
X135960000Y-97610000D02*
X138445002Y-97610000D01*
X134835001Y-96485001D02*
X135960000Y-97610000D01*
D17*
%TO.N,GND*%
X144880000Y-93500000D02*
X144880000Y-92150000D01*
X147420000Y-93500000D02*
X147420000Y-92150000D01*
X131690000Y-106500000D02*
X131690000Y-107860000D01*
X130420000Y-106500000D02*
X130420000Y-107849996D01*
D16*
X130420000Y-107849996D02*
X130419996Y-107850000D01*
D17*
X130420000Y-93500000D02*
X130420000Y-94749994D01*
X139310000Y-106500000D02*
X139310000Y-108570000D01*
D16*
X139310000Y-108570000D02*
X139309997Y-108570003D01*
D17*
X138040000Y-106500000D02*
X138040000Y-108570000D01*
X147420000Y-105160000D02*
X147410000Y-105150000D01*
X147420000Y-106500000D02*
X147420000Y-105160000D01*
X146150000Y-105160000D02*
X146160000Y-105150000D01*
X146150000Y-106500000D02*
X146150000Y-105160000D01*
X144880000Y-105300000D02*
X145170000Y-105010000D01*
X144880000Y-106500000D02*
X144880000Y-105300000D01*
D16*
X149680000Y-104035000D02*
X149710000Y-104035000D01*
D17*
X149600000Y-104025000D02*
X151090000Y-104025000D01*
X151090000Y-104025000D02*
X152600000Y-104025000D01*
X151590000Y-104525000D02*
X151090000Y-104025000D01*
X151590000Y-105740000D02*
X151590000Y-104525000D01*
D15*
X149600000Y-104025000D02*
X149675000Y-104025000D01*
D17*
X151590000Y-105740000D02*
X152690000Y-105740000D01*
X152690000Y-104110000D02*
X152690000Y-105740000D01*
X152605000Y-104025000D02*
X152690000Y-104110000D01*
D15*
X152600000Y-104025000D02*
X152605000Y-104025000D01*
X151090000Y-104025000D02*
X151625000Y-104025000D01*
D17*
X151430000Y-105740000D02*
X151590000Y-105740000D01*
X149715000Y-104025000D02*
X151430000Y-105740000D01*
X149675000Y-104025000D02*
X149715000Y-104025000D01*
D15*
X152175000Y-100965000D02*
X152175000Y-101000000D01*
X150950000Y-100790000D02*
X151310000Y-100430000D01*
X150950000Y-101225000D02*
X150950000Y-100790000D01*
X151380000Y-100500000D02*
X151310000Y-100430000D01*
X152175000Y-100500000D02*
X151380000Y-100500000D01*
X152100000Y-101000000D02*
X151530000Y-100430000D01*
X151530000Y-100430000D02*
X151310000Y-100430000D01*
X152175000Y-101000000D02*
X152100000Y-101000000D01*
X152175000Y-100000000D02*
X151630000Y-100000000D01*
X151310000Y-100320000D02*
X151310000Y-100430000D01*
X151630000Y-100000000D02*
X151310000Y-100320000D01*
X152175000Y-99500000D02*
X151500000Y-99500000D01*
X151500000Y-99500000D02*
X151310000Y-99690000D01*
X152175000Y-99000000D02*
X151583378Y-99000000D01*
X151310000Y-99273378D02*
X151310000Y-100100000D01*
X151583378Y-99000000D02*
X151310000Y-99273378D01*
X151310000Y-100100000D02*
X151310000Y-100430000D01*
X151310000Y-99690000D02*
X151310000Y-100100000D01*
X151450000Y-99133378D02*
X151310000Y-99273378D01*
X151450000Y-98775000D02*
X151450000Y-99133378D01*
D17*
%TO.N,+3V3*%
X132960000Y-106500000D02*
X132960000Y-107859986D01*
X151682500Y-107610000D02*
X151682500Y-108807504D01*
D15*
X151682500Y-108807504D02*
X151680000Y-108810004D01*
D18*
%TO.N,+5V*%
X122950000Y-93650000D02*
X124220000Y-92380000D01*
X122950000Y-106350000D02*
X124220000Y-105080000D01*
X128020000Y-105080000D02*
X129370000Y-106430000D01*
X124220000Y-105080000D02*
X128020000Y-105080000D01*
X129150000Y-92380000D02*
X129400000Y-92630000D01*
X124220000Y-92380000D02*
X129150000Y-92380000D01*
D16*
%TO.N,i2c_sda*%
X142686496Y-101943504D02*
X142660000Y-101970000D01*
D15*
X147247613Y-101943504D02*
X142686496Y-101943504D01*
X142660000Y-105270000D02*
X142660000Y-101970000D01*
X142870000Y-105480000D02*
X142660000Y-105270000D01*
X142870000Y-105480000D02*
X142870000Y-108170230D01*
X142870000Y-108170230D02*
X141885190Y-109155040D01*
%TO.N,i2c_scl*%
X147240000Y-102829990D02*
X143470010Y-102829990D01*
D16*
X143470010Y-102829990D02*
X143440000Y-102860000D01*
D15*
X143850000Y-103270000D02*
X143440000Y-102860000D01*
X143850000Y-105470000D02*
X143850000Y-103270000D01*
D16*
X143849999Y-109309997D02*
X143850002Y-109310000D01*
D15*
X143850000Y-105470000D02*
X143849999Y-109309997D01*
D16*
%TO.N,hmi_error*%
X141839996Y-100230000D02*
X142270000Y-100660004D01*
X132620000Y-100230000D02*
X141839996Y-100230000D01*
X129130000Y-103720000D02*
X132620000Y-100230000D01*
%TO.N,hmi_status*%
X129150000Y-96260000D02*
X132710000Y-99820000D01*
X132710000Y-99820000D02*
X143090000Y-99820000D01*
X143090000Y-99820000D02*
X143100000Y-99830000D01*
D15*
%TO.N,swclk*%
X143600000Y-93400000D02*
X142698775Y-94301225D01*
X142698775Y-94301225D02*
X142698775Y-98688775D01*
X142698775Y-98688775D02*
X142740000Y-98730000D01*
D16*
%TO.N,boot0*%
X137150000Y-101010000D02*
X138730000Y-101010000D01*
X136560000Y-101600000D02*
X137150000Y-101010000D01*
X136560000Y-102276002D02*
X136560000Y-101600000D01*
X133675991Y-105160011D02*
X136560000Y-102276002D01*
X133570477Y-105160011D02*
X133675991Y-105160011D01*
%TO.N,spi1_sck*%
X147997185Y-100500000D02*
X147347440Y-101149745D01*
X149725000Y-100500000D02*
X147997185Y-100500000D01*
%TO.N,spi1_mosi*%
X146904827Y-100549744D02*
X146380734Y-101073837D01*
X147228258Y-100549744D02*
X146904827Y-100549744D01*
X147778002Y-100000000D02*
X147228258Y-100549744D01*
X149725000Y-100000000D02*
X147778002Y-100000000D01*
%TO.N,spi1_miso*%
X147390000Y-99500000D02*
X147180000Y-99710000D01*
X149725000Y-99500000D02*
X147390000Y-99500000D01*
D15*
%TO.N,spi2_sck*%
X140600000Y-93965685D02*
X140600000Y-93199970D01*
X138240000Y-94700000D02*
X139865685Y-94700000D01*
X138040000Y-94500000D02*
X138240000Y-94700000D01*
X139865685Y-94700000D02*
X140600000Y-93965685D01*
X138040000Y-93500000D02*
X138040000Y-94500000D01*
%TO.N,spi2_miso*%
X142240000Y-98060000D02*
X141650000Y-98650000D01*
X142240000Y-96888778D02*
X142240000Y-98060000D01*
X141111222Y-95760000D02*
X142240000Y-96888778D01*
X136730000Y-95760000D02*
X141111222Y-95760000D01*
X135500000Y-94530000D02*
X136730000Y-95760000D01*
X135500000Y-93500000D02*
X135500000Y-94530000D01*
%TO.N,spi2_mosi*%
X140310000Y-95290000D02*
X141200000Y-94400000D01*
X137520000Y-95290000D02*
X140310000Y-95290000D01*
X136770000Y-94540000D02*
X137520000Y-95290000D01*
X136770000Y-93500000D02*
X136770000Y-94540000D01*
D16*
%TO.N,icm_int*%
X150450000Y-98260010D02*
X150200000Y-98010010D01*
X150450000Y-98775000D02*
X150450000Y-98260010D01*
%TO.N,icm_nss*%
X148930000Y-99000000D02*
X148720000Y-98790000D01*
X149725000Y-99000000D02*
X148930000Y-99000000D01*
%TO.N,Net-(C13-Pad1)*%
X152596976Y-102495000D02*
X152700000Y-102495000D01*
D15*
X151450000Y-101325000D02*
X152600000Y-102475000D01*
X151450000Y-101225000D02*
X151450000Y-101325000D01*
%TO.N,Net-(C14-Pad1)*%
X149557500Y-105872500D02*
X149690000Y-105740000D01*
D17*
X149557500Y-107610000D02*
X149557500Y-105872500D01*
D15*
X150450000Y-101835000D02*
X151090000Y-102475000D01*
X150450000Y-101225000D02*
X150450000Y-101835000D01*
X149725000Y-102350000D02*
X149600000Y-102475000D01*
X149725000Y-101000000D02*
X149725000Y-102350000D01*
X148670000Y-105740000D02*
X149690000Y-105740000D01*
X148270000Y-105340000D02*
X148670000Y-105740000D01*
X148270000Y-103140000D02*
X148270000Y-105340000D01*
X148935000Y-102475000D02*
X148270000Y-103140000D01*
X149600000Y-102475000D02*
X148935000Y-102475000D01*
D16*
X149122166Y-103250000D02*
X148750000Y-103622166D01*
X150380000Y-103250000D02*
X149122166Y-103250000D01*
X151090000Y-102540000D02*
X150380000Y-103250000D01*
X151090000Y-102475000D02*
X151090000Y-102540000D01*
D15*
X148750000Y-104995000D02*
X149495000Y-105740000D01*
X149495000Y-105740000D02*
X149690000Y-105740000D01*
X148750000Y-103622166D02*
X148750000Y-104995000D01*
X147920000Y-108090000D02*
X146370000Y-108090000D01*
X148760000Y-107250000D02*
X147920000Y-108090000D01*
X148760000Y-106475000D02*
X148760000Y-107250000D01*
X149495000Y-105740000D02*
X148760000Y-106475000D01*
%TD*%
M02*
