%TF.GenerationSoftware,KiCad,Pcbnew,5.1.8-db9833491~87~ubuntu20.04.1*%
%TF.CreationDate,2020-11-23T17:04:18+01:00*%
%TF.ProjectId,rosalyn-rx,726f7361-6c79-46e2-9d72-782e6b696361,v1.0*%
%TF.SameCoordinates,Original*%
%TF.FileFunction,Legend,Bot*%
%TF.FilePolarity,Positive*%
%FSLAX46Y46*%
G04 Gerber Fmt 4.6, Leading zero omitted, Abs format (unit mm)*
G04 Created by KiCad (PCBNEW 5.1.8-db9833491~87~ubuntu20.04.1) date 2020-11-23 17:04:18*
%MOMM*%
%LPD*%
G01*
G04 APERTURE LIST*
%ADD10C,0.300000*%
%ADD11C,0.150000*%
%ADD12C,0.120000*%
%ADD13C,0.100000*%
%ADD14C,0.125000*%
G04 APERTURE END LIST*
D10*
X145623333Y-108525000D02*
X145290000Y-109691666D01*
X144956666Y-108858333D01*
X144623333Y-109691666D01*
X144290000Y-108525000D01*
X143790000Y-108525000D02*
X143456666Y-109691666D01*
X143123333Y-108858333D01*
X142790000Y-109691666D01*
X142456666Y-108525000D01*
X141956666Y-108525000D02*
X141623333Y-109691666D01*
X141290000Y-108858333D01*
X140956666Y-109691666D01*
X140623333Y-108525000D01*
X139956666Y-109525000D02*
X139873333Y-109608333D01*
X139956666Y-109691666D01*
X140040000Y-109608333D01*
X139956666Y-109525000D01*
X139956666Y-109691666D01*
X139206666Y-108108333D02*
X139123333Y-108025000D01*
X138956666Y-107941666D01*
X138540000Y-107941666D01*
X138373333Y-108025000D01*
X138290000Y-108108333D01*
X138206666Y-108275000D01*
X138206666Y-108441666D01*
X138290000Y-108691666D01*
X139290000Y-109691666D01*
X138206666Y-109691666D01*
X137456666Y-109025000D02*
X136123333Y-109025000D01*
X134956666Y-107941666D02*
X134790000Y-107941666D01*
X134623333Y-108025000D01*
X134540000Y-108108333D01*
X134456666Y-108275000D01*
X134373333Y-108608333D01*
X134373333Y-109025000D01*
X134456666Y-109358333D01*
X134540000Y-109525000D01*
X134623333Y-109608333D01*
X134790000Y-109691666D01*
X134956666Y-109691666D01*
X135123333Y-109608333D01*
X135206666Y-109525000D01*
X135290000Y-109358333D01*
X135373333Y-109025000D01*
X135373333Y-108608333D01*
X135290000Y-108275000D01*
X135206666Y-108108333D01*
X135123333Y-108025000D01*
X134956666Y-107941666D01*
X133623333Y-109525000D02*
X133540000Y-109608333D01*
X133623333Y-109691666D01*
X133706666Y-109608333D01*
X133623333Y-109525000D01*
X133623333Y-109691666D01*
X132040000Y-109691666D02*
X132040000Y-107941666D01*
X132040000Y-109608333D02*
X132206666Y-109691666D01*
X132540000Y-109691666D01*
X132706666Y-109608333D01*
X132790000Y-109525000D01*
X132873333Y-109358333D01*
X132873333Y-108858333D01*
X132790000Y-108691666D01*
X132706666Y-108608333D01*
X132540000Y-108525000D01*
X132206666Y-108525000D01*
X132040000Y-108608333D01*
X131206666Y-109691666D02*
X131206666Y-107941666D01*
X131040000Y-109025000D02*
X130540000Y-109691666D01*
X130540000Y-108525000D02*
X131206666Y-109191666D01*
X147061666Y-92011666D02*
X147645000Y-91178333D01*
X148061666Y-92011666D02*
X148061666Y-90261666D01*
X147395000Y-90261666D01*
X147228333Y-90345000D01*
X147145000Y-90428333D01*
X147061666Y-90595000D01*
X147061666Y-90845000D01*
X147145000Y-91011666D01*
X147228333Y-91095000D01*
X147395000Y-91178333D01*
X148061666Y-91178333D01*
X146061666Y-92011666D02*
X146228333Y-91928333D01*
X146311666Y-91845000D01*
X146395000Y-91678333D01*
X146395000Y-91178333D01*
X146311666Y-91011666D01*
X146228333Y-90928333D01*
X146061666Y-90845000D01*
X145811666Y-90845000D01*
X145645000Y-90928333D01*
X145561666Y-91011666D01*
X145478333Y-91178333D01*
X145478333Y-91678333D01*
X145561666Y-91845000D01*
X145645000Y-91928333D01*
X145811666Y-92011666D01*
X146061666Y-92011666D01*
X144811666Y-91928333D02*
X144645000Y-92011666D01*
X144311666Y-92011666D01*
X144145000Y-91928333D01*
X144061666Y-91761666D01*
X144061666Y-91678333D01*
X144145000Y-91511666D01*
X144311666Y-91428333D01*
X144561666Y-91428333D01*
X144728333Y-91345000D01*
X144811666Y-91178333D01*
X144811666Y-91095000D01*
X144728333Y-90928333D01*
X144561666Y-90845000D01*
X144311666Y-90845000D01*
X144145000Y-90928333D01*
X142561666Y-92011666D02*
X142561666Y-91095000D01*
X142645000Y-90928333D01*
X142811666Y-90845000D01*
X143145000Y-90845000D01*
X143311666Y-90928333D01*
X142561666Y-91928333D02*
X142728333Y-92011666D01*
X143145000Y-92011666D01*
X143311666Y-91928333D01*
X143395000Y-91761666D01*
X143395000Y-91595000D01*
X143311666Y-91428333D01*
X143145000Y-91345000D01*
X142728333Y-91345000D01*
X142561666Y-91261666D01*
X141478333Y-92011666D02*
X141645000Y-91928333D01*
X141728333Y-91761666D01*
X141728333Y-90261666D01*
X140978333Y-90845000D02*
X140561666Y-92011666D01*
X140145000Y-90845000D02*
X140561666Y-92011666D01*
X140728333Y-92428333D01*
X140811666Y-92511666D01*
X140978333Y-92595000D01*
X139478333Y-90845000D02*
X139478333Y-92011666D01*
X139478333Y-91011666D02*
X139395000Y-90928333D01*
X139228333Y-90845000D01*
X138978333Y-90845000D01*
X138811666Y-90928333D01*
X138728333Y-91095000D01*
X138728333Y-92011666D01*
X136895000Y-92011666D02*
X137478333Y-91178333D01*
X137895000Y-92011666D02*
X137895000Y-90261666D01*
X137228333Y-90261666D01*
X137061666Y-90345000D01*
X136978333Y-90428333D01*
X136895000Y-90595000D01*
X136895000Y-90845000D01*
X136978333Y-91011666D01*
X137061666Y-91095000D01*
X137228333Y-91178333D01*
X137895000Y-91178333D01*
X136311666Y-90261666D02*
X135145000Y-92011666D01*
X135145000Y-90261666D02*
X136311666Y-92011666D01*
X133311666Y-90845000D02*
X132895000Y-92011666D01*
X132478333Y-90845000D01*
X130895000Y-92011666D02*
X131895000Y-92011666D01*
X131395000Y-92011666D02*
X131395000Y-90261666D01*
X131561666Y-90511666D01*
X131728333Y-90678333D01*
X131895000Y-90761666D01*
X130145000Y-91845000D02*
X130061666Y-91928333D01*
X130145000Y-92011666D01*
X130228333Y-91928333D01*
X130145000Y-91845000D01*
X130145000Y-92011666D01*
X128978333Y-90261666D02*
X128811666Y-90261666D01*
X128645000Y-90345000D01*
X128561666Y-90428333D01*
X128478333Y-90595000D01*
X128395000Y-90928333D01*
X128395000Y-91345000D01*
X128478333Y-91678333D01*
X128561666Y-91845000D01*
X128645000Y-91928333D01*
X128811666Y-92011666D01*
X128978333Y-92011666D01*
X129145000Y-91928333D01*
X129228333Y-91845000D01*
X129311666Y-91678333D01*
X129395000Y-91345000D01*
X129395000Y-90928333D01*
X129311666Y-90595000D01*
X129228333Y-90428333D01*
X129145000Y-90345000D01*
X128978333Y-90261666D01*
D11*
X139349047Y-99532380D02*
X139349047Y-100246666D01*
X139396666Y-100389523D01*
X139491904Y-100484761D01*
X139634761Y-100532380D01*
X139730000Y-100532380D01*
X138396666Y-100532380D02*
X138872857Y-100532380D01*
X138872857Y-99532380D01*
X137491904Y-100437142D02*
X137539523Y-100484761D01*
X137682380Y-100532380D01*
X137777619Y-100532380D01*
X137920476Y-100484761D01*
X138015714Y-100389523D01*
X138063333Y-100294285D01*
X138110952Y-100103809D01*
X138110952Y-99960952D01*
X138063333Y-99770476D01*
X138015714Y-99675238D01*
X137920476Y-99580000D01*
X137777619Y-99532380D01*
X137682380Y-99532380D01*
X137539523Y-99580000D01*
X137491904Y-99627619D01*
X136777619Y-99532380D02*
X136777619Y-100246666D01*
X136825238Y-100389523D01*
X136920476Y-100484761D01*
X137063333Y-100532380D01*
X137158571Y-100532380D01*
X135825238Y-100532380D02*
X136301428Y-100532380D01*
X136301428Y-99532380D01*
X134920476Y-100437142D02*
X134968095Y-100484761D01*
X135110952Y-100532380D01*
X135206190Y-100532380D01*
X135349047Y-100484761D01*
X135444285Y-100389523D01*
X135491904Y-100294285D01*
X135539523Y-100103809D01*
X135539523Y-99960952D01*
X135491904Y-99770476D01*
X135444285Y-99675238D01*
X135349047Y-99580000D01*
X135206190Y-99532380D01*
X135110952Y-99532380D01*
X134968095Y-99580000D01*
X134920476Y-99627619D01*
X134206190Y-99532380D02*
X134206190Y-100246666D01*
X134253809Y-100389523D01*
X134349047Y-100484761D01*
X134491904Y-100532380D01*
X134587142Y-100532380D01*
X133253809Y-100532380D02*
X133730000Y-100532380D01*
X133730000Y-99532380D01*
X132349047Y-100437142D02*
X132396666Y-100484761D01*
X132539523Y-100532380D01*
X132634761Y-100532380D01*
X132777619Y-100484761D01*
X132872857Y-100389523D01*
X132920476Y-100294285D01*
X132968095Y-100103809D01*
X132968095Y-99960952D01*
X132920476Y-99770476D01*
X132872857Y-99675238D01*
X132777619Y-99580000D01*
X132634761Y-99532380D01*
X132539523Y-99532380D01*
X132396666Y-99580000D01*
X132349047Y-99627619D01*
X131634761Y-99532380D02*
X131634761Y-100246666D01*
X131682380Y-100389523D01*
X131777619Y-100484761D01*
X131920476Y-100532380D01*
X132015714Y-100532380D01*
X130682380Y-100532380D02*
X131158571Y-100532380D01*
X131158571Y-99532380D01*
X129777619Y-100437142D02*
X129825238Y-100484761D01*
X129968095Y-100532380D01*
X130063333Y-100532380D01*
X130206190Y-100484761D01*
X130301428Y-100389523D01*
X130349047Y-100294285D01*
X130396666Y-100103809D01*
X130396666Y-99960952D01*
X130349047Y-99770476D01*
X130301428Y-99675238D01*
X130206190Y-99580000D01*
X130063333Y-99532380D01*
X129968095Y-99532380D01*
X129825238Y-99580000D01*
X129777619Y-99627619D01*
D12*
%TO.C,C14*%
X150378748Y-106475000D02*
X150901252Y-106475000D01*
X150378748Y-105005000D02*
X150901252Y-105005000D01*
%TO.C,C15*%
X150580000Y-103109420D02*
X150580000Y-103390580D01*
X151600000Y-103109420D02*
X151600000Y-103390580D01*
%TO.C,C6*%
X149090000Y-103109420D02*
X149090000Y-103390580D01*
X150110000Y-103109420D02*
X150110000Y-103390580D01*
%TO.C,FB2*%
X150220378Y-108170000D02*
X151019622Y-108170000D01*
X150220378Y-107050000D02*
X151019622Y-107050000D01*
D11*
%TO.C,U2*%
X147584214Y-96550000D02*
G75*
G03*
X147584214Y-96550000I-1414214J0D01*
G01*
X143470000Y-95000000D02*
X129420000Y-95000000D01*
X143470000Y-99000000D02*
X143470000Y-95000000D01*
X148170000Y-99000000D02*
X143470000Y-99000000D01*
X148170000Y-105000000D02*
X148170000Y-99000000D01*
X129420000Y-105000000D02*
X148170000Y-105000000D01*
X129420000Y-95000000D02*
X129420000Y-105000000D01*
X128020000Y-92650000D02*
X128020000Y-107350000D01*
X148720000Y-92650000D02*
X128020000Y-92650000D01*
X148720000Y-107350000D02*
X148720000Y-92650000D01*
X128020000Y-107350000D02*
X148720000Y-107350000D01*
D12*
%TO.C,U6*%
X151885000Y-101610000D02*
X152560000Y-101610000D01*
X152560000Y-101610000D02*
X152560000Y-101435000D01*
X150015000Y-98390000D02*
X149340000Y-98390000D01*
X149340000Y-98390000D02*
X149340000Y-98565000D01*
X151885000Y-98390000D02*
X152560000Y-98390000D01*
X152560000Y-98390000D02*
X152560000Y-98565000D01*
X150015000Y-101610000D02*
X149340000Y-101610000D01*
%TO.C,C13*%
X152090000Y-103109420D02*
X152090000Y-103390580D01*
X153110000Y-103109420D02*
X153110000Y-103390580D01*
%TO.C,C14*%
D13*
X153568571Y-105418571D02*
X153592380Y-105394761D01*
X153616190Y-105323333D01*
X153616190Y-105275714D01*
X153592380Y-105204285D01*
X153544761Y-105156666D01*
X153497142Y-105132857D01*
X153401904Y-105109047D01*
X153330476Y-105109047D01*
X153235238Y-105132857D01*
X153187619Y-105156666D01*
X153140000Y-105204285D01*
X153116190Y-105275714D01*
X153116190Y-105323333D01*
X153140000Y-105394761D01*
X153163809Y-105418571D01*
X153616190Y-105894761D02*
X153616190Y-105609047D01*
X153616190Y-105751904D02*
X153116190Y-105751904D01*
X153187619Y-105704285D01*
X153235238Y-105656666D01*
X153259047Y-105609047D01*
X153282857Y-106323333D02*
X153616190Y-106323333D01*
X153092380Y-106204285D02*
X153449523Y-106085238D01*
X153449523Y-106394761D01*
%TO.C,C15*%
X151298571Y-96618571D02*
X151322380Y-96594761D01*
X151346190Y-96523333D01*
X151346190Y-96475714D01*
X151322380Y-96404285D01*
X151274761Y-96356666D01*
X151227142Y-96332857D01*
X151131904Y-96309047D01*
X151060476Y-96309047D01*
X150965238Y-96332857D01*
X150917619Y-96356666D01*
X150870000Y-96404285D01*
X150846190Y-96475714D01*
X150846190Y-96523333D01*
X150870000Y-96594761D01*
X150893809Y-96618571D01*
X151346190Y-97094761D02*
X151346190Y-96809047D01*
X151346190Y-96951904D02*
X150846190Y-96951904D01*
X150917619Y-96904285D01*
X150965238Y-96856666D01*
X150989047Y-96809047D01*
X150846190Y-97547142D02*
X150846190Y-97309047D01*
X151084285Y-97285238D01*
X151060476Y-97309047D01*
X151036666Y-97356666D01*
X151036666Y-97475714D01*
X151060476Y-97523333D01*
X151084285Y-97547142D01*
X151131904Y-97570952D01*
X151250952Y-97570952D01*
X151298571Y-97547142D01*
X151322380Y-97523333D01*
X151346190Y-97475714D01*
X151346190Y-97356666D01*
X151322380Y-97309047D01*
X151298571Y-97285238D01*
%TO.C,C6*%
X149788571Y-96836666D02*
X149812380Y-96812857D01*
X149836190Y-96741428D01*
X149836190Y-96693809D01*
X149812380Y-96622380D01*
X149764761Y-96574761D01*
X149717142Y-96550952D01*
X149621904Y-96527142D01*
X149550476Y-96527142D01*
X149455238Y-96550952D01*
X149407619Y-96574761D01*
X149360000Y-96622380D01*
X149336190Y-96693809D01*
X149336190Y-96741428D01*
X149360000Y-96812857D01*
X149383809Y-96836666D01*
X149336190Y-97265238D02*
X149336190Y-97170000D01*
X149360000Y-97122380D01*
X149383809Y-97098571D01*
X149455238Y-97050952D01*
X149550476Y-97027142D01*
X149740952Y-97027142D01*
X149788571Y-97050952D01*
X149812380Y-97074761D01*
X149836190Y-97122380D01*
X149836190Y-97217619D01*
X149812380Y-97265238D01*
X149788571Y-97289047D01*
X149740952Y-97312857D01*
X149621904Y-97312857D01*
X149574285Y-97289047D01*
X149550476Y-97265238D01*
X149526666Y-97217619D01*
X149526666Y-97122380D01*
X149550476Y-97074761D01*
X149574285Y-97050952D01*
X149621904Y-97027142D01*
%TO.C,FB2*%
X153374285Y-107193333D02*
X153374285Y-107026666D01*
X153636190Y-107026666D02*
X153136190Y-107026666D01*
X153136190Y-107264761D01*
X153374285Y-107621904D02*
X153398095Y-107693333D01*
X153421904Y-107717142D01*
X153469523Y-107740952D01*
X153540952Y-107740952D01*
X153588571Y-107717142D01*
X153612380Y-107693333D01*
X153636190Y-107645714D01*
X153636190Y-107455238D01*
X153136190Y-107455238D01*
X153136190Y-107621904D01*
X153160000Y-107669523D01*
X153183809Y-107693333D01*
X153231428Y-107717142D01*
X153279047Y-107717142D01*
X153326666Y-107693333D01*
X153350476Y-107669523D01*
X153374285Y-107621904D01*
X153374285Y-107455238D01*
X153183809Y-107931428D02*
X153160000Y-107955238D01*
X153136190Y-108002857D01*
X153136190Y-108121904D01*
X153160000Y-108169523D01*
X153183809Y-108193333D01*
X153231428Y-108217142D01*
X153279047Y-108217142D01*
X153350476Y-108193333D01*
X153636190Y-107907619D01*
X153636190Y-108217142D01*
%TO.C,U2*%
X127590952Y-99736190D02*
X127590952Y-100140952D01*
X127567142Y-100188571D01*
X127543333Y-100212380D01*
X127495714Y-100236190D01*
X127400476Y-100236190D01*
X127352857Y-100212380D01*
X127329047Y-100188571D01*
X127305238Y-100140952D01*
X127305238Y-99736190D01*
X127090952Y-99783809D02*
X127067142Y-99760000D01*
X127019523Y-99736190D01*
X126900476Y-99736190D01*
X126852857Y-99760000D01*
X126829047Y-99783809D01*
X126805238Y-99831428D01*
X126805238Y-99879047D01*
X126829047Y-99950476D01*
X127114761Y-100236190D01*
X126805238Y-100236190D01*
%TO.C,U6*%
D14*
X152776190Y-99629047D02*
X153180952Y-99629047D01*
X153228571Y-99652857D01*
X153252380Y-99676666D01*
X153276190Y-99724285D01*
X153276190Y-99819523D01*
X153252380Y-99867142D01*
X153228571Y-99890952D01*
X153180952Y-99914761D01*
X152776190Y-99914761D01*
X152776190Y-100367142D02*
X152776190Y-100271904D01*
X152800000Y-100224285D01*
X152823809Y-100200476D01*
X152895238Y-100152857D01*
X152990476Y-100129047D01*
X153180952Y-100129047D01*
X153228571Y-100152857D01*
X153252380Y-100176666D01*
X153276190Y-100224285D01*
X153276190Y-100319523D01*
X153252380Y-100367142D01*
X153228571Y-100390952D01*
X153180952Y-100414761D01*
X153061904Y-100414761D01*
X153014285Y-100390952D01*
X152990476Y-100367142D01*
X152966666Y-100319523D01*
X152966666Y-100224285D01*
X152990476Y-100176666D01*
X153014285Y-100152857D01*
X153061904Y-100129047D01*
%TO.C,C13*%
D13*
X152748571Y-96638571D02*
X152772380Y-96614761D01*
X152796190Y-96543333D01*
X152796190Y-96495714D01*
X152772380Y-96424285D01*
X152724761Y-96376666D01*
X152677142Y-96352857D01*
X152581904Y-96329047D01*
X152510476Y-96329047D01*
X152415238Y-96352857D01*
X152367619Y-96376666D01*
X152320000Y-96424285D01*
X152296190Y-96495714D01*
X152296190Y-96543333D01*
X152320000Y-96614761D01*
X152343809Y-96638571D01*
X152796190Y-97114761D02*
X152796190Y-96829047D01*
X152796190Y-96971904D02*
X152296190Y-96971904D01*
X152367619Y-96924285D01*
X152415238Y-96876666D01*
X152439047Y-96829047D01*
X152296190Y-97281428D02*
X152296190Y-97590952D01*
X152486666Y-97424285D01*
X152486666Y-97495714D01*
X152510476Y-97543333D01*
X152534285Y-97567142D01*
X152581904Y-97590952D01*
X152700952Y-97590952D01*
X152748571Y-97567142D01*
X152772380Y-97543333D01*
X152796190Y-97495714D01*
X152796190Y-97352857D01*
X152772380Y-97305238D01*
X152748571Y-97281428D01*
%TD*%
M02*
