%TF.GenerationSoftware,KiCad,Pcbnew,5.1.8-db9833491~87~ubuntu20.04.1*%
%TF.CreationDate,2020-11-23T17:04:18+01:00*%
%TF.ProjectId,rosalyn-rx,726f7361-6c79-46e2-9d72-782e6b696361,v1.0*%
%TF.SameCoordinates,Original*%
%TF.FileFunction,Legend,Top*%
%TF.FilePolarity,Positive*%
%FSLAX46Y46*%
G04 Gerber Fmt 4.6, Leading zero omitted, Abs format (unit mm)*
G04 Created by KiCad (PCBNEW 5.1.8-db9833491~87~ubuntu20.04.1) date 2020-11-23 17:04:18*
%MOMM*%
%LPD*%
G01*
G04 APERTURE LIST*
%ADD10C,0.100000*%
%ADD11C,0.120000*%
%ADD12C,0.125000*%
%ADD13C,0.062500*%
G04 APERTURE END LIST*
D10*
X145895238Y-90000000D02*
X145857142Y-89980952D01*
X145800000Y-89980952D01*
X145742857Y-90000000D01*
X145704761Y-90038095D01*
X145685714Y-90076190D01*
X145666666Y-90152380D01*
X145666666Y-90209523D01*
X145685714Y-90285714D01*
X145704761Y-90323809D01*
X145742857Y-90361904D01*
X145800000Y-90380952D01*
X145838095Y-90380952D01*
X145895238Y-90361904D01*
X145914285Y-90342857D01*
X145914285Y-90209523D01*
X145838095Y-90209523D01*
X146085714Y-90380952D02*
X146085714Y-89980952D01*
X146314285Y-90380952D01*
X146314285Y-89980952D01*
X146504761Y-90380952D02*
X146504761Y-89980952D01*
X146600000Y-89980952D01*
X146657142Y-90000000D01*
X146695238Y-90038095D01*
X146714285Y-90076190D01*
X146733333Y-90152380D01*
X146733333Y-90209523D01*
X146714285Y-90285714D01*
X146695238Y-90323809D01*
X146657142Y-90361904D01*
X146600000Y-90380952D01*
X146504761Y-90380952D01*
X144504761Y-90038095D02*
X144447619Y-90019047D01*
X144352380Y-90019047D01*
X144314285Y-90038095D01*
X144295238Y-90057142D01*
X144276190Y-90095238D01*
X144276190Y-90133333D01*
X144295238Y-90171428D01*
X144314285Y-90190476D01*
X144352380Y-90209523D01*
X144428571Y-90228571D01*
X144466666Y-90247619D01*
X144485714Y-90266666D01*
X144504761Y-90304761D01*
X144504761Y-90342857D01*
X144485714Y-90380952D01*
X144466666Y-90400000D01*
X144428571Y-90419047D01*
X144333333Y-90419047D01*
X144276190Y-90400000D01*
X144142857Y-90419047D02*
X144047619Y-90019047D01*
X143971428Y-90304761D01*
X143895238Y-90019047D01*
X143800000Y-90419047D01*
X143419047Y-90057142D02*
X143438095Y-90038095D01*
X143495238Y-90019047D01*
X143533333Y-90019047D01*
X143590476Y-90038095D01*
X143628571Y-90076190D01*
X143647619Y-90114285D01*
X143666666Y-90190476D01*
X143666666Y-90247619D01*
X143647619Y-90323809D01*
X143628571Y-90361904D01*
X143590476Y-90400000D01*
X143533333Y-90419047D01*
X143495238Y-90419047D01*
X143438095Y-90400000D01*
X143419047Y-90380952D01*
X143057142Y-90019047D02*
X143247619Y-90019047D01*
X143247619Y-90419047D01*
X142923809Y-90019047D02*
X142923809Y-90419047D01*
X142695238Y-90019047D02*
X142866666Y-90247619D01*
X142695238Y-90419047D02*
X142923809Y-90190476D01*
X141847619Y-90038095D02*
X141790476Y-90019047D01*
X141695238Y-90019047D01*
X141657142Y-90038095D01*
X141638095Y-90057142D01*
X141619047Y-90095238D01*
X141619047Y-90133333D01*
X141638095Y-90171428D01*
X141657142Y-90190476D01*
X141695238Y-90209523D01*
X141771428Y-90228571D01*
X141809523Y-90247619D01*
X141828571Y-90266666D01*
X141847619Y-90304761D01*
X141847619Y-90342857D01*
X141828571Y-90380952D01*
X141809523Y-90400000D01*
X141771428Y-90419047D01*
X141676190Y-90419047D01*
X141619047Y-90400000D01*
X141485714Y-90419047D02*
X141390476Y-90019047D01*
X141314285Y-90304761D01*
X141238095Y-90019047D01*
X141142857Y-90419047D01*
X140990476Y-90019047D02*
X140990476Y-90419047D01*
X140895238Y-90419047D01*
X140838095Y-90400000D01*
X140800000Y-90361904D01*
X140780952Y-90323809D01*
X140761904Y-90247619D01*
X140761904Y-90190476D01*
X140780952Y-90114285D01*
X140800000Y-90076190D01*
X140838095Y-90038095D01*
X140895238Y-90019047D01*
X140990476Y-90019047D01*
X140590476Y-90019047D02*
X140590476Y-90419047D01*
X140323809Y-90419047D02*
X140247619Y-90419047D01*
X140209523Y-90400000D01*
X140171428Y-90361904D01*
X140152380Y-90285714D01*
X140152380Y-90152380D01*
X140171428Y-90076190D01*
X140209523Y-90038095D01*
X140247619Y-90019047D01*
X140323809Y-90019047D01*
X140361904Y-90038095D01*
X140400000Y-90076190D01*
X140419047Y-90152380D01*
X140419047Y-90285714D01*
X140400000Y-90361904D01*
X140361904Y-90400000D01*
X140323809Y-90419047D01*
X148902380Y-109726190D02*
X148926190Y-109654761D01*
X148926190Y-109535714D01*
X148902380Y-109488095D01*
X148878571Y-109464285D01*
X148830952Y-109440476D01*
X148783333Y-109440476D01*
X148735714Y-109464285D01*
X148711904Y-109488095D01*
X148688095Y-109535714D01*
X148664285Y-109630952D01*
X148640476Y-109678571D01*
X148616666Y-109702380D01*
X148569047Y-109726190D01*
X148521428Y-109726190D01*
X148473809Y-109702380D01*
X148450000Y-109678571D01*
X148426190Y-109630952D01*
X148426190Y-109511904D01*
X148450000Y-109440476D01*
X148902380Y-109035714D02*
X148926190Y-109083333D01*
X148926190Y-109178571D01*
X148902380Y-109226190D01*
X148854761Y-109250000D01*
X148664285Y-109250000D01*
X148616666Y-109226190D01*
X148592857Y-109178571D01*
X148592857Y-109083333D01*
X148616666Y-109035714D01*
X148664285Y-109011904D01*
X148711904Y-109011904D01*
X148759523Y-109250000D01*
X148926190Y-108797619D02*
X148592857Y-108797619D01*
X148688095Y-108797619D02*
X148640476Y-108773809D01*
X148616666Y-108750000D01*
X148592857Y-108702380D01*
X148592857Y-108654761D01*
X148926190Y-108488095D02*
X148592857Y-108488095D01*
X148426190Y-108488095D02*
X148450000Y-108511904D01*
X148473809Y-108488095D01*
X148450000Y-108464285D01*
X148426190Y-108488095D01*
X148473809Y-108488095D01*
X148926190Y-108035714D02*
X148664285Y-108035714D01*
X148616666Y-108059523D01*
X148592857Y-108107142D01*
X148592857Y-108202380D01*
X148616666Y-108250000D01*
X148902380Y-108035714D02*
X148926190Y-108083333D01*
X148926190Y-108202380D01*
X148902380Y-108250000D01*
X148854761Y-108273809D01*
X148807142Y-108273809D01*
X148759523Y-108250000D01*
X148735714Y-108202380D01*
X148735714Y-108083333D01*
X148711904Y-108035714D01*
X148926190Y-107726190D02*
X148902380Y-107773809D01*
X148854761Y-107797619D01*
X148426190Y-107797619D01*
X148473809Y-107559523D02*
X148450000Y-107535714D01*
X148426190Y-107488095D01*
X148426190Y-107369047D01*
X148450000Y-107321428D01*
X148473809Y-107297619D01*
X148521428Y-107273809D01*
X148569047Y-107273809D01*
X148640476Y-107297619D01*
X148926190Y-107583333D01*
X148926190Y-107273809D01*
X148902380Y-92926190D02*
X148926190Y-92854761D01*
X148926190Y-92735714D01*
X148902380Y-92688095D01*
X148878571Y-92664285D01*
X148830952Y-92640476D01*
X148783333Y-92640476D01*
X148735714Y-92664285D01*
X148711904Y-92688095D01*
X148688095Y-92735714D01*
X148664285Y-92830952D01*
X148640476Y-92878571D01*
X148616666Y-92902380D01*
X148569047Y-92926190D01*
X148521428Y-92926190D01*
X148473809Y-92902380D01*
X148450000Y-92878571D01*
X148426190Y-92830952D01*
X148426190Y-92711904D01*
X148450000Y-92640476D01*
X148902380Y-92235714D02*
X148926190Y-92283333D01*
X148926190Y-92378571D01*
X148902380Y-92426190D01*
X148854761Y-92450000D01*
X148664285Y-92450000D01*
X148616666Y-92426190D01*
X148592857Y-92378571D01*
X148592857Y-92283333D01*
X148616666Y-92235714D01*
X148664285Y-92211904D01*
X148711904Y-92211904D01*
X148759523Y-92450000D01*
X148926190Y-91997619D02*
X148592857Y-91997619D01*
X148688095Y-91997619D02*
X148640476Y-91973809D01*
X148616666Y-91950000D01*
X148592857Y-91902380D01*
X148592857Y-91854761D01*
X148926190Y-91688095D02*
X148592857Y-91688095D01*
X148426190Y-91688095D02*
X148450000Y-91711904D01*
X148473809Y-91688095D01*
X148450000Y-91664285D01*
X148426190Y-91688095D01*
X148473809Y-91688095D01*
X148926190Y-91235714D02*
X148664285Y-91235714D01*
X148616666Y-91259523D01*
X148592857Y-91307142D01*
X148592857Y-91402380D01*
X148616666Y-91450000D01*
X148902380Y-91235714D02*
X148926190Y-91283333D01*
X148926190Y-91402380D01*
X148902380Y-91450000D01*
X148854761Y-91473809D01*
X148807142Y-91473809D01*
X148759523Y-91450000D01*
X148735714Y-91402380D01*
X148735714Y-91283333D01*
X148711904Y-91235714D01*
X148926190Y-90926190D02*
X148902380Y-90973809D01*
X148854761Y-90997619D01*
X148426190Y-90997619D01*
X148926190Y-90473809D02*
X148926190Y-90759523D01*
X148926190Y-90616666D02*
X148426190Y-90616666D01*
X148497619Y-90664285D01*
X148545238Y-90711904D01*
X148569047Y-90759523D01*
D11*
%TO.C,J3*%
X151715000Y-108040000D02*
X149215000Y-108040000D01*
X149215000Y-108040000D02*
X149215000Y-106990000D01*
X149215000Y-106990000D02*
X148225000Y-106990000D01*
X151715000Y-99820000D02*
X149215000Y-99820000D01*
X149215000Y-99820000D02*
X149215000Y-100870000D01*
X153685000Y-106870000D02*
X153685000Y-100990000D01*
%TO.C,J4*%
X126820000Y-89780000D02*
X119080000Y-89780000D01*
X126820000Y-91110000D02*
X126820000Y-89780000D01*
X126820000Y-92380000D02*
X124160000Y-92380000D01*
X119080000Y-89780000D02*
X119080000Y-110220000D01*
X126820000Y-92380000D02*
X126820000Y-110220000D01*
X126820000Y-110220000D02*
X119080000Y-110220000D01*
%TO.C,J2*%
X153685000Y-97010000D02*
X153685000Y-93130000D01*
X149215000Y-91960000D02*
X149215000Y-93010000D01*
X151715000Y-91960000D02*
X149215000Y-91960000D01*
X149215000Y-97130000D02*
X148225000Y-97130000D01*
X149215000Y-98180000D02*
X149215000Y-97130000D01*
X151715000Y-98180000D02*
X149215000Y-98180000D01*
%TO.C,R12*%
X128602500Y-94722742D02*
X128602500Y-95197258D01*
X127557500Y-94722742D02*
X127557500Y-95197258D01*
%TO.C,R11*%
X127557500Y-105277258D02*
X127557500Y-104802742D01*
X128602500Y-105277258D02*
X128602500Y-104802742D01*
%TO.C,D2*%
X127345000Y-91140000D02*
X127345000Y-93425000D01*
X127345000Y-93425000D02*
X128815000Y-93425000D01*
X128815000Y-93425000D02*
X128815000Y-91140000D01*
%TO.C,D1*%
X128815000Y-108850000D02*
X128815000Y-106565000D01*
X128815000Y-106565000D02*
X127345000Y-106565000D01*
X127345000Y-106565000D02*
X127345000Y-108850000D01*
%TO.C,C7*%
X145700000Y-106980580D02*
X145700000Y-106699420D01*
X144680000Y-106980580D02*
X144680000Y-106699420D01*
%TO.C,C5*%
X140040000Y-106699420D02*
X140040000Y-106980580D01*
X141060000Y-106699420D02*
X141060000Y-106980580D01*
%TO.C,U3*%
X133530000Y-91070000D02*
X133530000Y-92000000D01*
X133530000Y-94230000D02*
X133530000Y-93300000D01*
X133530000Y-94230000D02*
X135690000Y-94230000D01*
X133530000Y-91070000D02*
X134990000Y-91070000D01*
%TO.C,C4*%
X136275000Y-92911252D02*
X136275000Y-92388748D01*
X137745000Y-92911252D02*
X137745000Y-92388748D01*
%TO.C,C3*%
X132305000Y-92378748D02*
X132305000Y-92901252D01*
X130835000Y-92378748D02*
X130835000Y-92901252D01*
%TO.C,C1*%
X132460580Y-107290000D02*
X132179420Y-107290000D01*
X132460580Y-106270000D02*
X132179420Y-106270000D01*
%TO.C,C8*%
X135540000Y-106699420D02*
X135540000Y-106980580D01*
X136560000Y-106699420D02*
X136560000Y-106980580D01*
%TO.C,U1*%
X137440000Y-103610000D02*
X137440000Y-104900000D01*
X136990000Y-103610000D02*
X137440000Y-103610000D01*
X136990000Y-103160000D02*
X136990000Y-103610000D01*
X136990000Y-96390000D02*
X137440000Y-96390000D01*
X136990000Y-96840000D02*
X136990000Y-96390000D01*
X144210000Y-103610000D02*
X143760000Y-103610000D01*
X144210000Y-103160000D02*
X144210000Y-103610000D01*
X144210000Y-96390000D02*
X143760000Y-96390000D01*
X144210000Y-96840000D02*
X144210000Y-96390000D01*
%TO.C,U4*%
X131200000Y-103385000D02*
X134800000Y-103385000D01*
X131200000Y-103385000D02*
X129000000Y-103385000D01*
X131200000Y-96615000D02*
X133400000Y-96615000D01*
X131200000Y-96615000D02*
X129000000Y-96615000D01*
D10*
%TO.C,U5*%
X141520000Y-106560000D02*
X141520000Y-105920000D01*
X143740000Y-105920000D02*
X144220000Y-105920000D01*
X144220000Y-106560000D02*
X144220000Y-105920000D01*
X141520000Y-108120000D02*
X141520000Y-107480000D01*
X144220000Y-108120000D02*
X144220000Y-107480000D01*
X143740000Y-108120000D02*
X144220000Y-108120000D01*
X141520000Y-108120000D02*
X142000000Y-108120000D01*
D11*
%TO.C,R1*%
X135082500Y-107077258D02*
X135082500Y-106602742D01*
X134037500Y-107077258D02*
X134037500Y-106602742D01*
%TO.C,C2*%
X131059420Y-103740000D02*
X131340580Y-103740000D01*
X131059420Y-104760000D02*
X131340580Y-104760000D01*
%TO.C,C9*%
X136070580Y-94970000D02*
X135789420Y-94970000D01*
X136070580Y-95990000D02*
X135789420Y-95990000D01*
%TO.C,C10*%
X131340580Y-95230000D02*
X131059420Y-95230000D01*
X131340580Y-96250000D02*
X131059420Y-96250000D01*
%TO.C,C11*%
X144610000Y-95480580D02*
X144610000Y-95199420D01*
X145630000Y-95480580D02*
X145630000Y-95199420D01*
%TO.C,C12*%
X135490580Y-103750000D02*
X135209420Y-103750000D01*
X135490580Y-104770000D02*
X135209420Y-104770000D01*
%TO.C,FB1*%
X130270000Y-93049622D02*
X130270000Y-92250378D01*
X129150000Y-93049622D02*
X129150000Y-92250378D01*
%TO.C,TP1*%
X146900000Y-91500000D02*
G75*
G03*
X146900000Y-91500000I-700000J0D01*
G01*
%TO.C,TP2*%
X144300000Y-91500000D02*
G75*
G03*
X144300000Y-91500000I-700000J0D01*
G01*
%TO.C,TP3*%
X141700000Y-91500000D02*
G75*
G03*
X141700000Y-91500000I-700000J0D01*
G01*
%TO.C,R2*%
X138527500Y-107077258D02*
X138527500Y-106602742D01*
X139572500Y-107077258D02*
X139572500Y-106602742D01*
%TO.C,R3*%
X138072500Y-107077258D02*
X138072500Y-106602742D01*
X137027500Y-107077258D02*
X137027500Y-106602742D01*
%TO.C,J3*%
D12*
X148433333Y-100026190D02*
X148433333Y-100383333D01*
X148409523Y-100454761D01*
X148361904Y-100502380D01*
X148290476Y-100526190D01*
X148242857Y-100526190D01*
X148623809Y-100026190D02*
X148933333Y-100026190D01*
X148766666Y-100216666D01*
X148838095Y-100216666D01*
X148885714Y-100240476D01*
X148909523Y-100264285D01*
X148933333Y-100311904D01*
X148933333Y-100430952D01*
X148909523Y-100478571D01*
X148885714Y-100502380D01*
X148838095Y-100526190D01*
X148695238Y-100526190D01*
X148647619Y-100502380D01*
X148623809Y-100478571D01*
%TO.C,J4*%
X124073333Y-99716190D02*
X124073333Y-100073333D01*
X124049523Y-100144761D01*
X124001904Y-100192380D01*
X123930476Y-100216190D01*
X123882857Y-100216190D01*
X124525714Y-99882857D02*
X124525714Y-100216190D01*
X124406666Y-99692380D02*
X124287619Y-100049523D01*
X124597142Y-100049523D01*
%TO.C,J2*%
X148433333Y-97426190D02*
X148433333Y-97783333D01*
X148409523Y-97854761D01*
X148361904Y-97902380D01*
X148290476Y-97926190D01*
X148242857Y-97926190D01*
X148647619Y-97473809D02*
X148671428Y-97450000D01*
X148719047Y-97426190D01*
X148838095Y-97426190D01*
X148885714Y-97450000D01*
X148909523Y-97473809D01*
X148933333Y-97521428D01*
X148933333Y-97569047D01*
X148909523Y-97640476D01*
X148623809Y-97926190D01*
X148933333Y-97926190D01*
%TO.C,R12*%
X129088571Y-95026190D02*
X128921904Y-94788095D01*
X128802857Y-95026190D02*
X128802857Y-94526190D01*
X128993333Y-94526190D01*
X129040952Y-94550000D01*
X129064761Y-94573809D01*
X129088571Y-94621428D01*
X129088571Y-94692857D01*
X129064761Y-94740476D01*
X129040952Y-94764285D01*
X128993333Y-94788095D01*
X128802857Y-94788095D01*
X129564761Y-95026190D02*
X129279047Y-95026190D01*
X129421904Y-95026190D02*
X129421904Y-94526190D01*
X129374285Y-94597619D01*
X129326666Y-94645238D01*
X129279047Y-94669047D01*
X129755238Y-94573809D02*
X129779047Y-94550000D01*
X129826666Y-94526190D01*
X129945714Y-94526190D01*
X129993333Y-94550000D01*
X130017142Y-94573809D01*
X130040952Y-94621428D01*
X130040952Y-94669047D01*
X130017142Y-94740476D01*
X129731428Y-95026190D01*
X130040952Y-95026190D01*
%TO.C,R11*%
X129118571Y-105426190D02*
X128951904Y-105188095D01*
X128832857Y-105426190D02*
X128832857Y-104926190D01*
X129023333Y-104926190D01*
X129070952Y-104950000D01*
X129094761Y-104973809D01*
X129118571Y-105021428D01*
X129118571Y-105092857D01*
X129094761Y-105140476D01*
X129070952Y-105164285D01*
X129023333Y-105188095D01*
X128832857Y-105188095D01*
X129594761Y-105426190D02*
X129309047Y-105426190D01*
X129451904Y-105426190D02*
X129451904Y-104926190D01*
X129404285Y-104997619D01*
X129356666Y-105045238D01*
X129309047Y-105069047D01*
X130070952Y-105426190D02*
X129785238Y-105426190D01*
X129928095Y-105426190D02*
X129928095Y-104926190D01*
X129880476Y-104997619D01*
X129832857Y-105045238D01*
X129785238Y-105069047D01*
%TO.C,D2*%
X127720952Y-90376190D02*
X127720952Y-89876190D01*
X127840000Y-89876190D01*
X127911428Y-89900000D01*
X127959047Y-89947619D01*
X127982857Y-89995238D01*
X128006666Y-90090476D01*
X128006666Y-90161904D01*
X127982857Y-90257142D01*
X127959047Y-90304761D01*
X127911428Y-90352380D01*
X127840000Y-90376190D01*
X127720952Y-90376190D01*
X128197142Y-89923809D02*
X128220952Y-89900000D01*
X128268571Y-89876190D01*
X128387619Y-89876190D01*
X128435238Y-89900000D01*
X128459047Y-89923809D01*
X128482857Y-89971428D01*
X128482857Y-90019047D01*
X128459047Y-90090476D01*
X128173333Y-90376190D01*
X128482857Y-90376190D01*
%TO.C,D1*%
X127700952Y-110056190D02*
X127700952Y-109556190D01*
X127820000Y-109556190D01*
X127891428Y-109580000D01*
X127939047Y-109627619D01*
X127962857Y-109675238D01*
X127986666Y-109770476D01*
X127986666Y-109841904D01*
X127962857Y-109937142D01*
X127939047Y-109984761D01*
X127891428Y-110032380D01*
X127820000Y-110056190D01*
X127700952Y-110056190D01*
X128462857Y-110056190D02*
X128177142Y-110056190D01*
X128320000Y-110056190D02*
X128320000Y-109556190D01*
X128272380Y-109627619D01*
X128224761Y-109675238D01*
X128177142Y-109699047D01*
%TO.C,C7*%
X145166666Y-109578571D02*
X145142857Y-109602380D01*
X145071428Y-109626190D01*
X145023809Y-109626190D01*
X144952380Y-109602380D01*
X144904761Y-109554761D01*
X144880952Y-109507142D01*
X144857142Y-109411904D01*
X144857142Y-109340476D01*
X144880952Y-109245238D01*
X144904761Y-109197619D01*
X144952380Y-109150000D01*
X145023809Y-109126190D01*
X145071428Y-109126190D01*
X145142857Y-109150000D01*
X145166666Y-109173809D01*
X145333333Y-109126190D02*
X145666666Y-109126190D01*
X145452380Y-109626190D01*
%TO.C,C5*%
D10*
X140456666Y-109578571D02*
X140432857Y-109602380D01*
X140361428Y-109626190D01*
X140313809Y-109626190D01*
X140242380Y-109602380D01*
X140194761Y-109554761D01*
X140170952Y-109507142D01*
X140147142Y-109411904D01*
X140147142Y-109340476D01*
X140170952Y-109245238D01*
X140194761Y-109197619D01*
X140242380Y-109150000D01*
X140313809Y-109126190D01*
X140361428Y-109126190D01*
X140432857Y-109150000D01*
X140456666Y-109173809D01*
X140909047Y-109126190D02*
X140670952Y-109126190D01*
X140647142Y-109364285D01*
X140670952Y-109340476D01*
X140718571Y-109316666D01*
X140837619Y-109316666D01*
X140885238Y-109340476D01*
X140909047Y-109364285D01*
X140932857Y-109411904D01*
X140932857Y-109530952D01*
X140909047Y-109578571D01*
X140885238Y-109602380D01*
X140837619Y-109626190D01*
X140718571Y-109626190D01*
X140670952Y-109602380D01*
X140647142Y-109578571D01*
%TO.C,U3*%
D12*
X133919047Y-90236190D02*
X133919047Y-90640952D01*
X133942857Y-90688571D01*
X133966666Y-90712380D01*
X134014285Y-90736190D01*
X134109523Y-90736190D01*
X134157142Y-90712380D01*
X134180952Y-90688571D01*
X134204761Y-90640952D01*
X134204761Y-90236190D01*
X134395238Y-90236190D02*
X134704761Y-90236190D01*
X134538095Y-90426666D01*
X134609523Y-90426666D01*
X134657142Y-90450476D01*
X134680952Y-90474285D01*
X134704761Y-90521904D01*
X134704761Y-90640952D01*
X134680952Y-90688571D01*
X134657142Y-90712380D01*
X134609523Y-90736190D01*
X134466666Y-90736190D01*
X134419047Y-90712380D01*
X134395238Y-90688571D01*
%TO.C,C4*%
X136916666Y-90678571D02*
X136892857Y-90702380D01*
X136821428Y-90726190D01*
X136773809Y-90726190D01*
X136702380Y-90702380D01*
X136654761Y-90654761D01*
X136630952Y-90607142D01*
X136607142Y-90511904D01*
X136607142Y-90440476D01*
X136630952Y-90345238D01*
X136654761Y-90297619D01*
X136702380Y-90250000D01*
X136773809Y-90226190D01*
X136821428Y-90226190D01*
X136892857Y-90250000D01*
X136916666Y-90273809D01*
X137345238Y-90392857D02*
X137345238Y-90726190D01*
X137226190Y-90202380D02*
X137107142Y-90559523D01*
X137416666Y-90559523D01*
%TO.C,C3*%
X131486666Y-90678571D02*
X131462857Y-90702380D01*
X131391428Y-90726190D01*
X131343809Y-90726190D01*
X131272380Y-90702380D01*
X131224761Y-90654761D01*
X131200952Y-90607142D01*
X131177142Y-90511904D01*
X131177142Y-90440476D01*
X131200952Y-90345238D01*
X131224761Y-90297619D01*
X131272380Y-90250000D01*
X131343809Y-90226190D01*
X131391428Y-90226190D01*
X131462857Y-90250000D01*
X131486666Y-90273809D01*
X131653333Y-90226190D02*
X131962857Y-90226190D01*
X131796190Y-90416666D01*
X131867619Y-90416666D01*
X131915238Y-90440476D01*
X131939047Y-90464285D01*
X131962857Y-90511904D01*
X131962857Y-90630952D01*
X131939047Y-90678571D01*
X131915238Y-90702380D01*
X131867619Y-90726190D01*
X131724761Y-90726190D01*
X131677142Y-90702380D01*
X131653333Y-90678571D01*
%TO.C,C1*%
D10*
X132236666Y-105978571D02*
X132212857Y-106002380D01*
X132141428Y-106026190D01*
X132093809Y-106026190D01*
X132022380Y-106002380D01*
X131974761Y-105954761D01*
X131950952Y-105907142D01*
X131927142Y-105811904D01*
X131927142Y-105740476D01*
X131950952Y-105645238D01*
X131974761Y-105597619D01*
X132022380Y-105550000D01*
X132093809Y-105526190D01*
X132141428Y-105526190D01*
X132212857Y-105550000D01*
X132236666Y-105573809D01*
X132712857Y-106026190D02*
X132427142Y-106026190D01*
X132570000Y-106026190D02*
X132570000Y-105526190D01*
X132522380Y-105597619D01*
X132474761Y-105645238D01*
X132427142Y-105669047D01*
%TO.C,C8*%
X135946666Y-109578571D02*
X135922857Y-109602380D01*
X135851428Y-109626190D01*
X135803809Y-109626190D01*
X135732380Y-109602380D01*
X135684761Y-109554761D01*
X135660952Y-109507142D01*
X135637142Y-109411904D01*
X135637142Y-109340476D01*
X135660952Y-109245238D01*
X135684761Y-109197619D01*
X135732380Y-109150000D01*
X135803809Y-109126190D01*
X135851428Y-109126190D01*
X135922857Y-109150000D01*
X135946666Y-109173809D01*
X136232380Y-109340476D02*
X136184761Y-109316666D01*
X136160952Y-109292857D01*
X136137142Y-109245238D01*
X136137142Y-109221428D01*
X136160952Y-109173809D01*
X136184761Y-109150000D01*
X136232380Y-109126190D01*
X136327619Y-109126190D01*
X136375238Y-109150000D01*
X136399047Y-109173809D01*
X136422857Y-109221428D01*
X136422857Y-109245238D01*
X136399047Y-109292857D01*
X136375238Y-109316666D01*
X136327619Y-109340476D01*
X136232380Y-109340476D01*
X136184761Y-109364285D01*
X136160952Y-109388095D01*
X136137142Y-109435714D01*
X136137142Y-109530952D01*
X136160952Y-109578571D01*
X136184761Y-109602380D01*
X136232380Y-109626190D01*
X136327619Y-109626190D01*
X136375238Y-109602380D01*
X136399047Y-109578571D01*
X136422857Y-109530952D01*
X136422857Y-109435714D01*
X136399047Y-109388095D01*
X136375238Y-109364285D01*
X136327619Y-109340476D01*
%TO.C,U1*%
D12*
X144549047Y-103316190D02*
X144549047Y-103720952D01*
X144572857Y-103768571D01*
X144596666Y-103792380D01*
X144644285Y-103816190D01*
X144739523Y-103816190D01*
X144787142Y-103792380D01*
X144810952Y-103768571D01*
X144834761Y-103720952D01*
X144834761Y-103316190D01*
X145334761Y-103816190D02*
X145049047Y-103816190D01*
X145191904Y-103816190D02*
X145191904Y-103316190D01*
X145144285Y-103387619D01*
X145096666Y-103435238D01*
X145049047Y-103459047D01*
%TO.C,U4*%
X133529047Y-95976190D02*
X133529047Y-96380952D01*
X133552857Y-96428571D01*
X133576666Y-96452380D01*
X133624285Y-96476190D01*
X133719523Y-96476190D01*
X133767142Y-96452380D01*
X133790952Y-96428571D01*
X133814761Y-96380952D01*
X133814761Y-95976190D01*
X134267142Y-96142857D02*
X134267142Y-96476190D01*
X134148095Y-95952380D02*
X134029047Y-96309523D01*
X134338571Y-96309523D01*
%TO.C,U5*%
D10*
X142489047Y-109126190D02*
X142489047Y-109530952D01*
X142512857Y-109578571D01*
X142536666Y-109602380D01*
X142584285Y-109626190D01*
X142679523Y-109626190D01*
X142727142Y-109602380D01*
X142750952Y-109578571D01*
X142774761Y-109530952D01*
X142774761Y-109126190D01*
X143250952Y-109126190D02*
X143012857Y-109126190D01*
X142989047Y-109364285D01*
X143012857Y-109340476D01*
X143060476Y-109316666D01*
X143179523Y-109316666D01*
X143227142Y-109340476D01*
X143250952Y-109364285D01*
X143274761Y-109411904D01*
X143274761Y-109530952D01*
X143250952Y-109578571D01*
X143227142Y-109602380D01*
X143179523Y-109626190D01*
X143060476Y-109626190D01*
X143012857Y-109602380D01*
X142989047Y-109578571D01*
%TO.C,R1*%
D12*
X134476666Y-109626190D02*
X134310000Y-109388095D01*
X134190952Y-109626190D02*
X134190952Y-109126190D01*
X134381428Y-109126190D01*
X134429047Y-109150000D01*
X134452857Y-109173809D01*
X134476666Y-109221428D01*
X134476666Y-109292857D01*
X134452857Y-109340476D01*
X134429047Y-109364285D01*
X134381428Y-109388095D01*
X134190952Y-109388095D01*
X134952857Y-109626190D02*
X134667142Y-109626190D01*
X134810000Y-109626190D02*
X134810000Y-109126190D01*
X134762380Y-109197619D01*
X134714761Y-109245238D01*
X134667142Y-109269047D01*
%TO.C,C2*%
X131116666Y-105538571D02*
X131092857Y-105562380D01*
X131021428Y-105586190D01*
X130973809Y-105586190D01*
X130902380Y-105562380D01*
X130854761Y-105514761D01*
X130830952Y-105467142D01*
X130807142Y-105371904D01*
X130807142Y-105300476D01*
X130830952Y-105205238D01*
X130854761Y-105157619D01*
X130902380Y-105110000D01*
X130973809Y-105086190D01*
X131021428Y-105086190D01*
X131092857Y-105110000D01*
X131116666Y-105133809D01*
X131307142Y-105133809D02*
X131330952Y-105110000D01*
X131378571Y-105086190D01*
X131497619Y-105086190D01*
X131545238Y-105110000D01*
X131569047Y-105133809D01*
X131592857Y-105181428D01*
X131592857Y-105229047D01*
X131569047Y-105300476D01*
X131283333Y-105586190D01*
X131592857Y-105586190D01*
%TO.C,C9*%
X135876666Y-94758571D02*
X135852857Y-94782380D01*
X135781428Y-94806190D01*
X135733809Y-94806190D01*
X135662380Y-94782380D01*
X135614761Y-94734761D01*
X135590952Y-94687142D01*
X135567142Y-94591904D01*
X135567142Y-94520476D01*
X135590952Y-94425238D01*
X135614761Y-94377619D01*
X135662380Y-94330000D01*
X135733809Y-94306190D01*
X135781428Y-94306190D01*
X135852857Y-94330000D01*
X135876666Y-94353809D01*
X136114761Y-94806190D02*
X136210000Y-94806190D01*
X136257619Y-94782380D01*
X136281428Y-94758571D01*
X136329047Y-94687142D01*
X136352857Y-94591904D01*
X136352857Y-94401428D01*
X136329047Y-94353809D01*
X136305238Y-94330000D01*
X136257619Y-94306190D01*
X136162380Y-94306190D01*
X136114761Y-94330000D01*
X136090952Y-94353809D01*
X136067142Y-94401428D01*
X136067142Y-94520476D01*
X136090952Y-94568095D01*
X136114761Y-94591904D01*
X136162380Y-94615714D01*
X136257619Y-94615714D01*
X136305238Y-94591904D01*
X136329047Y-94568095D01*
X136352857Y-94520476D01*
%TO.C,C10*%
X131058571Y-94878571D02*
X131034761Y-94902380D01*
X130963333Y-94926190D01*
X130915714Y-94926190D01*
X130844285Y-94902380D01*
X130796666Y-94854761D01*
X130772857Y-94807142D01*
X130749047Y-94711904D01*
X130749047Y-94640476D01*
X130772857Y-94545238D01*
X130796666Y-94497619D01*
X130844285Y-94450000D01*
X130915714Y-94426190D01*
X130963333Y-94426190D01*
X131034761Y-94450000D01*
X131058571Y-94473809D01*
X131534761Y-94926190D02*
X131249047Y-94926190D01*
X131391904Y-94926190D02*
X131391904Y-94426190D01*
X131344285Y-94497619D01*
X131296666Y-94545238D01*
X131249047Y-94569047D01*
X131844285Y-94426190D02*
X131891904Y-94426190D01*
X131939523Y-94450000D01*
X131963333Y-94473809D01*
X131987142Y-94521428D01*
X132010952Y-94616666D01*
X132010952Y-94735714D01*
X131987142Y-94830952D01*
X131963333Y-94878571D01*
X131939523Y-94902380D01*
X131891904Y-94926190D01*
X131844285Y-94926190D01*
X131796666Y-94902380D01*
X131772857Y-94878571D01*
X131749047Y-94830952D01*
X131725238Y-94735714D01*
X131725238Y-94616666D01*
X131749047Y-94521428D01*
X131772857Y-94473809D01*
X131796666Y-94450000D01*
X131844285Y-94426190D01*
%TO.C,C11*%
X146198571Y-95518571D02*
X146174761Y-95542380D01*
X146103333Y-95566190D01*
X146055714Y-95566190D01*
X145984285Y-95542380D01*
X145936666Y-95494761D01*
X145912857Y-95447142D01*
X145889047Y-95351904D01*
X145889047Y-95280476D01*
X145912857Y-95185238D01*
X145936666Y-95137619D01*
X145984285Y-95090000D01*
X146055714Y-95066190D01*
X146103333Y-95066190D01*
X146174761Y-95090000D01*
X146198571Y-95113809D01*
X146674761Y-95566190D02*
X146389047Y-95566190D01*
X146531904Y-95566190D02*
X146531904Y-95066190D01*
X146484285Y-95137619D01*
X146436666Y-95185238D01*
X146389047Y-95209047D01*
X147150952Y-95566190D02*
X146865238Y-95566190D01*
X147008095Y-95566190D02*
X147008095Y-95066190D01*
X146960476Y-95137619D01*
X146912857Y-95185238D01*
X146865238Y-95209047D01*
%TO.C,C12*%
D10*
X135092857Y-105342857D02*
X135073809Y-105361904D01*
X135016666Y-105380952D01*
X134978571Y-105380952D01*
X134921428Y-105361904D01*
X134883333Y-105323809D01*
X134864285Y-105285714D01*
X134845238Y-105209523D01*
X134845238Y-105152380D01*
X134864285Y-105076190D01*
X134883333Y-105038095D01*
X134921428Y-105000000D01*
X134978571Y-104980952D01*
X135016666Y-104980952D01*
X135073809Y-105000000D01*
X135092857Y-105019047D01*
X135473809Y-105380952D02*
X135245238Y-105380952D01*
X135359523Y-105380952D02*
X135359523Y-104980952D01*
X135321428Y-105038095D01*
X135283333Y-105076190D01*
X135245238Y-105095238D01*
X135626190Y-105019047D02*
X135645238Y-105000000D01*
X135683333Y-104980952D01*
X135778571Y-104980952D01*
X135816666Y-105000000D01*
X135835714Y-105019047D01*
X135854761Y-105057142D01*
X135854761Y-105095238D01*
X135835714Y-105152380D01*
X135607142Y-105380952D01*
X135854761Y-105380952D01*
%TO.C,FB1*%
D12*
X129303333Y-90454285D02*
X129136666Y-90454285D01*
X129136666Y-90716190D02*
X129136666Y-90216190D01*
X129374761Y-90216190D01*
X129731904Y-90454285D02*
X129803333Y-90478095D01*
X129827142Y-90501904D01*
X129850952Y-90549523D01*
X129850952Y-90620952D01*
X129827142Y-90668571D01*
X129803333Y-90692380D01*
X129755714Y-90716190D01*
X129565238Y-90716190D01*
X129565238Y-90216190D01*
X129731904Y-90216190D01*
X129779523Y-90240000D01*
X129803333Y-90263809D01*
X129827142Y-90311428D01*
X129827142Y-90359047D01*
X129803333Y-90406666D01*
X129779523Y-90430476D01*
X129731904Y-90454285D01*
X129565238Y-90454285D01*
X130327142Y-90716190D02*
X130041428Y-90716190D01*
X130184285Y-90716190D02*
X130184285Y-90216190D01*
X130136666Y-90287619D01*
X130089047Y-90335238D01*
X130041428Y-90359047D01*
%TO.C,TP1*%
D13*
X145884523Y-92563095D02*
X146027380Y-92563095D01*
X145955952Y-92813095D02*
X145955952Y-92563095D01*
X146110714Y-92813095D02*
X146110714Y-92563095D01*
X146205952Y-92563095D01*
X146229761Y-92575000D01*
X146241666Y-92586904D01*
X146253571Y-92610714D01*
X146253571Y-92646428D01*
X146241666Y-92670238D01*
X146229761Y-92682142D01*
X146205952Y-92694047D01*
X146110714Y-92694047D01*
X146491666Y-92813095D02*
X146348809Y-92813095D01*
X146420238Y-92813095D02*
X146420238Y-92563095D01*
X146396428Y-92598809D01*
X146372619Y-92622619D01*
X146348809Y-92634523D01*
%TO.C,TP2*%
X143284523Y-92563095D02*
X143427380Y-92563095D01*
X143355952Y-92813095D02*
X143355952Y-92563095D01*
X143510714Y-92813095D02*
X143510714Y-92563095D01*
X143605952Y-92563095D01*
X143629761Y-92575000D01*
X143641666Y-92586904D01*
X143653571Y-92610714D01*
X143653571Y-92646428D01*
X143641666Y-92670238D01*
X143629761Y-92682142D01*
X143605952Y-92694047D01*
X143510714Y-92694047D01*
X143748809Y-92586904D02*
X143760714Y-92575000D01*
X143784523Y-92563095D01*
X143844047Y-92563095D01*
X143867857Y-92575000D01*
X143879761Y-92586904D01*
X143891666Y-92610714D01*
X143891666Y-92634523D01*
X143879761Y-92670238D01*
X143736904Y-92813095D01*
X143891666Y-92813095D01*
%TO.C,TP3*%
X140684523Y-92563095D02*
X140827380Y-92563095D01*
X140755952Y-92813095D02*
X140755952Y-92563095D01*
X140910714Y-92813095D02*
X140910714Y-92563095D01*
X141005952Y-92563095D01*
X141029761Y-92575000D01*
X141041666Y-92586904D01*
X141053571Y-92610714D01*
X141053571Y-92646428D01*
X141041666Y-92670238D01*
X141029761Y-92682142D01*
X141005952Y-92694047D01*
X140910714Y-92694047D01*
X141136904Y-92563095D02*
X141291666Y-92563095D01*
X141208333Y-92658333D01*
X141244047Y-92658333D01*
X141267857Y-92670238D01*
X141279761Y-92682142D01*
X141291666Y-92705952D01*
X141291666Y-92765476D01*
X141279761Y-92789285D01*
X141267857Y-92801190D01*
X141244047Y-92813095D01*
X141172619Y-92813095D01*
X141148809Y-92801190D01*
X141136904Y-92789285D01*
%TO.C,R2*%
D10*
X138966666Y-109626190D02*
X138800000Y-109388095D01*
X138680952Y-109626190D02*
X138680952Y-109126190D01*
X138871428Y-109126190D01*
X138919047Y-109150000D01*
X138942857Y-109173809D01*
X138966666Y-109221428D01*
X138966666Y-109292857D01*
X138942857Y-109340476D01*
X138919047Y-109364285D01*
X138871428Y-109388095D01*
X138680952Y-109388095D01*
X139157142Y-109173809D02*
X139180952Y-109150000D01*
X139228571Y-109126190D01*
X139347619Y-109126190D01*
X139395238Y-109150000D01*
X139419047Y-109173809D01*
X139442857Y-109221428D01*
X139442857Y-109269047D01*
X139419047Y-109340476D01*
X139133333Y-109626190D01*
X139442857Y-109626190D01*
%TO.C,R3*%
X137416666Y-109626190D02*
X137250000Y-109388095D01*
X137130952Y-109626190D02*
X137130952Y-109126190D01*
X137321428Y-109126190D01*
X137369047Y-109150000D01*
X137392857Y-109173809D01*
X137416666Y-109221428D01*
X137416666Y-109292857D01*
X137392857Y-109340476D01*
X137369047Y-109364285D01*
X137321428Y-109388095D01*
X137130952Y-109388095D01*
X137583333Y-109126190D02*
X137892857Y-109126190D01*
X137726190Y-109316666D01*
X137797619Y-109316666D01*
X137845238Y-109340476D01*
X137869047Y-109364285D01*
X137892857Y-109411904D01*
X137892857Y-109530952D01*
X137869047Y-109578571D01*
X137845238Y-109602380D01*
X137797619Y-109626190D01*
X137654761Y-109626190D01*
X137607142Y-109602380D01*
X137583333Y-109578571D01*
%TD*%
M02*
