%TF.GenerationSoftware,KiCad,Pcbnew,5.1.8-db9833491~87~ubuntu20.04.1*%
%TF.CreationDate,2020-11-23T17:04:18+01:00*%
%TF.ProjectId,rosalyn-rx,726f7361-6c79-46e2-9d72-782e6b696361,v1.0*%
%TF.SameCoordinates,Original*%
%TF.FileFunction,Soldermask,Top*%
%TF.FilePolarity,Negative*%
%FSLAX46Y46*%
G04 Gerber Fmt 4.6, Leading zero omitted, Abs format (unit mm)*
G04 Created by KiCad (PCBNEW 5.1.8-db9833491~87~ubuntu20.04.1) date 2020-11-23 17:04:18*
%MOMM*%
%LPD*%
G01*
G04 APERTURE LIST*
%ADD10O,1.700000X1.700000*%
%ADD11R,1.700000X1.700000*%
%ADD12R,0.900000X0.800000*%
%ADD13R,0.350000X0.500000*%
%ADD14C,1.000000*%
G04 APERTURE END LIST*
%TO.C,J3*%
G36*
G01*
X153525001Y-100730000D02*
X152224999Y-100730000D01*
G75*
G02*
X151975000Y-100480001I0J249999D01*
G01*
X151975000Y-99779999D01*
G75*
G02*
X152224999Y-99530000I249999J0D01*
G01*
X153525001Y-99530000D01*
G75*
G02*
X153775000Y-99779999I0J-249999D01*
G01*
X153775000Y-100480001D01*
G75*
G02*
X153525001Y-100730000I-249999J0D01*
G01*
G37*
G36*
G01*
X153525001Y-108330000D02*
X152224999Y-108330000D01*
G75*
G02*
X151975000Y-108080001I0J249999D01*
G01*
X151975000Y-107379999D01*
G75*
G02*
X152224999Y-107130000I249999J0D01*
G01*
X153525001Y-107130000D01*
G75*
G02*
X153775000Y-107379999I0J-249999D01*
G01*
X153775000Y-108080001D01*
G75*
G02*
X153525001Y-108330000I-249999J0D01*
G01*
G37*
G36*
G01*
X149625000Y-101730000D02*
X148375000Y-101730000D01*
G75*
G02*
X148225000Y-101580000I0J150000D01*
G01*
X148225000Y-101280000D01*
G75*
G02*
X148375000Y-101130000I150000J0D01*
G01*
X149625000Y-101130000D01*
G75*
G02*
X149775000Y-101280000I0J-150000D01*
G01*
X149775000Y-101580000D01*
G75*
G02*
X149625000Y-101730000I-150000J0D01*
G01*
G37*
G36*
G01*
X149625000Y-102730000D02*
X148375000Y-102730000D01*
G75*
G02*
X148225000Y-102580000I0J150000D01*
G01*
X148225000Y-102280000D01*
G75*
G02*
X148375000Y-102130000I150000J0D01*
G01*
X149625000Y-102130000D01*
G75*
G02*
X149775000Y-102280000I0J-150000D01*
G01*
X149775000Y-102580000D01*
G75*
G02*
X149625000Y-102730000I-150000J0D01*
G01*
G37*
G36*
G01*
X149625000Y-103730000D02*
X148375000Y-103730000D01*
G75*
G02*
X148225000Y-103580000I0J150000D01*
G01*
X148225000Y-103280000D01*
G75*
G02*
X148375000Y-103130000I150000J0D01*
G01*
X149625000Y-103130000D01*
G75*
G02*
X149775000Y-103280000I0J-150000D01*
G01*
X149775000Y-103580000D01*
G75*
G02*
X149625000Y-103730000I-150000J0D01*
G01*
G37*
G36*
G01*
X149625000Y-104730000D02*
X148375000Y-104730000D01*
G75*
G02*
X148225000Y-104580000I0J150000D01*
G01*
X148225000Y-104280000D01*
G75*
G02*
X148375000Y-104130000I150000J0D01*
G01*
X149625000Y-104130000D01*
G75*
G02*
X149775000Y-104280000I0J-150000D01*
G01*
X149775000Y-104580000D01*
G75*
G02*
X149625000Y-104730000I-150000J0D01*
G01*
G37*
G36*
G01*
X149625000Y-105730000D02*
X148375000Y-105730000D01*
G75*
G02*
X148225000Y-105580000I0J150000D01*
G01*
X148225000Y-105280000D01*
G75*
G02*
X148375000Y-105130000I150000J0D01*
G01*
X149625000Y-105130000D01*
G75*
G02*
X149775000Y-105280000I0J-150000D01*
G01*
X149775000Y-105580000D01*
G75*
G02*
X149625000Y-105730000I-150000J0D01*
G01*
G37*
G36*
G01*
X149625000Y-106730000D02*
X148375000Y-106730000D01*
G75*
G02*
X148225000Y-106580000I0J150000D01*
G01*
X148225000Y-106280000D01*
G75*
G02*
X148375000Y-106130000I150000J0D01*
G01*
X149625000Y-106130000D01*
G75*
G02*
X149775000Y-106280000I0J-150000D01*
G01*
X149775000Y-106580000D01*
G75*
G02*
X149625000Y-106730000I-150000J0D01*
G01*
G37*
%TD*%
D10*
%TO.C,J4*%
X120410000Y-108890000D03*
X120410000Y-91110000D03*
X120410000Y-106350000D03*
X120410000Y-103810000D03*
X120410000Y-101270000D03*
X120410000Y-98730000D03*
X120410000Y-96190000D03*
X120410000Y-93650000D03*
X122950000Y-91110000D03*
X122950000Y-93650000D03*
X122950000Y-96190000D03*
X122950000Y-98730000D03*
X122950000Y-101270000D03*
X122950000Y-103810000D03*
X122950000Y-106350000D03*
X122950000Y-108890000D03*
D11*
X125490000Y-91110000D03*
D10*
X125490000Y-93650000D03*
X125490000Y-96190000D03*
X125490000Y-98730000D03*
X125490000Y-101270000D03*
X125490000Y-103810000D03*
X125490000Y-106350000D03*
X125490000Y-108890000D03*
%TD*%
%TO.C,J2*%
G36*
G01*
X153525001Y-92870000D02*
X152224999Y-92870000D01*
G75*
G02*
X151975000Y-92620001I0J249999D01*
G01*
X151975000Y-91919999D01*
G75*
G02*
X152224999Y-91670000I249999J0D01*
G01*
X153525001Y-91670000D01*
G75*
G02*
X153775000Y-91919999I0J-249999D01*
G01*
X153775000Y-92620001D01*
G75*
G02*
X153525001Y-92870000I-249999J0D01*
G01*
G37*
G36*
G01*
X153525001Y-98470000D02*
X152224999Y-98470000D01*
G75*
G02*
X151975000Y-98220001I0J249999D01*
G01*
X151975000Y-97519999D01*
G75*
G02*
X152224999Y-97270000I249999J0D01*
G01*
X153525001Y-97270000D01*
G75*
G02*
X153775000Y-97519999I0J-249999D01*
G01*
X153775000Y-98220001D01*
G75*
G02*
X153525001Y-98470000I-249999J0D01*
G01*
G37*
G36*
G01*
X149625000Y-93870000D02*
X148375000Y-93870000D01*
G75*
G02*
X148225000Y-93720000I0J150000D01*
G01*
X148225000Y-93420000D01*
G75*
G02*
X148375000Y-93270000I150000J0D01*
G01*
X149625000Y-93270000D01*
G75*
G02*
X149775000Y-93420000I0J-150000D01*
G01*
X149775000Y-93720000D01*
G75*
G02*
X149625000Y-93870000I-150000J0D01*
G01*
G37*
G36*
G01*
X149625000Y-94870000D02*
X148375000Y-94870000D01*
G75*
G02*
X148225000Y-94720000I0J150000D01*
G01*
X148225000Y-94420000D01*
G75*
G02*
X148375000Y-94270000I150000J0D01*
G01*
X149625000Y-94270000D01*
G75*
G02*
X149775000Y-94420000I0J-150000D01*
G01*
X149775000Y-94720000D01*
G75*
G02*
X149625000Y-94870000I-150000J0D01*
G01*
G37*
G36*
G01*
X149625000Y-95870000D02*
X148375000Y-95870000D01*
G75*
G02*
X148225000Y-95720000I0J150000D01*
G01*
X148225000Y-95420000D01*
G75*
G02*
X148375000Y-95270000I150000J0D01*
G01*
X149625000Y-95270000D01*
G75*
G02*
X149775000Y-95420000I0J-150000D01*
G01*
X149775000Y-95720000D01*
G75*
G02*
X149625000Y-95870000I-150000J0D01*
G01*
G37*
G36*
G01*
X149625000Y-96870000D02*
X148375000Y-96870000D01*
G75*
G02*
X148225000Y-96720000I0J150000D01*
G01*
X148225000Y-96420000D01*
G75*
G02*
X148375000Y-96270000I150000J0D01*
G01*
X149625000Y-96270000D01*
G75*
G02*
X149775000Y-96420000I0J-150000D01*
G01*
X149775000Y-96720000D01*
G75*
G02*
X149625000Y-96870000I-150000J0D01*
G01*
G37*
%TD*%
%TO.C,R12*%
G36*
G01*
X127805000Y-95385000D02*
X128355000Y-95385000D01*
G75*
G02*
X128555000Y-95585000I0J-200000D01*
G01*
X128555000Y-95985000D01*
G75*
G02*
X128355000Y-96185000I-200000J0D01*
G01*
X127805000Y-96185000D01*
G75*
G02*
X127605000Y-95985000I0J200000D01*
G01*
X127605000Y-95585000D01*
G75*
G02*
X127805000Y-95385000I200000J0D01*
G01*
G37*
G36*
G01*
X127805000Y-93735000D02*
X128355000Y-93735000D01*
G75*
G02*
X128555000Y-93935000I0J-200000D01*
G01*
X128555000Y-94335000D01*
G75*
G02*
X128355000Y-94535000I-200000J0D01*
G01*
X127805000Y-94535000D01*
G75*
G02*
X127605000Y-94335000I0J200000D01*
G01*
X127605000Y-93935000D01*
G75*
G02*
X127805000Y-93735000I200000J0D01*
G01*
G37*
%TD*%
%TO.C,R11*%
G36*
G01*
X128355000Y-104615000D02*
X127805000Y-104615000D01*
G75*
G02*
X127605000Y-104415000I0J200000D01*
G01*
X127605000Y-104015000D01*
G75*
G02*
X127805000Y-103815000I200000J0D01*
G01*
X128355000Y-103815000D01*
G75*
G02*
X128555000Y-104015000I0J-200000D01*
G01*
X128555000Y-104415000D01*
G75*
G02*
X128355000Y-104615000I-200000J0D01*
G01*
G37*
G36*
G01*
X128355000Y-106265000D02*
X127805000Y-106265000D01*
G75*
G02*
X127605000Y-106065000I0J200000D01*
G01*
X127605000Y-105665000D01*
G75*
G02*
X127805000Y-105465000I200000J0D01*
G01*
X128355000Y-105465000D01*
G75*
G02*
X128555000Y-105665000I0J-200000D01*
G01*
X128555000Y-106065000D01*
G75*
G02*
X128355000Y-106265000I-200000J0D01*
G01*
G37*
%TD*%
%TO.C,D2*%
G36*
G01*
X128336250Y-91590000D02*
X127823750Y-91590000D01*
G75*
G02*
X127605000Y-91371250I0J218750D01*
G01*
X127605000Y-90933750D01*
G75*
G02*
X127823750Y-90715000I218750J0D01*
G01*
X128336250Y-90715000D01*
G75*
G02*
X128555000Y-90933750I0J-218750D01*
G01*
X128555000Y-91371250D01*
G75*
G02*
X128336250Y-91590000I-218750J0D01*
G01*
G37*
G36*
G01*
X128336250Y-93165000D02*
X127823750Y-93165000D01*
G75*
G02*
X127605000Y-92946250I0J218750D01*
G01*
X127605000Y-92508750D01*
G75*
G02*
X127823750Y-92290000I218750J0D01*
G01*
X128336250Y-92290000D01*
G75*
G02*
X128555000Y-92508750I0J-218750D01*
G01*
X128555000Y-92946250D01*
G75*
G02*
X128336250Y-93165000I-218750J0D01*
G01*
G37*
%TD*%
%TO.C,D1*%
G36*
G01*
X127823750Y-108400000D02*
X128336250Y-108400000D01*
G75*
G02*
X128555000Y-108618750I0J-218750D01*
G01*
X128555000Y-109056250D01*
G75*
G02*
X128336250Y-109275000I-218750J0D01*
G01*
X127823750Y-109275000D01*
G75*
G02*
X127605000Y-109056250I0J218750D01*
G01*
X127605000Y-108618750D01*
G75*
G02*
X127823750Y-108400000I218750J0D01*
G01*
G37*
G36*
G01*
X127823750Y-106825000D02*
X128336250Y-106825000D01*
G75*
G02*
X128555000Y-107043750I0J-218750D01*
G01*
X128555000Y-107481250D01*
G75*
G02*
X128336250Y-107700000I-218750J0D01*
G01*
X127823750Y-107700000D01*
G75*
G02*
X127605000Y-107481250I0J218750D01*
G01*
X127605000Y-107043750D01*
G75*
G02*
X127823750Y-106825000I218750J0D01*
G01*
G37*
%TD*%
%TO.C,C7*%
G36*
G01*
X145440000Y-106515000D02*
X144940000Y-106515000D01*
G75*
G02*
X144715000Y-106290000I0J225000D01*
G01*
X144715000Y-105840000D01*
G75*
G02*
X144940000Y-105615000I225000J0D01*
G01*
X145440000Y-105615000D01*
G75*
G02*
X145665000Y-105840000I0J-225000D01*
G01*
X145665000Y-106290000D01*
G75*
G02*
X145440000Y-106515000I-225000J0D01*
G01*
G37*
G36*
G01*
X145440000Y-108065000D02*
X144940000Y-108065000D01*
G75*
G02*
X144715000Y-107840000I0J225000D01*
G01*
X144715000Y-107390000D01*
G75*
G02*
X144940000Y-107165000I225000J0D01*
G01*
X145440000Y-107165000D01*
G75*
G02*
X145665000Y-107390000I0J-225000D01*
G01*
X145665000Y-107840000D01*
G75*
G02*
X145440000Y-108065000I-225000J0D01*
G01*
G37*
%TD*%
%TO.C,C5*%
G36*
G01*
X140300000Y-107165000D02*
X140800000Y-107165000D01*
G75*
G02*
X141025000Y-107390000I0J-225000D01*
G01*
X141025000Y-107840000D01*
G75*
G02*
X140800000Y-108065000I-225000J0D01*
G01*
X140300000Y-108065000D01*
G75*
G02*
X140075000Y-107840000I0J225000D01*
G01*
X140075000Y-107390000D01*
G75*
G02*
X140300000Y-107165000I225000J0D01*
G01*
G37*
G36*
G01*
X140300000Y-105615000D02*
X140800000Y-105615000D01*
G75*
G02*
X141025000Y-105840000I0J-225000D01*
G01*
X141025000Y-106290000D01*
G75*
G02*
X140800000Y-106515000I-225000J0D01*
G01*
X140300000Y-106515000D01*
G75*
G02*
X140075000Y-106290000I0J225000D01*
G01*
X140075000Y-105840000D01*
G75*
G02*
X140300000Y-105615000I225000J0D01*
G01*
G37*
%TD*%
D12*
%TO.C,U3*%
X133290000Y-92650000D03*
X135290000Y-91700000D03*
X135290000Y-93600000D03*
%TD*%
%TO.C,C4*%
G36*
G01*
X137485000Y-92200000D02*
X136535000Y-92200000D01*
G75*
G02*
X136285000Y-91950000I0J250000D01*
G01*
X136285000Y-91450000D01*
G75*
G02*
X136535000Y-91200000I250000J0D01*
G01*
X137485000Y-91200000D01*
G75*
G02*
X137735000Y-91450000I0J-250000D01*
G01*
X137735000Y-91950000D01*
G75*
G02*
X137485000Y-92200000I-250000J0D01*
G01*
G37*
G36*
G01*
X137485000Y-94100000D02*
X136535000Y-94100000D01*
G75*
G02*
X136285000Y-93850000I0J250000D01*
G01*
X136285000Y-93350000D01*
G75*
G02*
X136535000Y-93100000I250000J0D01*
G01*
X137485000Y-93100000D01*
G75*
G02*
X137735000Y-93350000I0J-250000D01*
G01*
X137735000Y-93850000D01*
G75*
G02*
X137485000Y-94100000I-250000J0D01*
G01*
G37*
%TD*%
%TO.C,C3*%
G36*
G01*
X131095000Y-93090000D02*
X132045000Y-93090000D01*
G75*
G02*
X132295000Y-93340000I0J-250000D01*
G01*
X132295000Y-93840000D01*
G75*
G02*
X132045000Y-94090000I-250000J0D01*
G01*
X131095000Y-94090000D01*
G75*
G02*
X130845000Y-93840000I0J250000D01*
G01*
X130845000Y-93340000D01*
G75*
G02*
X131095000Y-93090000I250000J0D01*
G01*
G37*
G36*
G01*
X131095000Y-91190000D02*
X132045000Y-91190000D01*
G75*
G02*
X132295000Y-91440000I0J-250000D01*
G01*
X132295000Y-91940000D01*
G75*
G02*
X132045000Y-92190000I-250000J0D01*
G01*
X131095000Y-92190000D01*
G75*
G02*
X130845000Y-91940000I0J250000D01*
G01*
X130845000Y-91440000D01*
G75*
G02*
X131095000Y-91190000I250000J0D01*
G01*
G37*
%TD*%
%TO.C,C1*%
G36*
G01*
X131995000Y-106530000D02*
X131995000Y-107030000D01*
G75*
G02*
X131770000Y-107255000I-225000J0D01*
G01*
X131320000Y-107255000D01*
G75*
G02*
X131095000Y-107030000I0J225000D01*
G01*
X131095000Y-106530000D01*
G75*
G02*
X131320000Y-106305000I225000J0D01*
G01*
X131770000Y-106305000D01*
G75*
G02*
X131995000Y-106530000I0J-225000D01*
G01*
G37*
G36*
G01*
X133545000Y-106530000D02*
X133545000Y-107030000D01*
G75*
G02*
X133320000Y-107255000I-225000J0D01*
G01*
X132870000Y-107255000D01*
G75*
G02*
X132645000Y-107030000I0J225000D01*
G01*
X132645000Y-106530000D01*
G75*
G02*
X132870000Y-106305000I225000J0D01*
G01*
X133320000Y-106305000D01*
G75*
G02*
X133545000Y-106530000I0J-225000D01*
G01*
G37*
%TD*%
%TO.C,C8*%
G36*
G01*
X135800000Y-105615000D02*
X136300000Y-105615000D01*
G75*
G02*
X136525000Y-105840000I0J-225000D01*
G01*
X136525000Y-106290000D01*
G75*
G02*
X136300000Y-106515000I-225000J0D01*
G01*
X135800000Y-106515000D01*
G75*
G02*
X135575000Y-106290000I0J225000D01*
G01*
X135575000Y-105840000D01*
G75*
G02*
X135800000Y-105615000I225000J0D01*
G01*
G37*
G36*
G01*
X135800000Y-107165000D02*
X136300000Y-107165000D01*
G75*
G02*
X136525000Y-107390000I0J-225000D01*
G01*
X136525000Y-107840000D01*
G75*
G02*
X136300000Y-108065000I-225000J0D01*
G01*
X135800000Y-108065000D01*
G75*
G02*
X135575000Y-107840000I0J225000D01*
G01*
X135575000Y-107390000D01*
G75*
G02*
X135800000Y-107165000I225000J0D01*
G01*
G37*
%TD*%
%TO.C,U1*%
G36*
G01*
X137925000Y-104900000D02*
X137775000Y-104900000D01*
G75*
G02*
X137700000Y-104825000I0J75000D01*
G01*
X137700000Y-103500000D01*
G75*
G02*
X137775000Y-103425000I75000J0D01*
G01*
X137925000Y-103425000D01*
G75*
G02*
X138000000Y-103500000I0J-75000D01*
G01*
X138000000Y-104825000D01*
G75*
G02*
X137925000Y-104900000I-75000J0D01*
G01*
G37*
G36*
G01*
X138425000Y-104900000D02*
X138275000Y-104900000D01*
G75*
G02*
X138200000Y-104825000I0J75000D01*
G01*
X138200000Y-103500000D01*
G75*
G02*
X138275000Y-103425000I75000J0D01*
G01*
X138425000Y-103425000D01*
G75*
G02*
X138500000Y-103500000I0J-75000D01*
G01*
X138500000Y-104825000D01*
G75*
G02*
X138425000Y-104900000I-75000J0D01*
G01*
G37*
G36*
G01*
X138925000Y-104900000D02*
X138775000Y-104900000D01*
G75*
G02*
X138700000Y-104825000I0J75000D01*
G01*
X138700000Y-103500000D01*
G75*
G02*
X138775000Y-103425000I75000J0D01*
G01*
X138925000Y-103425000D01*
G75*
G02*
X139000000Y-103500000I0J-75000D01*
G01*
X139000000Y-104825000D01*
G75*
G02*
X138925000Y-104900000I-75000J0D01*
G01*
G37*
G36*
G01*
X139425000Y-104900000D02*
X139275000Y-104900000D01*
G75*
G02*
X139200000Y-104825000I0J75000D01*
G01*
X139200000Y-103500000D01*
G75*
G02*
X139275000Y-103425000I75000J0D01*
G01*
X139425000Y-103425000D01*
G75*
G02*
X139500000Y-103500000I0J-75000D01*
G01*
X139500000Y-104825000D01*
G75*
G02*
X139425000Y-104900000I-75000J0D01*
G01*
G37*
G36*
G01*
X139925000Y-104900000D02*
X139775000Y-104900000D01*
G75*
G02*
X139700000Y-104825000I0J75000D01*
G01*
X139700000Y-103500000D01*
G75*
G02*
X139775000Y-103425000I75000J0D01*
G01*
X139925000Y-103425000D01*
G75*
G02*
X140000000Y-103500000I0J-75000D01*
G01*
X140000000Y-104825000D01*
G75*
G02*
X139925000Y-104900000I-75000J0D01*
G01*
G37*
G36*
G01*
X140425000Y-104900000D02*
X140275000Y-104900000D01*
G75*
G02*
X140200000Y-104825000I0J75000D01*
G01*
X140200000Y-103500000D01*
G75*
G02*
X140275000Y-103425000I75000J0D01*
G01*
X140425000Y-103425000D01*
G75*
G02*
X140500000Y-103500000I0J-75000D01*
G01*
X140500000Y-104825000D01*
G75*
G02*
X140425000Y-104900000I-75000J0D01*
G01*
G37*
G36*
G01*
X140925000Y-104900000D02*
X140775000Y-104900000D01*
G75*
G02*
X140700000Y-104825000I0J75000D01*
G01*
X140700000Y-103500000D01*
G75*
G02*
X140775000Y-103425000I75000J0D01*
G01*
X140925000Y-103425000D01*
G75*
G02*
X141000000Y-103500000I0J-75000D01*
G01*
X141000000Y-104825000D01*
G75*
G02*
X140925000Y-104900000I-75000J0D01*
G01*
G37*
G36*
G01*
X141425000Y-104900000D02*
X141275000Y-104900000D01*
G75*
G02*
X141200000Y-104825000I0J75000D01*
G01*
X141200000Y-103500000D01*
G75*
G02*
X141275000Y-103425000I75000J0D01*
G01*
X141425000Y-103425000D01*
G75*
G02*
X141500000Y-103500000I0J-75000D01*
G01*
X141500000Y-104825000D01*
G75*
G02*
X141425000Y-104900000I-75000J0D01*
G01*
G37*
G36*
G01*
X141925000Y-104900000D02*
X141775000Y-104900000D01*
G75*
G02*
X141700000Y-104825000I0J75000D01*
G01*
X141700000Y-103500000D01*
G75*
G02*
X141775000Y-103425000I75000J0D01*
G01*
X141925000Y-103425000D01*
G75*
G02*
X142000000Y-103500000I0J-75000D01*
G01*
X142000000Y-104825000D01*
G75*
G02*
X141925000Y-104900000I-75000J0D01*
G01*
G37*
G36*
G01*
X142425000Y-104900000D02*
X142275000Y-104900000D01*
G75*
G02*
X142200000Y-104825000I0J75000D01*
G01*
X142200000Y-103500000D01*
G75*
G02*
X142275000Y-103425000I75000J0D01*
G01*
X142425000Y-103425000D01*
G75*
G02*
X142500000Y-103500000I0J-75000D01*
G01*
X142500000Y-104825000D01*
G75*
G02*
X142425000Y-104900000I-75000J0D01*
G01*
G37*
G36*
G01*
X142925000Y-104900000D02*
X142775000Y-104900000D01*
G75*
G02*
X142700000Y-104825000I0J75000D01*
G01*
X142700000Y-103500000D01*
G75*
G02*
X142775000Y-103425000I75000J0D01*
G01*
X142925000Y-103425000D01*
G75*
G02*
X143000000Y-103500000I0J-75000D01*
G01*
X143000000Y-104825000D01*
G75*
G02*
X142925000Y-104900000I-75000J0D01*
G01*
G37*
G36*
G01*
X143425000Y-104900000D02*
X143275000Y-104900000D01*
G75*
G02*
X143200000Y-104825000I0J75000D01*
G01*
X143200000Y-103500000D01*
G75*
G02*
X143275000Y-103425000I75000J0D01*
G01*
X143425000Y-103425000D01*
G75*
G02*
X143500000Y-103500000I0J-75000D01*
G01*
X143500000Y-104825000D01*
G75*
G02*
X143425000Y-104900000I-75000J0D01*
G01*
G37*
G36*
G01*
X145425000Y-102900000D02*
X144100000Y-102900000D01*
G75*
G02*
X144025000Y-102825000I0J75000D01*
G01*
X144025000Y-102675000D01*
G75*
G02*
X144100000Y-102600000I75000J0D01*
G01*
X145425000Y-102600000D01*
G75*
G02*
X145500000Y-102675000I0J-75000D01*
G01*
X145500000Y-102825000D01*
G75*
G02*
X145425000Y-102900000I-75000J0D01*
G01*
G37*
G36*
G01*
X145425000Y-102400000D02*
X144100000Y-102400000D01*
G75*
G02*
X144025000Y-102325000I0J75000D01*
G01*
X144025000Y-102175000D01*
G75*
G02*
X144100000Y-102100000I75000J0D01*
G01*
X145425000Y-102100000D01*
G75*
G02*
X145500000Y-102175000I0J-75000D01*
G01*
X145500000Y-102325000D01*
G75*
G02*
X145425000Y-102400000I-75000J0D01*
G01*
G37*
G36*
G01*
X145425000Y-101900000D02*
X144100000Y-101900000D01*
G75*
G02*
X144025000Y-101825000I0J75000D01*
G01*
X144025000Y-101675000D01*
G75*
G02*
X144100000Y-101600000I75000J0D01*
G01*
X145425000Y-101600000D01*
G75*
G02*
X145500000Y-101675000I0J-75000D01*
G01*
X145500000Y-101825000D01*
G75*
G02*
X145425000Y-101900000I-75000J0D01*
G01*
G37*
G36*
G01*
X145425000Y-101400000D02*
X144100000Y-101400000D01*
G75*
G02*
X144025000Y-101325000I0J75000D01*
G01*
X144025000Y-101175000D01*
G75*
G02*
X144100000Y-101100000I75000J0D01*
G01*
X145425000Y-101100000D01*
G75*
G02*
X145500000Y-101175000I0J-75000D01*
G01*
X145500000Y-101325000D01*
G75*
G02*
X145425000Y-101400000I-75000J0D01*
G01*
G37*
G36*
G01*
X145425000Y-100900000D02*
X144100000Y-100900000D01*
G75*
G02*
X144025000Y-100825000I0J75000D01*
G01*
X144025000Y-100675000D01*
G75*
G02*
X144100000Y-100600000I75000J0D01*
G01*
X145425000Y-100600000D01*
G75*
G02*
X145500000Y-100675000I0J-75000D01*
G01*
X145500000Y-100825000D01*
G75*
G02*
X145425000Y-100900000I-75000J0D01*
G01*
G37*
G36*
G01*
X145425000Y-100400000D02*
X144100000Y-100400000D01*
G75*
G02*
X144025000Y-100325000I0J75000D01*
G01*
X144025000Y-100175000D01*
G75*
G02*
X144100000Y-100100000I75000J0D01*
G01*
X145425000Y-100100000D01*
G75*
G02*
X145500000Y-100175000I0J-75000D01*
G01*
X145500000Y-100325000D01*
G75*
G02*
X145425000Y-100400000I-75000J0D01*
G01*
G37*
G36*
G01*
X145425000Y-99900000D02*
X144100000Y-99900000D01*
G75*
G02*
X144025000Y-99825000I0J75000D01*
G01*
X144025000Y-99675000D01*
G75*
G02*
X144100000Y-99600000I75000J0D01*
G01*
X145425000Y-99600000D01*
G75*
G02*
X145500000Y-99675000I0J-75000D01*
G01*
X145500000Y-99825000D01*
G75*
G02*
X145425000Y-99900000I-75000J0D01*
G01*
G37*
G36*
G01*
X145425000Y-99400000D02*
X144100000Y-99400000D01*
G75*
G02*
X144025000Y-99325000I0J75000D01*
G01*
X144025000Y-99175000D01*
G75*
G02*
X144100000Y-99100000I75000J0D01*
G01*
X145425000Y-99100000D01*
G75*
G02*
X145500000Y-99175000I0J-75000D01*
G01*
X145500000Y-99325000D01*
G75*
G02*
X145425000Y-99400000I-75000J0D01*
G01*
G37*
G36*
G01*
X145425000Y-98900000D02*
X144100000Y-98900000D01*
G75*
G02*
X144025000Y-98825000I0J75000D01*
G01*
X144025000Y-98675000D01*
G75*
G02*
X144100000Y-98600000I75000J0D01*
G01*
X145425000Y-98600000D01*
G75*
G02*
X145500000Y-98675000I0J-75000D01*
G01*
X145500000Y-98825000D01*
G75*
G02*
X145425000Y-98900000I-75000J0D01*
G01*
G37*
G36*
G01*
X145425000Y-98400000D02*
X144100000Y-98400000D01*
G75*
G02*
X144025000Y-98325000I0J75000D01*
G01*
X144025000Y-98175000D01*
G75*
G02*
X144100000Y-98100000I75000J0D01*
G01*
X145425000Y-98100000D01*
G75*
G02*
X145500000Y-98175000I0J-75000D01*
G01*
X145500000Y-98325000D01*
G75*
G02*
X145425000Y-98400000I-75000J0D01*
G01*
G37*
G36*
G01*
X145425000Y-97900000D02*
X144100000Y-97900000D01*
G75*
G02*
X144025000Y-97825000I0J75000D01*
G01*
X144025000Y-97675000D01*
G75*
G02*
X144100000Y-97600000I75000J0D01*
G01*
X145425000Y-97600000D01*
G75*
G02*
X145500000Y-97675000I0J-75000D01*
G01*
X145500000Y-97825000D01*
G75*
G02*
X145425000Y-97900000I-75000J0D01*
G01*
G37*
G36*
G01*
X145425000Y-97400000D02*
X144100000Y-97400000D01*
G75*
G02*
X144025000Y-97325000I0J75000D01*
G01*
X144025000Y-97175000D01*
G75*
G02*
X144100000Y-97100000I75000J0D01*
G01*
X145425000Y-97100000D01*
G75*
G02*
X145500000Y-97175000I0J-75000D01*
G01*
X145500000Y-97325000D01*
G75*
G02*
X145425000Y-97400000I-75000J0D01*
G01*
G37*
G36*
G01*
X143425000Y-96575000D02*
X143275000Y-96575000D01*
G75*
G02*
X143200000Y-96500000I0J75000D01*
G01*
X143200000Y-95175000D01*
G75*
G02*
X143275000Y-95100000I75000J0D01*
G01*
X143425000Y-95100000D01*
G75*
G02*
X143500000Y-95175000I0J-75000D01*
G01*
X143500000Y-96500000D01*
G75*
G02*
X143425000Y-96575000I-75000J0D01*
G01*
G37*
G36*
G01*
X142925000Y-96575000D02*
X142775000Y-96575000D01*
G75*
G02*
X142700000Y-96500000I0J75000D01*
G01*
X142700000Y-95175000D01*
G75*
G02*
X142775000Y-95100000I75000J0D01*
G01*
X142925000Y-95100000D01*
G75*
G02*
X143000000Y-95175000I0J-75000D01*
G01*
X143000000Y-96500000D01*
G75*
G02*
X142925000Y-96575000I-75000J0D01*
G01*
G37*
G36*
G01*
X142425000Y-96575000D02*
X142275000Y-96575000D01*
G75*
G02*
X142200000Y-96500000I0J75000D01*
G01*
X142200000Y-95175000D01*
G75*
G02*
X142275000Y-95100000I75000J0D01*
G01*
X142425000Y-95100000D01*
G75*
G02*
X142500000Y-95175000I0J-75000D01*
G01*
X142500000Y-96500000D01*
G75*
G02*
X142425000Y-96575000I-75000J0D01*
G01*
G37*
G36*
G01*
X141925000Y-96575000D02*
X141775000Y-96575000D01*
G75*
G02*
X141700000Y-96500000I0J75000D01*
G01*
X141700000Y-95175000D01*
G75*
G02*
X141775000Y-95100000I75000J0D01*
G01*
X141925000Y-95100000D01*
G75*
G02*
X142000000Y-95175000I0J-75000D01*
G01*
X142000000Y-96500000D01*
G75*
G02*
X141925000Y-96575000I-75000J0D01*
G01*
G37*
G36*
G01*
X141425000Y-96575000D02*
X141275000Y-96575000D01*
G75*
G02*
X141200000Y-96500000I0J75000D01*
G01*
X141200000Y-95175000D01*
G75*
G02*
X141275000Y-95100000I75000J0D01*
G01*
X141425000Y-95100000D01*
G75*
G02*
X141500000Y-95175000I0J-75000D01*
G01*
X141500000Y-96500000D01*
G75*
G02*
X141425000Y-96575000I-75000J0D01*
G01*
G37*
G36*
G01*
X140925000Y-96575000D02*
X140775000Y-96575000D01*
G75*
G02*
X140700000Y-96500000I0J75000D01*
G01*
X140700000Y-95175000D01*
G75*
G02*
X140775000Y-95100000I75000J0D01*
G01*
X140925000Y-95100000D01*
G75*
G02*
X141000000Y-95175000I0J-75000D01*
G01*
X141000000Y-96500000D01*
G75*
G02*
X140925000Y-96575000I-75000J0D01*
G01*
G37*
G36*
G01*
X140425000Y-96575000D02*
X140275000Y-96575000D01*
G75*
G02*
X140200000Y-96500000I0J75000D01*
G01*
X140200000Y-95175000D01*
G75*
G02*
X140275000Y-95100000I75000J0D01*
G01*
X140425000Y-95100000D01*
G75*
G02*
X140500000Y-95175000I0J-75000D01*
G01*
X140500000Y-96500000D01*
G75*
G02*
X140425000Y-96575000I-75000J0D01*
G01*
G37*
G36*
G01*
X139925000Y-96575000D02*
X139775000Y-96575000D01*
G75*
G02*
X139700000Y-96500000I0J75000D01*
G01*
X139700000Y-95175000D01*
G75*
G02*
X139775000Y-95100000I75000J0D01*
G01*
X139925000Y-95100000D01*
G75*
G02*
X140000000Y-95175000I0J-75000D01*
G01*
X140000000Y-96500000D01*
G75*
G02*
X139925000Y-96575000I-75000J0D01*
G01*
G37*
G36*
G01*
X139425000Y-96575000D02*
X139275000Y-96575000D01*
G75*
G02*
X139200000Y-96500000I0J75000D01*
G01*
X139200000Y-95175000D01*
G75*
G02*
X139275000Y-95100000I75000J0D01*
G01*
X139425000Y-95100000D01*
G75*
G02*
X139500000Y-95175000I0J-75000D01*
G01*
X139500000Y-96500000D01*
G75*
G02*
X139425000Y-96575000I-75000J0D01*
G01*
G37*
G36*
G01*
X138925000Y-96575000D02*
X138775000Y-96575000D01*
G75*
G02*
X138700000Y-96500000I0J75000D01*
G01*
X138700000Y-95175000D01*
G75*
G02*
X138775000Y-95100000I75000J0D01*
G01*
X138925000Y-95100000D01*
G75*
G02*
X139000000Y-95175000I0J-75000D01*
G01*
X139000000Y-96500000D01*
G75*
G02*
X138925000Y-96575000I-75000J0D01*
G01*
G37*
G36*
G01*
X138425000Y-96575000D02*
X138275000Y-96575000D01*
G75*
G02*
X138200000Y-96500000I0J75000D01*
G01*
X138200000Y-95175000D01*
G75*
G02*
X138275000Y-95100000I75000J0D01*
G01*
X138425000Y-95100000D01*
G75*
G02*
X138500000Y-95175000I0J-75000D01*
G01*
X138500000Y-96500000D01*
G75*
G02*
X138425000Y-96575000I-75000J0D01*
G01*
G37*
G36*
G01*
X137925000Y-96575000D02*
X137775000Y-96575000D01*
G75*
G02*
X137700000Y-96500000I0J75000D01*
G01*
X137700000Y-95175000D01*
G75*
G02*
X137775000Y-95100000I75000J0D01*
G01*
X137925000Y-95100000D01*
G75*
G02*
X138000000Y-95175000I0J-75000D01*
G01*
X138000000Y-96500000D01*
G75*
G02*
X137925000Y-96575000I-75000J0D01*
G01*
G37*
G36*
G01*
X137100000Y-97400000D02*
X135775000Y-97400000D01*
G75*
G02*
X135700000Y-97325000I0J75000D01*
G01*
X135700000Y-97175000D01*
G75*
G02*
X135775000Y-97100000I75000J0D01*
G01*
X137100000Y-97100000D01*
G75*
G02*
X137175000Y-97175000I0J-75000D01*
G01*
X137175000Y-97325000D01*
G75*
G02*
X137100000Y-97400000I-75000J0D01*
G01*
G37*
G36*
G01*
X137100000Y-97900000D02*
X135775000Y-97900000D01*
G75*
G02*
X135700000Y-97825000I0J75000D01*
G01*
X135700000Y-97675000D01*
G75*
G02*
X135775000Y-97600000I75000J0D01*
G01*
X137100000Y-97600000D01*
G75*
G02*
X137175000Y-97675000I0J-75000D01*
G01*
X137175000Y-97825000D01*
G75*
G02*
X137100000Y-97900000I-75000J0D01*
G01*
G37*
G36*
G01*
X137100000Y-98400000D02*
X135775000Y-98400000D01*
G75*
G02*
X135700000Y-98325000I0J75000D01*
G01*
X135700000Y-98175000D01*
G75*
G02*
X135775000Y-98100000I75000J0D01*
G01*
X137100000Y-98100000D01*
G75*
G02*
X137175000Y-98175000I0J-75000D01*
G01*
X137175000Y-98325000D01*
G75*
G02*
X137100000Y-98400000I-75000J0D01*
G01*
G37*
G36*
G01*
X137100000Y-98900000D02*
X135775000Y-98900000D01*
G75*
G02*
X135700000Y-98825000I0J75000D01*
G01*
X135700000Y-98675000D01*
G75*
G02*
X135775000Y-98600000I75000J0D01*
G01*
X137100000Y-98600000D01*
G75*
G02*
X137175000Y-98675000I0J-75000D01*
G01*
X137175000Y-98825000D01*
G75*
G02*
X137100000Y-98900000I-75000J0D01*
G01*
G37*
G36*
G01*
X137100000Y-99400000D02*
X135775000Y-99400000D01*
G75*
G02*
X135700000Y-99325000I0J75000D01*
G01*
X135700000Y-99175000D01*
G75*
G02*
X135775000Y-99100000I75000J0D01*
G01*
X137100000Y-99100000D01*
G75*
G02*
X137175000Y-99175000I0J-75000D01*
G01*
X137175000Y-99325000D01*
G75*
G02*
X137100000Y-99400000I-75000J0D01*
G01*
G37*
G36*
G01*
X137100000Y-99900000D02*
X135775000Y-99900000D01*
G75*
G02*
X135700000Y-99825000I0J75000D01*
G01*
X135700000Y-99675000D01*
G75*
G02*
X135775000Y-99600000I75000J0D01*
G01*
X137100000Y-99600000D01*
G75*
G02*
X137175000Y-99675000I0J-75000D01*
G01*
X137175000Y-99825000D01*
G75*
G02*
X137100000Y-99900000I-75000J0D01*
G01*
G37*
G36*
G01*
X137100000Y-100400000D02*
X135775000Y-100400000D01*
G75*
G02*
X135700000Y-100325000I0J75000D01*
G01*
X135700000Y-100175000D01*
G75*
G02*
X135775000Y-100100000I75000J0D01*
G01*
X137100000Y-100100000D01*
G75*
G02*
X137175000Y-100175000I0J-75000D01*
G01*
X137175000Y-100325000D01*
G75*
G02*
X137100000Y-100400000I-75000J0D01*
G01*
G37*
G36*
G01*
X137100000Y-100900000D02*
X135775000Y-100900000D01*
G75*
G02*
X135700000Y-100825000I0J75000D01*
G01*
X135700000Y-100675000D01*
G75*
G02*
X135775000Y-100600000I75000J0D01*
G01*
X137100000Y-100600000D01*
G75*
G02*
X137175000Y-100675000I0J-75000D01*
G01*
X137175000Y-100825000D01*
G75*
G02*
X137100000Y-100900000I-75000J0D01*
G01*
G37*
G36*
G01*
X137100000Y-101400000D02*
X135775000Y-101400000D01*
G75*
G02*
X135700000Y-101325000I0J75000D01*
G01*
X135700000Y-101175000D01*
G75*
G02*
X135775000Y-101100000I75000J0D01*
G01*
X137100000Y-101100000D01*
G75*
G02*
X137175000Y-101175000I0J-75000D01*
G01*
X137175000Y-101325000D01*
G75*
G02*
X137100000Y-101400000I-75000J0D01*
G01*
G37*
G36*
G01*
X137100000Y-101900000D02*
X135775000Y-101900000D01*
G75*
G02*
X135700000Y-101825000I0J75000D01*
G01*
X135700000Y-101675000D01*
G75*
G02*
X135775000Y-101600000I75000J0D01*
G01*
X137100000Y-101600000D01*
G75*
G02*
X137175000Y-101675000I0J-75000D01*
G01*
X137175000Y-101825000D01*
G75*
G02*
X137100000Y-101900000I-75000J0D01*
G01*
G37*
G36*
G01*
X137100000Y-102400000D02*
X135775000Y-102400000D01*
G75*
G02*
X135700000Y-102325000I0J75000D01*
G01*
X135700000Y-102175000D01*
G75*
G02*
X135775000Y-102100000I75000J0D01*
G01*
X137100000Y-102100000D01*
G75*
G02*
X137175000Y-102175000I0J-75000D01*
G01*
X137175000Y-102325000D01*
G75*
G02*
X137100000Y-102400000I-75000J0D01*
G01*
G37*
G36*
G01*
X137100000Y-102900000D02*
X135775000Y-102900000D01*
G75*
G02*
X135700000Y-102825000I0J75000D01*
G01*
X135700000Y-102675000D01*
G75*
G02*
X135775000Y-102600000I75000J0D01*
G01*
X137100000Y-102600000D01*
G75*
G02*
X137175000Y-102675000I0J-75000D01*
G01*
X137175000Y-102825000D01*
G75*
G02*
X137100000Y-102900000I-75000J0D01*
G01*
G37*
%TD*%
%TO.C,U4*%
G36*
G01*
X134800000Y-102825000D02*
X134800000Y-103025000D01*
G75*
G02*
X134700000Y-103125000I-100000J0D01*
G01*
X133425000Y-103125000D01*
G75*
G02*
X133325000Y-103025000I0J100000D01*
G01*
X133325000Y-102825000D01*
G75*
G02*
X133425000Y-102725000I100000J0D01*
G01*
X134700000Y-102725000D01*
G75*
G02*
X134800000Y-102825000I0J-100000D01*
G01*
G37*
G36*
G01*
X134800000Y-102175000D02*
X134800000Y-102375000D01*
G75*
G02*
X134700000Y-102475000I-100000J0D01*
G01*
X133425000Y-102475000D01*
G75*
G02*
X133325000Y-102375000I0J100000D01*
G01*
X133325000Y-102175000D01*
G75*
G02*
X133425000Y-102075000I100000J0D01*
G01*
X134700000Y-102075000D01*
G75*
G02*
X134800000Y-102175000I0J-100000D01*
G01*
G37*
G36*
G01*
X134800000Y-101525000D02*
X134800000Y-101725000D01*
G75*
G02*
X134700000Y-101825000I-100000J0D01*
G01*
X133425000Y-101825000D01*
G75*
G02*
X133325000Y-101725000I0J100000D01*
G01*
X133325000Y-101525000D01*
G75*
G02*
X133425000Y-101425000I100000J0D01*
G01*
X134700000Y-101425000D01*
G75*
G02*
X134800000Y-101525000I0J-100000D01*
G01*
G37*
G36*
G01*
X134800000Y-100875000D02*
X134800000Y-101075000D01*
G75*
G02*
X134700000Y-101175000I-100000J0D01*
G01*
X133425000Y-101175000D01*
G75*
G02*
X133325000Y-101075000I0J100000D01*
G01*
X133325000Y-100875000D01*
G75*
G02*
X133425000Y-100775000I100000J0D01*
G01*
X134700000Y-100775000D01*
G75*
G02*
X134800000Y-100875000I0J-100000D01*
G01*
G37*
G36*
G01*
X134800000Y-100225000D02*
X134800000Y-100425000D01*
G75*
G02*
X134700000Y-100525000I-100000J0D01*
G01*
X133425000Y-100525000D01*
G75*
G02*
X133325000Y-100425000I0J100000D01*
G01*
X133325000Y-100225000D01*
G75*
G02*
X133425000Y-100125000I100000J0D01*
G01*
X134700000Y-100125000D01*
G75*
G02*
X134800000Y-100225000I0J-100000D01*
G01*
G37*
G36*
G01*
X134800000Y-99575000D02*
X134800000Y-99775000D01*
G75*
G02*
X134700000Y-99875000I-100000J0D01*
G01*
X133425000Y-99875000D01*
G75*
G02*
X133325000Y-99775000I0J100000D01*
G01*
X133325000Y-99575000D01*
G75*
G02*
X133425000Y-99475000I100000J0D01*
G01*
X134700000Y-99475000D01*
G75*
G02*
X134800000Y-99575000I0J-100000D01*
G01*
G37*
G36*
G01*
X134800000Y-98925000D02*
X134800000Y-99125000D01*
G75*
G02*
X134700000Y-99225000I-100000J0D01*
G01*
X133425000Y-99225000D01*
G75*
G02*
X133325000Y-99125000I0J100000D01*
G01*
X133325000Y-98925000D01*
G75*
G02*
X133425000Y-98825000I100000J0D01*
G01*
X134700000Y-98825000D01*
G75*
G02*
X134800000Y-98925000I0J-100000D01*
G01*
G37*
G36*
G01*
X134800000Y-98275000D02*
X134800000Y-98475000D01*
G75*
G02*
X134700000Y-98575000I-100000J0D01*
G01*
X133425000Y-98575000D01*
G75*
G02*
X133325000Y-98475000I0J100000D01*
G01*
X133325000Y-98275000D01*
G75*
G02*
X133425000Y-98175000I100000J0D01*
G01*
X134700000Y-98175000D01*
G75*
G02*
X134800000Y-98275000I0J-100000D01*
G01*
G37*
G36*
G01*
X134800000Y-97625000D02*
X134800000Y-97825000D01*
G75*
G02*
X134700000Y-97925000I-100000J0D01*
G01*
X133425000Y-97925000D01*
G75*
G02*
X133325000Y-97825000I0J100000D01*
G01*
X133325000Y-97625000D01*
G75*
G02*
X133425000Y-97525000I100000J0D01*
G01*
X134700000Y-97525000D01*
G75*
G02*
X134800000Y-97625000I0J-100000D01*
G01*
G37*
G36*
G01*
X134800000Y-96975000D02*
X134800000Y-97175000D01*
G75*
G02*
X134700000Y-97275000I-100000J0D01*
G01*
X133425000Y-97275000D01*
G75*
G02*
X133325000Y-97175000I0J100000D01*
G01*
X133325000Y-96975000D01*
G75*
G02*
X133425000Y-96875000I100000J0D01*
G01*
X134700000Y-96875000D01*
G75*
G02*
X134800000Y-96975000I0J-100000D01*
G01*
G37*
G36*
G01*
X129075000Y-96975000D02*
X129075000Y-97175000D01*
G75*
G02*
X128975000Y-97275000I-100000J0D01*
G01*
X127700000Y-97275000D01*
G75*
G02*
X127600000Y-97175000I0J100000D01*
G01*
X127600000Y-96975000D01*
G75*
G02*
X127700000Y-96875000I100000J0D01*
G01*
X128975000Y-96875000D01*
G75*
G02*
X129075000Y-96975000I0J-100000D01*
G01*
G37*
G36*
G01*
X129075000Y-97625000D02*
X129075000Y-97825000D01*
G75*
G02*
X128975000Y-97925000I-100000J0D01*
G01*
X127700000Y-97925000D01*
G75*
G02*
X127600000Y-97825000I0J100000D01*
G01*
X127600000Y-97625000D01*
G75*
G02*
X127700000Y-97525000I100000J0D01*
G01*
X128975000Y-97525000D01*
G75*
G02*
X129075000Y-97625000I0J-100000D01*
G01*
G37*
G36*
G01*
X129075000Y-98275000D02*
X129075000Y-98475000D01*
G75*
G02*
X128975000Y-98575000I-100000J0D01*
G01*
X127700000Y-98575000D01*
G75*
G02*
X127600000Y-98475000I0J100000D01*
G01*
X127600000Y-98275000D01*
G75*
G02*
X127700000Y-98175000I100000J0D01*
G01*
X128975000Y-98175000D01*
G75*
G02*
X129075000Y-98275000I0J-100000D01*
G01*
G37*
G36*
G01*
X129075000Y-98925000D02*
X129075000Y-99125000D01*
G75*
G02*
X128975000Y-99225000I-100000J0D01*
G01*
X127700000Y-99225000D01*
G75*
G02*
X127600000Y-99125000I0J100000D01*
G01*
X127600000Y-98925000D01*
G75*
G02*
X127700000Y-98825000I100000J0D01*
G01*
X128975000Y-98825000D01*
G75*
G02*
X129075000Y-98925000I0J-100000D01*
G01*
G37*
G36*
G01*
X129075000Y-99575000D02*
X129075000Y-99775000D01*
G75*
G02*
X128975000Y-99875000I-100000J0D01*
G01*
X127700000Y-99875000D01*
G75*
G02*
X127600000Y-99775000I0J100000D01*
G01*
X127600000Y-99575000D01*
G75*
G02*
X127700000Y-99475000I100000J0D01*
G01*
X128975000Y-99475000D01*
G75*
G02*
X129075000Y-99575000I0J-100000D01*
G01*
G37*
G36*
G01*
X129075000Y-100225000D02*
X129075000Y-100425000D01*
G75*
G02*
X128975000Y-100525000I-100000J0D01*
G01*
X127700000Y-100525000D01*
G75*
G02*
X127600000Y-100425000I0J100000D01*
G01*
X127600000Y-100225000D01*
G75*
G02*
X127700000Y-100125000I100000J0D01*
G01*
X128975000Y-100125000D01*
G75*
G02*
X129075000Y-100225000I0J-100000D01*
G01*
G37*
G36*
G01*
X129075000Y-100875000D02*
X129075000Y-101075000D01*
G75*
G02*
X128975000Y-101175000I-100000J0D01*
G01*
X127700000Y-101175000D01*
G75*
G02*
X127600000Y-101075000I0J100000D01*
G01*
X127600000Y-100875000D01*
G75*
G02*
X127700000Y-100775000I100000J0D01*
G01*
X128975000Y-100775000D01*
G75*
G02*
X129075000Y-100875000I0J-100000D01*
G01*
G37*
G36*
G01*
X129075000Y-101525000D02*
X129075000Y-101725000D01*
G75*
G02*
X128975000Y-101825000I-100000J0D01*
G01*
X127700000Y-101825000D01*
G75*
G02*
X127600000Y-101725000I0J100000D01*
G01*
X127600000Y-101525000D01*
G75*
G02*
X127700000Y-101425000I100000J0D01*
G01*
X128975000Y-101425000D01*
G75*
G02*
X129075000Y-101525000I0J-100000D01*
G01*
G37*
G36*
G01*
X129075000Y-102175000D02*
X129075000Y-102375000D01*
G75*
G02*
X128975000Y-102475000I-100000J0D01*
G01*
X127700000Y-102475000D01*
G75*
G02*
X127600000Y-102375000I0J100000D01*
G01*
X127600000Y-102175000D01*
G75*
G02*
X127700000Y-102075000I100000J0D01*
G01*
X128975000Y-102075000D01*
G75*
G02*
X129075000Y-102175000I0J-100000D01*
G01*
G37*
G36*
G01*
X129075000Y-102825000D02*
X129075000Y-103025000D01*
G75*
G02*
X128975000Y-103125000I-100000J0D01*
G01*
X127700000Y-103125000D01*
G75*
G02*
X127600000Y-103025000I0J100000D01*
G01*
X127600000Y-102825000D01*
G75*
G02*
X127700000Y-102725000I100000J0D01*
G01*
X128975000Y-102725000D01*
G75*
G02*
X129075000Y-102825000I0J-100000D01*
G01*
G37*
%TD*%
D13*
%TO.C,U5*%
X141895000Y-106220000D03*
X143845000Y-107820000D03*
X143195000Y-107820000D03*
X142545000Y-107820000D03*
X143845000Y-106220000D03*
X143195000Y-106220000D03*
X142545000Y-106220000D03*
X141895000Y-107820000D03*
%TD*%
%TO.C,R1*%
G36*
G01*
X134835000Y-108065000D02*
X134285000Y-108065000D01*
G75*
G02*
X134085000Y-107865000I0J200000D01*
G01*
X134085000Y-107465000D01*
G75*
G02*
X134285000Y-107265000I200000J0D01*
G01*
X134835000Y-107265000D01*
G75*
G02*
X135035000Y-107465000I0J-200000D01*
G01*
X135035000Y-107865000D01*
G75*
G02*
X134835000Y-108065000I-200000J0D01*
G01*
G37*
G36*
G01*
X134835000Y-106415000D02*
X134285000Y-106415000D01*
G75*
G02*
X134085000Y-106215000I0J200000D01*
G01*
X134085000Y-105815000D01*
G75*
G02*
X134285000Y-105615000I200000J0D01*
G01*
X134835000Y-105615000D01*
G75*
G02*
X135035000Y-105815000I0J-200000D01*
G01*
X135035000Y-106215000D01*
G75*
G02*
X134835000Y-106415000I-200000J0D01*
G01*
G37*
%TD*%
%TO.C,C2*%
G36*
G01*
X131525000Y-104500000D02*
X131525000Y-104000000D01*
G75*
G02*
X131750000Y-103775000I225000J0D01*
G01*
X132200000Y-103775000D01*
G75*
G02*
X132425000Y-104000000I0J-225000D01*
G01*
X132425000Y-104500000D01*
G75*
G02*
X132200000Y-104725000I-225000J0D01*
G01*
X131750000Y-104725000D01*
G75*
G02*
X131525000Y-104500000I0J225000D01*
G01*
G37*
G36*
G01*
X129975000Y-104500000D02*
X129975000Y-104000000D01*
G75*
G02*
X130200000Y-103775000I225000J0D01*
G01*
X130650000Y-103775000D01*
G75*
G02*
X130875000Y-104000000I0J-225000D01*
G01*
X130875000Y-104500000D01*
G75*
G02*
X130650000Y-104725000I-225000J0D01*
G01*
X130200000Y-104725000D01*
G75*
G02*
X129975000Y-104500000I0J225000D01*
G01*
G37*
%TD*%
%TO.C,C9*%
G36*
G01*
X137155000Y-95230000D02*
X137155000Y-95730000D01*
G75*
G02*
X136930000Y-95955000I-225000J0D01*
G01*
X136480000Y-95955000D01*
G75*
G02*
X136255000Y-95730000I0J225000D01*
G01*
X136255000Y-95230000D01*
G75*
G02*
X136480000Y-95005000I225000J0D01*
G01*
X136930000Y-95005000D01*
G75*
G02*
X137155000Y-95230000I0J-225000D01*
G01*
G37*
G36*
G01*
X135605000Y-95230000D02*
X135605000Y-95730000D01*
G75*
G02*
X135380000Y-95955000I-225000J0D01*
G01*
X134930000Y-95955000D01*
G75*
G02*
X134705000Y-95730000I0J225000D01*
G01*
X134705000Y-95230000D01*
G75*
G02*
X134930000Y-95005000I225000J0D01*
G01*
X135380000Y-95005000D01*
G75*
G02*
X135605000Y-95230000I0J-225000D01*
G01*
G37*
%TD*%
%TO.C,C10*%
G36*
G01*
X132425000Y-95490000D02*
X132425000Y-95990000D01*
G75*
G02*
X132200000Y-96215000I-225000J0D01*
G01*
X131750000Y-96215000D01*
G75*
G02*
X131525000Y-95990000I0J225000D01*
G01*
X131525000Y-95490000D01*
G75*
G02*
X131750000Y-95265000I225000J0D01*
G01*
X132200000Y-95265000D01*
G75*
G02*
X132425000Y-95490000I0J-225000D01*
G01*
G37*
G36*
G01*
X130875000Y-95490000D02*
X130875000Y-95990000D01*
G75*
G02*
X130650000Y-96215000I-225000J0D01*
G01*
X130200000Y-96215000D01*
G75*
G02*
X129975000Y-95990000I0J225000D01*
G01*
X129975000Y-95490000D01*
G75*
G02*
X130200000Y-95265000I225000J0D01*
G01*
X130650000Y-95265000D01*
G75*
G02*
X130875000Y-95490000I0J-225000D01*
G01*
G37*
%TD*%
%TO.C,C11*%
G36*
G01*
X145370000Y-95015000D02*
X144870000Y-95015000D01*
G75*
G02*
X144645000Y-94790000I0J225000D01*
G01*
X144645000Y-94340000D01*
G75*
G02*
X144870000Y-94115000I225000J0D01*
G01*
X145370000Y-94115000D01*
G75*
G02*
X145595000Y-94340000I0J-225000D01*
G01*
X145595000Y-94790000D01*
G75*
G02*
X145370000Y-95015000I-225000J0D01*
G01*
G37*
G36*
G01*
X145370000Y-96565000D02*
X144870000Y-96565000D01*
G75*
G02*
X144645000Y-96340000I0J225000D01*
G01*
X144645000Y-95890000D01*
G75*
G02*
X144870000Y-95665000I225000J0D01*
G01*
X145370000Y-95665000D01*
G75*
G02*
X145595000Y-95890000I0J-225000D01*
G01*
X145595000Y-96340000D01*
G75*
G02*
X145370000Y-96565000I-225000J0D01*
G01*
G37*
%TD*%
%TO.C,C12*%
G36*
G01*
X136575000Y-104010000D02*
X136575000Y-104510000D01*
G75*
G02*
X136350000Y-104735000I-225000J0D01*
G01*
X135900000Y-104735000D01*
G75*
G02*
X135675000Y-104510000I0J225000D01*
G01*
X135675000Y-104010000D01*
G75*
G02*
X135900000Y-103785000I225000J0D01*
G01*
X136350000Y-103785000D01*
G75*
G02*
X136575000Y-104010000I0J-225000D01*
G01*
G37*
G36*
G01*
X135025000Y-104010000D02*
X135025000Y-104510000D01*
G75*
G02*
X134800000Y-104735000I-225000J0D01*
G01*
X134350000Y-104735000D01*
G75*
G02*
X134125000Y-104510000I0J225000D01*
G01*
X134125000Y-104010000D01*
G75*
G02*
X134350000Y-103785000I225000J0D01*
G01*
X134800000Y-103785000D01*
G75*
G02*
X135025000Y-104010000I0J-225000D01*
G01*
G37*
%TD*%
%TO.C,FB1*%
G36*
G01*
X130091250Y-94150000D02*
X129328750Y-94150000D01*
G75*
G02*
X129110000Y-93931250I0J218750D01*
G01*
X129110000Y-93493750D01*
G75*
G02*
X129328750Y-93275000I218750J0D01*
G01*
X130091250Y-93275000D01*
G75*
G02*
X130310000Y-93493750I0J-218750D01*
G01*
X130310000Y-93931250D01*
G75*
G02*
X130091250Y-94150000I-218750J0D01*
G01*
G37*
G36*
G01*
X130091250Y-92025000D02*
X129328750Y-92025000D01*
G75*
G02*
X129110000Y-91806250I0J218750D01*
G01*
X129110000Y-91368750D01*
G75*
G02*
X129328750Y-91150000I218750J0D01*
G01*
X130091250Y-91150000D01*
G75*
G02*
X130310000Y-91368750I0J-218750D01*
G01*
X130310000Y-91806250D01*
G75*
G02*
X130091250Y-92025000I-218750J0D01*
G01*
G37*
%TD*%
D14*
%TO.C,TP1*%
X146200000Y-91500000D03*
%TD*%
%TO.C,TP2*%
X143600000Y-91500000D03*
%TD*%
%TO.C,TP3*%
X141000000Y-91500000D03*
%TD*%
%TO.C,R2*%
G36*
G01*
X139325000Y-108065000D02*
X138775000Y-108065000D01*
G75*
G02*
X138575000Y-107865000I0J200000D01*
G01*
X138575000Y-107465000D01*
G75*
G02*
X138775000Y-107265000I200000J0D01*
G01*
X139325000Y-107265000D01*
G75*
G02*
X139525000Y-107465000I0J-200000D01*
G01*
X139525000Y-107865000D01*
G75*
G02*
X139325000Y-108065000I-200000J0D01*
G01*
G37*
G36*
G01*
X139325000Y-106415000D02*
X138775000Y-106415000D01*
G75*
G02*
X138575000Y-106215000I0J200000D01*
G01*
X138575000Y-105815000D01*
G75*
G02*
X138775000Y-105615000I200000J0D01*
G01*
X139325000Y-105615000D01*
G75*
G02*
X139525000Y-105815000I0J-200000D01*
G01*
X139525000Y-106215000D01*
G75*
G02*
X139325000Y-106415000I-200000J0D01*
G01*
G37*
%TD*%
%TO.C,R3*%
G36*
G01*
X137825000Y-106415000D02*
X137275000Y-106415000D01*
G75*
G02*
X137075000Y-106215000I0J200000D01*
G01*
X137075000Y-105815000D01*
G75*
G02*
X137275000Y-105615000I200000J0D01*
G01*
X137825000Y-105615000D01*
G75*
G02*
X138025000Y-105815000I0J-200000D01*
G01*
X138025000Y-106215000D01*
G75*
G02*
X137825000Y-106415000I-200000J0D01*
G01*
G37*
G36*
G01*
X137825000Y-108065000D02*
X137275000Y-108065000D01*
G75*
G02*
X137075000Y-107865000I0J200000D01*
G01*
X137075000Y-107465000D01*
G75*
G02*
X137275000Y-107265000I200000J0D01*
G01*
X137825000Y-107265000D01*
G75*
G02*
X138025000Y-107465000I0J-200000D01*
G01*
X138025000Y-107865000D01*
G75*
G02*
X137825000Y-108065000I-200000J0D01*
G01*
G37*
%TD*%
M02*
