M48
; DRILL file {KiCad 5.1.8-db9833491~87~ubuntu20.04.1} date Thu Nov  5 18:06:55 2020
; FORMAT={-:-/ absolute / inch / decimal}
; #@! TF.CreationDate,2020-11-05T18:06:55+01:00
; #@! TF.GenerationSoftware,Kicad,Pcbnew,5.1.8-db9833491~87~ubuntu20.04.1
; #@! TF.FileFunction,Plated,1,4,PTH
FMAT,2
INCH
T1C0.0157
T2C0.0197
T3C0.0394
%
G90
G05
T1
X5.0226Y-4.1374
X5.024Y-3.7366
X5.0248Y-3.8366
X5.0291Y-4.0374
X5.0303Y-4.2366
X5.0413Y-3.637
X5.0953Y-3.6319
X5.0953Y-4.1437
X5.1396Y-4.2988
X5.1453Y-3.5547
X5.1953Y-3.5547
X5.2Y-3.9272
X5.2006Y-4.2988
X5.2067Y-4.0516
X5.2453Y-3.5547
X5.2465Y-4.3201
X5.2657Y-3.8228
X5.2756Y-4.0531
X5.2953Y-3.5547
X5.2953Y-4.3193
X5.3046Y-3.8224
X5.3248Y-3.8543
X5.3346Y-4.0531
X5.3453Y-3.5547
X5.3453Y-4.3197
X5.3642Y-3.8543
X5.374Y-4.0524
X5.3772Y-4.2768
X5.3953Y-3.5547
X5.4035Y-3.8543
X5.4134Y-4.0524
X5.4232Y-3.8228
X5.4295Y-3.9854
X5.4299Y-3.9469
X5.4453Y-3.5547
X5.452Y-4.1016
X5.465Y-4.2453
X5.4689Y-3.7972
X5.4799Y-4.2079
X5.5626Y-4.1311
X5.5764Y-4.0953
X5.5854Y-4.0049
X5.5854Y-4.2843
X5.6154Y-4.1496
X5.6299Y-4.1929
X5.6303Y-3.6811
X5.6661Y-4.2476
X5.7154Y-3.8031
X5.7154Y-3.8425
X5.7154Y-4.0311
X5.7154Y-4.1102
X5.7154Y-3.7638
X5.7157Y-4.0705
X5.7157Y-3.7303
X5.7331Y-4.2417
X5.7646Y-3.7303
X5.7932Y-4.3052
X5.7953Y-3.5713
X5.7953Y-4.2445
T2
X5.5441Y-3.5709
X5.5441Y-3.6102
X5.5441Y-3.6496
X5.5441Y-3.689
T3
X4.7406Y-3.587
X4.7406Y-3.687
X4.7406Y-3.787
X4.7406Y-3.887
X4.7406Y-3.987
X4.7406Y-4.087
X4.7406Y-4.187
X4.7406Y-4.287
X4.8406Y-3.587
X4.8406Y-3.687
X4.8406Y-3.787
X4.8406Y-3.887
X4.8406Y-3.987
X4.8406Y-4.087
X4.8406Y-4.187
X4.8406Y-4.287
X4.9406Y-3.587
X4.9406Y-3.687
X4.9406Y-3.787
X4.9406Y-3.887
X4.9406Y-3.987
X4.9406Y-4.087
X4.9406Y-4.187
X4.9406Y-4.287
T0
M30
