%TF.GenerationSoftware,KiCad,Pcbnew,5.1.8-db9833491~87~ubuntu20.04.1*%
%TF.CreationDate,2020-11-05T18:06:58+01:00*%
%TF.ProjectId,rosalyn-rx,726f7361-6c79-46e2-9d72-782e6b696361,v1.0*%
%TF.SameCoordinates,Original*%
%TF.FileFunction,Copper,L4,Bot*%
%TF.FilePolarity,Positive*%
%FSLAX46Y46*%
G04 Gerber Fmt 4.6, Leading zero omitted, Abs format (unit mm)*
G04 Created by KiCad (PCBNEW 5.1.8-db9833491~87~ubuntu20.04.1) date 2020-11-05 18:06:58*
%MOMM*%
%LPD*%
G01*
G04 APERTURE LIST*
%TA.AperFunction,ComponentPad*%
%ADD10O,1.700000X1.700000*%
%TD*%
%TA.AperFunction,ComponentPad*%
%ADD11R,1.700000X1.700000*%
%TD*%
%TA.AperFunction,SMDPad,CuDef*%
%ADD12R,0.750000X1.500000*%
%TD*%
%TA.AperFunction,ComponentPad*%
%ADD13R,0.850000X0.650000*%
%TD*%
%TA.AperFunction,ViaPad*%
%ADD14C,0.600000*%
%TD*%
%TA.AperFunction,ViaPad*%
%ADD15C,0.800000*%
%TD*%
%TA.AperFunction,Conductor*%
%ADD16C,0.200000*%
%TD*%
%TA.AperFunction,Conductor*%
%ADD17C,0.250000*%
%TD*%
%TA.AperFunction,Conductor*%
%ADD18C,0.500000*%
%TD*%
G04 APERTURE END LIST*
D10*
%TO.P,J4,10*%
%TO.N,+5V*%
X120410000Y-108890000D03*
X120410000Y-91110000D03*
X120410000Y-106350000D03*
X120410000Y-103810000D03*
X120410000Y-101270000D03*
X120410000Y-98730000D03*
X120410000Y-96190000D03*
X120410000Y-93650000D03*
%TO.P,J4,9*%
%TO.N,GND*%
X122950000Y-91110000D03*
X122950000Y-93650000D03*
X122950000Y-96190000D03*
X122950000Y-98730000D03*
X122950000Y-101270000D03*
X122950000Y-103810000D03*
X122950000Y-106350000D03*
X122950000Y-108890000D03*
D11*
%TO.P,J4,1*%
%TO.N,pwm_ch1*%
X125490000Y-91110000D03*
D10*
%TO.P,J4,2*%
%TO.N,pwm_ch2*%
X125490000Y-93650000D03*
%TO.P,J4,3*%
%TO.N,pwm_ch3*%
X125490000Y-96190000D03*
%TO.P,J4,4*%
%TO.N,pwm_ch4*%
X125490000Y-98730000D03*
%TO.P,J4,5*%
%TO.N,pwm_ch5*%
X125490000Y-101270000D03*
%TO.P,J4,6*%
%TO.N,pwm_ch6*%
X125490000Y-103810000D03*
%TO.P,J4,7*%
%TO.N,pwm_ch7*%
X125490000Y-106350000D03*
%TO.P,J4,8*%
%TO.N,pwm_ch8*%
X125490000Y-108890000D03*
%TD*%
D12*
%TO.P,U2,22*%
%TO.N,GND*%
X146420000Y-93500000D03*
%TO.P,U2,21*%
%TO.N,N/C*%
X145150000Y-93500000D03*
%TO.P,U2,20*%
%TO.N,GND*%
X143880000Y-93500000D03*
%TO.P,U2,19*%
%TO.N,Net-(R1-Pad1)*%
X138310000Y-93500000D03*
%TO.P,U2,18*%
%TO.N,Net-(R2-Pad1)*%
X137040000Y-93500000D03*
%TO.P,U2,17*%
%TO.N,Net-(R4-Pad1)*%
X135770000Y-93500000D03*
%TO.P,U2,16*%
%TO.N,Net-(R3-Pad1)*%
X134500000Y-93500000D03*
%TO.P,U2,15*%
%TO.N,Net-(R10-Pad2)*%
X133230000Y-93500000D03*
%TO.P,U2,14*%
%TO.N,Net-(R9-Pad2)*%
X131960000Y-93500000D03*
%TO.P,U2,13*%
%TO.N,Net-(R7-Pad2)*%
X130690000Y-93500000D03*
%TO.P,U2,12*%
%TO.N,GND*%
X129420000Y-93500000D03*
%TO.P,U2,11*%
X129420000Y-106500000D03*
%TO.P,U2,10*%
X130690000Y-106500000D03*
%TO.P,U2,9*%
%TO.N,+3V3*%
X131960000Y-106500000D03*
%TO.P,U2,8*%
%TO.N,Net-(R8-Pad2)*%
X133230000Y-106500000D03*
%TO.P,U2,7*%
%TO.N,Net-(R6-Pad2)*%
X134500000Y-106500000D03*
%TO.P,U2,6*%
%TO.N,Net-(R5-Pad2)*%
X135770000Y-106500000D03*
%TO.P,U2,5*%
%TO.N,GND*%
X137040000Y-106500000D03*
%TO.P,U2,4*%
X138310000Y-106500000D03*
%TO.P,U2,3*%
X143880000Y-106500000D03*
%TO.P,U2,2*%
X145150000Y-106500000D03*
%TO.P,U2,1*%
X146420000Y-106500000D03*
%TD*%
%TO.P,J1,4*%
%TO.N,swim*%
%TA.AperFunction,ComponentPad*%
G36*
G01*
X141245000Y-90537500D02*
X141245000Y-90862500D01*
G75*
G02*
X141082500Y-91025000I-162500J0D01*
G01*
X140557500Y-91025000D01*
G75*
G02*
X140395000Y-90862500I0J162500D01*
G01*
X140395000Y-90537500D01*
G75*
G02*
X140557500Y-90375000I162500J0D01*
G01*
X141082500Y-90375000D01*
G75*
G02*
X141245000Y-90537500I0J-162500D01*
G01*
G37*
%TD.AperFunction*%
%TO.P,J1,3*%
%TO.N,nrst*%
%TA.AperFunction,ComponentPad*%
G36*
G01*
X141245000Y-91537500D02*
X141245000Y-91862500D01*
G75*
G02*
X141082500Y-92025000I-162500J0D01*
G01*
X140557500Y-92025000D01*
G75*
G02*
X140395000Y-91862500I0J162500D01*
G01*
X140395000Y-91537500D01*
G75*
G02*
X140557500Y-91375000I162500J0D01*
G01*
X141082500Y-91375000D01*
G75*
G02*
X141245000Y-91537500I0J-162500D01*
G01*
G37*
%TD.AperFunction*%
%TO.P,J1,2*%
%TO.N,GND*%
%TA.AperFunction,ComponentPad*%
G36*
G01*
X141245000Y-92537500D02*
X141245000Y-92862500D01*
G75*
G02*
X141082500Y-93025000I-162500J0D01*
G01*
X140557500Y-93025000D01*
G75*
G02*
X140395000Y-92862500I0J162500D01*
G01*
X140395000Y-92537500D01*
G75*
G02*
X140557500Y-92375000I162500J0D01*
G01*
X141082500Y-92375000D01*
G75*
G02*
X141245000Y-92537500I0J-162500D01*
G01*
G37*
%TD.AperFunction*%
D13*
%TO.P,J1,1*%
%TO.N,+5V*%
X140820000Y-93700000D03*
%TD*%
%TO.P,C1,2*%
%TO.N,GND*%
%TA.AperFunction,SMDPad,CuDef*%
G36*
G01*
X130975000Y-107960000D02*
X130975000Y-108460000D01*
G75*
G02*
X130750000Y-108685000I-225000J0D01*
G01*
X130300000Y-108685000D01*
G75*
G02*
X130075000Y-108460000I0J225000D01*
G01*
X130075000Y-107960000D01*
G75*
G02*
X130300000Y-107735000I225000J0D01*
G01*
X130750000Y-107735000D01*
G75*
G02*
X130975000Y-107960000I0J-225000D01*
G01*
G37*
%TD.AperFunction*%
%TO.P,C1,1*%
%TO.N,+3V3*%
%TA.AperFunction,SMDPad,CuDef*%
G36*
G01*
X132525000Y-107960000D02*
X132525000Y-108460000D01*
G75*
G02*
X132300000Y-108685000I-225000J0D01*
G01*
X131850000Y-108685000D01*
G75*
G02*
X131625000Y-108460000I0J225000D01*
G01*
X131625000Y-107960000D01*
G75*
G02*
X131850000Y-107735000I225000J0D01*
G01*
X132300000Y-107735000D01*
G75*
G02*
X132525000Y-107960000I0J-225000D01*
G01*
G37*
%TD.AperFunction*%
%TD*%
%TO.P,R10,2*%
%TO.N,Net-(R10-Pad2)*%
%TA.AperFunction,SMDPad,CuDef*%
G36*
G01*
X133045000Y-91810000D02*
X133415000Y-91810000D01*
G75*
G02*
X133550000Y-91945000I0J-135000D01*
G01*
X133550000Y-92215000D01*
G75*
G02*
X133415000Y-92350000I-135000J0D01*
G01*
X133045000Y-92350000D01*
G75*
G02*
X132910000Y-92215000I0J135000D01*
G01*
X132910000Y-91945000D01*
G75*
G02*
X133045000Y-91810000I135000J0D01*
G01*
G37*
%TD.AperFunction*%
%TO.P,R10,1*%
%TO.N,e22_nrst*%
%TA.AperFunction,SMDPad,CuDef*%
G36*
G01*
X133045000Y-90790000D02*
X133415000Y-90790000D01*
G75*
G02*
X133550000Y-90925000I0J-135000D01*
G01*
X133550000Y-91195000D01*
G75*
G02*
X133415000Y-91330000I-135000J0D01*
G01*
X133045000Y-91330000D01*
G75*
G02*
X132910000Y-91195000I0J135000D01*
G01*
X132910000Y-90925000D01*
G75*
G02*
X133045000Y-90790000I135000J0D01*
G01*
G37*
%TD.AperFunction*%
%TD*%
%TO.P,R9,2*%
%TO.N,Net-(R9-Pad2)*%
%TA.AperFunction,SMDPad,CuDef*%
G36*
G01*
X131775000Y-91810000D02*
X132145000Y-91810000D01*
G75*
G02*
X132280000Y-91945000I0J-135000D01*
G01*
X132280000Y-92215000D01*
G75*
G02*
X132145000Y-92350000I-135000J0D01*
G01*
X131775000Y-92350000D01*
G75*
G02*
X131640000Y-92215000I0J135000D01*
G01*
X131640000Y-91945000D01*
G75*
G02*
X131775000Y-91810000I135000J0D01*
G01*
G37*
%TD.AperFunction*%
%TO.P,R9,1*%
%TO.N,e22_busy*%
%TA.AperFunction,SMDPad,CuDef*%
G36*
G01*
X131775000Y-90790000D02*
X132145000Y-90790000D01*
G75*
G02*
X132280000Y-90925000I0J-135000D01*
G01*
X132280000Y-91195000D01*
G75*
G02*
X132145000Y-91330000I-135000J0D01*
G01*
X131775000Y-91330000D01*
G75*
G02*
X131640000Y-91195000I0J135000D01*
G01*
X131640000Y-90925000D01*
G75*
G02*
X131775000Y-90790000I135000J0D01*
G01*
G37*
%TD.AperFunction*%
%TD*%
%TO.P,R8,2*%
%TO.N,Net-(R8-Pad2)*%
%TA.AperFunction,SMDPad,CuDef*%
G36*
G01*
X133445000Y-108210000D02*
X133075000Y-108210000D01*
G75*
G02*
X132940000Y-108075000I0J135000D01*
G01*
X132940000Y-107805000D01*
G75*
G02*
X133075000Y-107670000I135000J0D01*
G01*
X133445000Y-107670000D01*
G75*
G02*
X133580000Y-107805000I0J-135000D01*
G01*
X133580000Y-108075000D01*
G75*
G02*
X133445000Y-108210000I-135000J0D01*
G01*
G37*
%TD.AperFunction*%
%TO.P,R8,1*%
%TO.N,e22_dio2*%
%TA.AperFunction,SMDPad,CuDef*%
G36*
G01*
X133445000Y-109230000D02*
X133075000Y-109230000D01*
G75*
G02*
X132940000Y-109095000I0J135000D01*
G01*
X132940000Y-108825000D01*
G75*
G02*
X133075000Y-108690000I135000J0D01*
G01*
X133445000Y-108690000D01*
G75*
G02*
X133580000Y-108825000I0J-135000D01*
G01*
X133580000Y-109095000D01*
G75*
G02*
X133445000Y-109230000I-135000J0D01*
G01*
G37*
%TD.AperFunction*%
%TD*%
%TO.P,R7,2*%
%TO.N,Net-(R7-Pad2)*%
%TA.AperFunction,SMDPad,CuDef*%
G36*
G01*
X130505000Y-91810000D02*
X130875000Y-91810000D01*
G75*
G02*
X131010000Y-91945000I0J-135000D01*
G01*
X131010000Y-92215000D01*
G75*
G02*
X130875000Y-92350000I-135000J0D01*
G01*
X130505000Y-92350000D01*
G75*
G02*
X130370000Y-92215000I0J135000D01*
G01*
X130370000Y-91945000D01*
G75*
G02*
X130505000Y-91810000I135000J0D01*
G01*
G37*
%TD.AperFunction*%
%TO.P,R7,1*%
%TO.N,e22_dio1*%
%TA.AperFunction,SMDPad,CuDef*%
G36*
G01*
X130505000Y-90790000D02*
X130875000Y-90790000D01*
G75*
G02*
X131010000Y-90925000I0J-135000D01*
G01*
X131010000Y-91195000D01*
G75*
G02*
X130875000Y-91330000I-135000J0D01*
G01*
X130505000Y-91330000D01*
G75*
G02*
X130370000Y-91195000I0J135000D01*
G01*
X130370000Y-90925000D01*
G75*
G02*
X130505000Y-90790000I135000J0D01*
G01*
G37*
%TD.AperFunction*%
%TD*%
%TO.P,R6,2*%
%TO.N,Net-(R6-Pad2)*%
%TA.AperFunction,SMDPad,CuDef*%
G36*
G01*
X134685000Y-108190000D02*
X134315000Y-108190000D01*
G75*
G02*
X134180000Y-108055000I0J135000D01*
G01*
X134180000Y-107785000D01*
G75*
G02*
X134315000Y-107650000I135000J0D01*
G01*
X134685000Y-107650000D01*
G75*
G02*
X134820000Y-107785000I0J-135000D01*
G01*
X134820000Y-108055000D01*
G75*
G02*
X134685000Y-108190000I-135000J0D01*
G01*
G37*
%TD.AperFunction*%
%TO.P,R6,1*%
%TO.N,e22_txen*%
%TA.AperFunction,SMDPad,CuDef*%
G36*
G01*
X134685000Y-109210000D02*
X134315000Y-109210000D01*
G75*
G02*
X134180000Y-109075000I0J135000D01*
G01*
X134180000Y-108805000D01*
G75*
G02*
X134315000Y-108670000I135000J0D01*
G01*
X134685000Y-108670000D01*
G75*
G02*
X134820000Y-108805000I0J-135000D01*
G01*
X134820000Y-109075000D01*
G75*
G02*
X134685000Y-109210000I-135000J0D01*
G01*
G37*
%TD.AperFunction*%
%TD*%
%TO.P,R5,2*%
%TO.N,Net-(R5-Pad2)*%
%TA.AperFunction,SMDPad,CuDef*%
G36*
G01*
X135955000Y-108190000D02*
X135585000Y-108190000D01*
G75*
G02*
X135450000Y-108055000I0J135000D01*
G01*
X135450000Y-107785000D01*
G75*
G02*
X135585000Y-107650000I135000J0D01*
G01*
X135955000Y-107650000D01*
G75*
G02*
X136090000Y-107785000I0J-135000D01*
G01*
X136090000Y-108055000D01*
G75*
G02*
X135955000Y-108190000I-135000J0D01*
G01*
G37*
%TD.AperFunction*%
%TO.P,R5,1*%
%TO.N,e22_rxen*%
%TA.AperFunction,SMDPad,CuDef*%
G36*
G01*
X135955000Y-109210000D02*
X135585000Y-109210000D01*
G75*
G02*
X135450000Y-109075000I0J135000D01*
G01*
X135450000Y-108805000D01*
G75*
G02*
X135585000Y-108670000I135000J0D01*
G01*
X135955000Y-108670000D01*
G75*
G02*
X136090000Y-108805000I0J-135000D01*
G01*
X136090000Y-109075000D01*
G75*
G02*
X135955000Y-109210000I-135000J0D01*
G01*
G37*
%TD.AperFunction*%
%TD*%
%TO.P,R4,2*%
%TO.N,spi_mosi*%
%TA.AperFunction,SMDPad,CuDef*%
G36*
G01*
X135955000Y-91330000D02*
X135585000Y-91330000D01*
G75*
G02*
X135450000Y-91195000I0J135000D01*
G01*
X135450000Y-90925000D01*
G75*
G02*
X135585000Y-90790000I135000J0D01*
G01*
X135955000Y-90790000D01*
G75*
G02*
X136090000Y-90925000I0J-135000D01*
G01*
X136090000Y-91195000D01*
G75*
G02*
X135955000Y-91330000I-135000J0D01*
G01*
G37*
%TD.AperFunction*%
%TO.P,R4,1*%
%TO.N,Net-(R4-Pad1)*%
%TA.AperFunction,SMDPad,CuDef*%
G36*
G01*
X135955000Y-92350000D02*
X135585000Y-92350000D01*
G75*
G02*
X135450000Y-92215000I0J135000D01*
G01*
X135450000Y-91945000D01*
G75*
G02*
X135585000Y-91810000I135000J0D01*
G01*
X135955000Y-91810000D01*
G75*
G02*
X136090000Y-91945000I0J-135000D01*
G01*
X136090000Y-92215000D01*
G75*
G02*
X135955000Y-92350000I-135000J0D01*
G01*
G37*
%TD.AperFunction*%
%TD*%
%TO.P,R3,2*%
%TO.N,spi_miso*%
%TA.AperFunction,SMDPad,CuDef*%
G36*
G01*
X134685000Y-91330000D02*
X134315000Y-91330000D01*
G75*
G02*
X134180000Y-91195000I0J135000D01*
G01*
X134180000Y-90925000D01*
G75*
G02*
X134315000Y-90790000I135000J0D01*
G01*
X134685000Y-90790000D01*
G75*
G02*
X134820000Y-90925000I0J-135000D01*
G01*
X134820000Y-91195000D01*
G75*
G02*
X134685000Y-91330000I-135000J0D01*
G01*
G37*
%TD.AperFunction*%
%TO.P,R3,1*%
%TO.N,Net-(R3-Pad1)*%
%TA.AperFunction,SMDPad,CuDef*%
G36*
G01*
X134685000Y-92350000D02*
X134315000Y-92350000D01*
G75*
G02*
X134180000Y-92215000I0J135000D01*
G01*
X134180000Y-91945000D01*
G75*
G02*
X134315000Y-91810000I135000J0D01*
G01*
X134685000Y-91810000D01*
G75*
G02*
X134820000Y-91945000I0J-135000D01*
G01*
X134820000Y-92215000D01*
G75*
G02*
X134685000Y-92350000I-135000J0D01*
G01*
G37*
%TD.AperFunction*%
%TD*%
%TO.P,R2,2*%
%TO.N,spi_sck*%
%TA.AperFunction,SMDPad,CuDef*%
G36*
G01*
X137225000Y-91330000D02*
X136855000Y-91330000D01*
G75*
G02*
X136720000Y-91195000I0J135000D01*
G01*
X136720000Y-90925000D01*
G75*
G02*
X136855000Y-90790000I135000J0D01*
G01*
X137225000Y-90790000D01*
G75*
G02*
X137360000Y-90925000I0J-135000D01*
G01*
X137360000Y-91195000D01*
G75*
G02*
X137225000Y-91330000I-135000J0D01*
G01*
G37*
%TD.AperFunction*%
%TO.P,R2,1*%
%TO.N,Net-(R2-Pad1)*%
%TA.AperFunction,SMDPad,CuDef*%
G36*
G01*
X137225000Y-92350000D02*
X136855000Y-92350000D01*
G75*
G02*
X136720000Y-92215000I0J135000D01*
G01*
X136720000Y-91945000D01*
G75*
G02*
X136855000Y-91810000I135000J0D01*
G01*
X137225000Y-91810000D01*
G75*
G02*
X137360000Y-91945000I0J-135000D01*
G01*
X137360000Y-92215000D01*
G75*
G02*
X137225000Y-92350000I-135000J0D01*
G01*
G37*
%TD.AperFunction*%
%TD*%
%TO.P,R1,2*%
%TO.N,e22_nss*%
%TA.AperFunction,SMDPad,CuDef*%
G36*
G01*
X138495000Y-91330000D02*
X138125000Y-91330000D01*
G75*
G02*
X137990000Y-91195000I0J135000D01*
G01*
X137990000Y-90925000D01*
G75*
G02*
X138125000Y-90790000I135000J0D01*
G01*
X138495000Y-90790000D01*
G75*
G02*
X138630000Y-90925000I0J-135000D01*
G01*
X138630000Y-91195000D01*
G75*
G02*
X138495000Y-91330000I-135000J0D01*
G01*
G37*
%TD.AperFunction*%
%TO.P,R1,1*%
%TO.N,Net-(R1-Pad1)*%
%TA.AperFunction,SMDPad,CuDef*%
G36*
G01*
X138495000Y-92350000D02*
X138125000Y-92350000D01*
G75*
G02*
X137990000Y-92215000I0J135000D01*
G01*
X137990000Y-91945000D01*
G75*
G02*
X138125000Y-91810000I135000J0D01*
G01*
X138495000Y-91810000D01*
G75*
G02*
X138630000Y-91945000I0J-135000D01*
G01*
X138630000Y-92215000D01*
G75*
G02*
X138495000Y-92350000I-135000J0D01*
G01*
G37*
%TD.AperFunction*%
%TD*%
D14*
%TO.N,e22_nss*%
X138310000Y-90290000D03*
%TO.N,spi_sck*%
X137040000Y-90290000D03*
%TO.N,spi_miso*%
X134500000Y-90290000D03*
%TO.N,spi_mosi*%
X135770000Y-90290000D03*
%TO.N,e22_rxen*%
X135770000Y-109720000D03*
%TO.N,e22_txen*%
X134500000Y-109710000D03*
%TO.N,e22_dio1*%
X130690000Y-90290000D03*
%TO.N,e22_dio2*%
X133260000Y-109730000D03*
%TO.N,e22_busy*%
X131960000Y-90290000D03*
%TO.N,e22_nrst*%
X133230000Y-90290000D03*
%TO.N,GND*%
X130545000Y-109190000D03*
X129420000Y-105250000D03*
X143920000Y-107890000D03*
X146420000Y-94750000D03*
X134000000Y-102950000D03*
X145170000Y-96600000D03*
X141870000Y-101725000D03*
D15*
X127770000Y-107610000D03*
X127740000Y-102550000D03*
D14*
X134738051Y-97088051D03*
X127610000Y-94910000D03*
X129420000Y-92250000D03*
X139190000Y-106880000D03*
X143000000Y-106500000D03*
X141290000Y-104930000D03*
X145620000Y-107740000D03*
X147200000Y-107810000D03*
X145170000Y-104400000D03*
X143009996Y-93500000D03*
X138810000Y-107830000D03*
X136580000Y-108629998D03*
X138910000Y-96450000D03*
%TO.N,+3V3*%
X132095000Y-109190000D03*
X138480000Y-104180000D03*
%TO.N,pwm_ch4*%
X135250000Y-97900000D03*
%TO.N,pwm_ch3*%
X136250000Y-97900000D03*
%TO.N,pwm_ch2*%
X137250000Y-97900000D03*
%TO.N,pwm_ch1*%
X137750000Y-97100000D03*
%TO.N,+5V*%
X145170000Y-97600000D03*
D15*
X127575000Y-105090000D03*
D14*
X133750000Y-97100000D03*
X128050000Y-92380000D03*
D15*
X127630000Y-97450000D03*
D14*
X135500000Y-102950000D03*
X141870000Y-108820000D03*
X147200000Y-90710000D03*
X147146714Y-109353286D03*
X141640000Y-104020000D03*
X142630000Y-105399994D03*
%TO.N,nrst*%
X132250000Y-102909996D03*
%TO.N,swim*%
X132080000Y-99750000D03*
%TO.N,uart1_rx*%
X136500000Y-102930000D03*
X145170000Y-102390000D03*
%TO.N,uart1_tx*%
X137500000Y-102930000D03*
X145179529Y-103390569D03*
%TO.N,i2c_sda*%
X137910000Y-101230000D03*
X145179863Y-94750022D03*
%TO.N,i2c_scl*%
X137920000Y-100250000D03*
X145170002Y-95600000D03*
%TD*%
D16*
%TO.N,e22_nss*%
X138310000Y-91060000D02*
X138310000Y-90290000D01*
D17*
%TO.N,Net-(R1-Pad1)*%
X138310000Y-92080000D02*
X138310000Y-93500000D01*
D16*
%TO.N,spi_sck*%
X137040000Y-91060000D02*
X137040000Y-90290000D01*
D17*
%TO.N,Net-(R2-Pad1)*%
X137040000Y-92080000D02*
X137040000Y-93500000D01*
D16*
%TO.N,spi_miso*%
X134500000Y-91060000D02*
X134500000Y-90290000D01*
D17*
%TO.N,Net-(R3-Pad1)*%
X134500000Y-92080000D02*
X134500000Y-93500000D01*
D16*
%TO.N,spi_mosi*%
X135770000Y-91060000D02*
X135770000Y-90290000D01*
D17*
%TO.N,Net-(R4-Pad1)*%
X135770000Y-92080000D02*
X135770000Y-93500000D01*
D16*
%TO.N,Net-(R5-Pad2)*%
X135770000Y-106500000D02*
X135770000Y-107920000D01*
%TO.N,e22_rxen*%
X135770000Y-109720000D02*
X135770000Y-108940000D01*
%TO.N,Net-(R6-Pad2)*%
X134500000Y-106500000D02*
X134500000Y-107920000D01*
%TO.N,e22_txen*%
X134500000Y-109710000D02*
X134500000Y-108940000D01*
D17*
%TO.N,Net-(R7-Pad2)*%
X130690000Y-92080000D02*
X130690000Y-93500000D01*
D16*
%TO.N,e22_dio1*%
X130690000Y-91060000D02*
X130690000Y-90290000D01*
%TO.N,Net-(R8-Pad2)*%
X133230000Y-106500000D02*
X133230000Y-107920000D01*
%TO.N,e22_dio2*%
X133260000Y-108960000D02*
X133260000Y-109730000D01*
D17*
%TO.N,Net-(R9-Pad2)*%
X131960000Y-92080000D02*
X131960000Y-93500000D01*
D16*
%TO.N,e22_busy*%
X131960000Y-91060000D02*
X131960000Y-90290000D01*
D17*
%TO.N,Net-(R10-Pad2)*%
X133230000Y-92080000D02*
X133230000Y-93500000D01*
D16*
%TO.N,e22_nrst*%
X133230000Y-90290000D02*
X133230000Y-91060000D01*
D18*
%TO.N,GND*%
X129420000Y-106500000D02*
X129420000Y-105250000D01*
X130545000Y-108210000D02*
X130545000Y-109190000D01*
D17*
X130690000Y-108065000D02*
X130545000Y-108210000D01*
D18*
X130690000Y-106500000D02*
X130690000Y-108065000D01*
X129420000Y-93500000D02*
X129420000Y-92250000D01*
X143880000Y-106500000D02*
X143000000Y-106500000D01*
X138810000Y-106500000D02*
X139190000Y-106880000D01*
X138310000Y-106500000D02*
X138810000Y-106500000D01*
X145150000Y-107270000D02*
X145620000Y-107740000D01*
X145150000Y-106500000D02*
X145150000Y-107270000D01*
D17*
X147200000Y-107810000D02*
X147200000Y-107780000D01*
D18*
X146420000Y-107030000D02*
X147200000Y-107810000D01*
X146420000Y-106500000D02*
X146420000Y-107030000D01*
X146420000Y-93500000D02*
X146420000Y-94750000D01*
X143880000Y-93500000D02*
X143009996Y-93500000D01*
X137040000Y-108169998D02*
X136580000Y-108629998D01*
X137040000Y-106500000D02*
X137040000Y-108169998D01*
%TO.N,+3V3*%
X132095000Y-108210000D02*
X132095000Y-109190000D01*
D17*
X131960000Y-108075000D02*
X132095000Y-108210000D01*
D18*
X131960000Y-106500000D02*
X131960000Y-108075000D01*
X132720000Y-104180000D02*
X138480000Y-104180000D01*
X131960000Y-104940000D02*
X132720000Y-104180000D01*
X131960000Y-106500000D02*
X131960000Y-104940000D01*
D17*
%TO.N,pwm_ch4*%
X126490000Y-98730000D02*
X125490000Y-98730000D01*
X128450000Y-98730000D02*
X126490000Y-98730000D01*
X129240000Y-96820000D02*
X129240000Y-97940000D01*
X129240000Y-97940000D02*
X128450000Y-98730000D01*
X129620000Y-96440000D02*
X129240000Y-96820000D01*
X135440000Y-96440000D02*
X129620000Y-96440000D01*
X135750000Y-96750000D02*
X135440000Y-96440000D01*
X135750000Y-97400000D02*
X135750000Y-96750000D01*
X135250000Y-97900000D02*
X135750000Y-97400000D01*
%TO.N,pwm_ch3*%
X126490000Y-96190000D02*
X125490000Y-96190000D01*
X129030000Y-96190000D02*
X126490000Y-96190000D01*
X135820011Y-95970011D02*
X129249989Y-95970011D01*
X129249989Y-95970011D02*
X129030000Y-96190000D01*
X136250000Y-96400000D02*
X135820011Y-95970011D01*
X136250000Y-97900000D02*
X136250000Y-96400000D01*
%TO.N,pwm_ch2*%
X126490000Y-93650000D02*
X125490000Y-93650000D01*
X127930000Y-93650000D02*
X126490000Y-93650000D01*
X128240000Y-93960000D02*
X127930000Y-93650000D01*
X128240000Y-94610000D02*
X128240000Y-93960000D01*
X129150000Y-95520000D02*
X128240000Y-94610000D01*
X136250000Y-95520000D02*
X129150000Y-95520000D01*
X136750000Y-96020000D02*
X136250000Y-95520000D01*
X136750000Y-97400000D02*
X136750000Y-96020000D01*
X137250000Y-97900000D02*
X136750000Y-97400000D01*
%TO.N,pwm_ch1*%
X126490000Y-91110000D02*
X125490000Y-91110000D01*
X128690011Y-91860011D02*
X127940000Y-91110000D01*
X128690011Y-94423601D02*
X128690011Y-91860011D01*
X127940000Y-91110000D02*
X126490000Y-91110000D01*
X137250000Y-95837500D02*
X136472500Y-95060000D01*
X129326410Y-95060000D02*
X128690011Y-94423601D01*
X137250000Y-96600000D02*
X137250000Y-95837500D01*
X136472500Y-95060000D02*
X129326410Y-95060000D01*
X137750000Y-97100000D02*
X137250000Y-96600000D01*
%TO.N,nrst*%
X140510000Y-91700000D02*
X140710000Y-91700000D01*
X140000000Y-97586411D02*
X140000000Y-92210000D01*
X138546411Y-99040000D02*
X140000000Y-97586411D01*
X133990000Y-99040000D02*
X138546411Y-99040000D01*
X140000000Y-92210000D02*
X140510000Y-91700000D01*
X132250000Y-100780000D02*
X133990000Y-99040000D01*
X132250000Y-102909996D02*
X132250000Y-100780000D01*
%TO.N,swim*%
X140510000Y-90700000D02*
X140710000Y-90700000D01*
X139549989Y-91660011D02*
X140510000Y-90700000D01*
X139549989Y-97400011D02*
X139549989Y-91660011D01*
X138410000Y-98540000D02*
X139549989Y-97400011D01*
X133290000Y-98540000D02*
X138410000Y-98540000D01*
X132080000Y-99750000D02*
X133290000Y-98540000D01*
%TO.N,uart1_rx*%
X145160000Y-102400000D02*
X145170000Y-102390000D01*
X138020000Y-102400000D02*
X145160000Y-102400000D01*
X137210000Y-102220000D02*
X137840000Y-102220000D01*
X137840000Y-102220000D02*
X138020000Y-102400000D01*
X136500000Y-102930000D02*
X137210000Y-102220000D01*
%TO.N,uart1_tx*%
X137500000Y-102930000D02*
X144718960Y-102930000D01*
X144718960Y-102930000D02*
X145179529Y-103390569D01*
%TO.N,i2c_sda*%
X143859978Y-94750022D02*
X145179863Y-94750022D01*
X139020000Y-99590000D02*
X143859978Y-94750022D01*
X137690000Y-99590000D02*
X139020000Y-99590000D01*
X137294999Y-99985001D02*
X137690000Y-99590000D01*
X137294999Y-100614999D02*
X137294999Y-99985001D01*
X137910000Y-101230000D02*
X137294999Y-100614999D01*
%TO.N,i2c_scl*%
X144230000Y-95600000D02*
X145170002Y-95600000D01*
X139580000Y-100250000D02*
X144230000Y-95600000D01*
X137920000Y-100250000D02*
X139580000Y-100250000D01*
%TD*%
M02*
