%TF.GenerationSoftware,KiCad,Pcbnew,5.1.8-db9833491~87~ubuntu20.04.1*%
%TF.CreationDate,2020-11-05T18:06:58+01:00*%
%TF.ProjectId,rosalyn-rx,726f7361-6c79-46e2-9d72-782e6b696361,v1.0*%
%TF.SameCoordinates,Original*%
%TF.FileFunction,Copper,L1,Top*%
%TF.FilePolarity,Positive*%
%FSLAX46Y46*%
G04 Gerber Fmt 4.6, Leading zero omitted, Abs format (unit mm)*
G04 Created by KiCad (PCBNEW 5.1.8-db9833491~87~ubuntu20.04.1) date 2020-11-05 18:06:58*
%MOMM*%
%LPD*%
G01*
G04 APERTURE LIST*
%TA.AperFunction,ComponentPad*%
%ADD10O,1.700000X1.700000*%
%TD*%
%TA.AperFunction,ComponentPad*%
%ADD11R,1.700000X1.700000*%
%TD*%
%TA.AperFunction,ComponentPad*%
%ADD12R,0.850000X0.650000*%
%TD*%
%TA.AperFunction,SMDPad,CuDef*%
%ADD13R,0.800000X0.900000*%
%TD*%
%TA.AperFunction,ViaPad*%
%ADD14C,0.600000*%
%TD*%
%TA.AperFunction,ViaPad*%
%ADD15C,0.800000*%
%TD*%
%TA.AperFunction,Conductor*%
%ADD16C,0.250000*%
%TD*%
%TA.AperFunction,Conductor*%
%ADD17C,0.500000*%
%TD*%
%TA.AperFunction,Conductor*%
%ADD18C,0.400000*%
%TD*%
G04 APERTURE END LIST*
D10*
%TO.P,J4,10*%
%TO.N,+5V*%
X120410000Y-108890000D03*
X120410000Y-91110000D03*
X120410000Y-106350000D03*
X120410000Y-103810000D03*
X120410000Y-101270000D03*
X120410000Y-98730000D03*
X120410000Y-96190000D03*
X120410000Y-93650000D03*
%TO.P,J4,9*%
%TO.N,GND*%
X122950000Y-91110000D03*
X122950000Y-93650000D03*
X122950000Y-96190000D03*
X122950000Y-98730000D03*
X122950000Y-101270000D03*
X122950000Y-103810000D03*
X122950000Y-106350000D03*
X122950000Y-108890000D03*
D11*
%TO.P,J4,1*%
%TO.N,pwm_ch1*%
X125490000Y-91110000D03*
D10*
%TO.P,J4,2*%
%TO.N,pwm_ch2*%
X125490000Y-93650000D03*
%TO.P,J4,3*%
%TO.N,pwm_ch3*%
X125490000Y-96190000D03*
%TO.P,J4,4*%
%TO.N,pwm_ch4*%
X125490000Y-98730000D03*
%TO.P,J4,5*%
%TO.N,pwm_ch5*%
X125490000Y-101270000D03*
%TO.P,J4,6*%
%TO.N,pwm_ch6*%
X125490000Y-103810000D03*
%TO.P,J4,7*%
%TO.N,pwm_ch7*%
X125490000Y-106350000D03*
%TO.P,J4,8*%
%TO.N,pwm_ch8*%
X125490000Y-108890000D03*
%TD*%
%TO.P,J3,1*%
%TO.N,+5V*%
%TA.AperFunction,SMDPad,CuDef*%
G36*
G01*
X144525000Y-97900000D02*
X143275000Y-97900000D01*
G75*
G02*
X143125000Y-97750000I0J150000D01*
G01*
X143125000Y-97450000D01*
G75*
G02*
X143275000Y-97300000I150000J0D01*
G01*
X144525000Y-97300000D01*
G75*
G02*
X144675000Y-97450000I0J-150000D01*
G01*
X144675000Y-97750000D01*
G75*
G02*
X144525000Y-97900000I-150000J0D01*
G01*
G37*
%TD.AperFunction*%
%TO.P,J3,2*%
%TO.N,GND*%
%TA.AperFunction,SMDPad,CuDef*%
G36*
G01*
X144525000Y-96900000D02*
X143275000Y-96900000D01*
G75*
G02*
X143125000Y-96750000I0J150000D01*
G01*
X143125000Y-96450000D01*
G75*
G02*
X143275000Y-96300000I150000J0D01*
G01*
X144525000Y-96300000D01*
G75*
G02*
X144675000Y-96450000I0J-150000D01*
G01*
X144675000Y-96750000D01*
G75*
G02*
X144525000Y-96900000I-150000J0D01*
G01*
G37*
%TD.AperFunction*%
%TO.P,J3,3*%
%TO.N,i2c_scl*%
%TA.AperFunction,SMDPad,CuDef*%
G36*
G01*
X144525000Y-95900000D02*
X143275000Y-95900000D01*
G75*
G02*
X143125000Y-95750000I0J150000D01*
G01*
X143125000Y-95450000D01*
G75*
G02*
X143275000Y-95300000I150000J0D01*
G01*
X144525000Y-95300000D01*
G75*
G02*
X144675000Y-95450000I0J-150000D01*
G01*
X144675000Y-95750000D01*
G75*
G02*
X144525000Y-95900000I-150000J0D01*
G01*
G37*
%TD.AperFunction*%
%TO.P,J3,4*%
%TO.N,i2c_sda*%
%TA.AperFunction,SMDPad,CuDef*%
G36*
G01*
X144525000Y-94900000D02*
X143275000Y-94900000D01*
G75*
G02*
X143125000Y-94750000I0J150000D01*
G01*
X143125000Y-94450000D01*
G75*
G02*
X143275000Y-94300000I150000J0D01*
G01*
X144525000Y-94300000D01*
G75*
G02*
X144675000Y-94450000I0J-150000D01*
G01*
X144675000Y-94750000D01*
G75*
G02*
X144525000Y-94900000I-150000J0D01*
G01*
G37*
%TD.AperFunction*%
%TO.P,J3,MP*%
%TO.N,N/C*%
%TA.AperFunction,SMDPad,CuDef*%
G36*
G01*
X148425001Y-99500000D02*
X147124999Y-99500000D01*
G75*
G02*
X146875000Y-99250001I0J249999D01*
G01*
X146875000Y-98549999D01*
G75*
G02*
X147124999Y-98300000I249999J0D01*
G01*
X148425001Y-98300000D01*
G75*
G02*
X148675000Y-98549999I0J-249999D01*
G01*
X148675000Y-99250001D01*
G75*
G02*
X148425001Y-99500000I-249999J0D01*
G01*
G37*
%TD.AperFunction*%
%TA.AperFunction,SMDPad,CuDef*%
G36*
G01*
X148425001Y-93900000D02*
X147124999Y-93900000D01*
G75*
G02*
X146875000Y-93650001I0J249999D01*
G01*
X146875000Y-92949999D01*
G75*
G02*
X147124999Y-92700000I249999J0D01*
G01*
X148425001Y-92700000D01*
G75*
G02*
X148675000Y-92949999I0J-249999D01*
G01*
X148675000Y-93650001D01*
G75*
G02*
X148425001Y-93900000I-249999J0D01*
G01*
G37*
%TD.AperFunction*%
%TD*%
%TO.P,J2,1*%
%TO.N,+5V*%
%TA.AperFunction,SMDPad,CuDef*%
G36*
G01*
X144525000Y-105700000D02*
X143275000Y-105700000D01*
G75*
G02*
X143125000Y-105550000I0J150000D01*
G01*
X143125000Y-105250000D01*
G75*
G02*
X143275000Y-105100000I150000J0D01*
G01*
X144525000Y-105100000D01*
G75*
G02*
X144675000Y-105250000I0J-150000D01*
G01*
X144675000Y-105550000D01*
G75*
G02*
X144525000Y-105700000I-150000J0D01*
G01*
G37*
%TD.AperFunction*%
%TO.P,J2,2*%
%TO.N,GND*%
%TA.AperFunction,SMDPad,CuDef*%
G36*
G01*
X144525000Y-104700000D02*
X143275000Y-104700000D01*
G75*
G02*
X143125000Y-104550000I0J150000D01*
G01*
X143125000Y-104250000D01*
G75*
G02*
X143275000Y-104100000I150000J0D01*
G01*
X144525000Y-104100000D01*
G75*
G02*
X144675000Y-104250000I0J-150000D01*
G01*
X144675000Y-104550000D01*
G75*
G02*
X144525000Y-104700000I-150000J0D01*
G01*
G37*
%TD.AperFunction*%
%TO.P,J2,3*%
%TO.N,uart1_tx*%
%TA.AperFunction,SMDPad,CuDef*%
G36*
G01*
X144525000Y-103700000D02*
X143275000Y-103700000D01*
G75*
G02*
X143125000Y-103550000I0J150000D01*
G01*
X143125000Y-103250000D01*
G75*
G02*
X143275000Y-103100000I150000J0D01*
G01*
X144525000Y-103100000D01*
G75*
G02*
X144675000Y-103250000I0J-150000D01*
G01*
X144675000Y-103550000D01*
G75*
G02*
X144525000Y-103700000I-150000J0D01*
G01*
G37*
%TD.AperFunction*%
%TO.P,J2,4*%
%TO.N,uart1_rx*%
%TA.AperFunction,SMDPad,CuDef*%
G36*
G01*
X144525000Y-102700000D02*
X143275000Y-102700000D01*
G75*
G02*
X143125000Y-102550000I0J150000D01*
G01*
X143125000Y-102250000D01*
G75*
G02*
X143275000Y-102100000I150000J0D01*
G01*
X144525000Y-102100000D01*
G75*
G02*
X144675000Y-102250000I0J-150000D01*
G01*
X144675000Y-102550000D01*
G75*
G02*
X144525000Y-102700000I-150000J0D01*
G01*
G37*
%TD.AperFunction*%
%TO.P,J2,MP*%
%TO.N,N/C*%
%TA.AperFunction,SMDPad,CuDef*%
G36*
G01*
X148425001Y-107300000D02*
X147124999Y-107300000D01*
G75*
G02*
X146875000Y-107050001I0J249999D01*
G01*
X146875000Y-106349999D01*
G75*
G02*
X147124999Y-106100000I249999J0D01*
G01*
X148425001Y-106100000D01*
G75*
G02*
X148675000Y-106349999I0J-249999D01*
G01*
X148675000Y-107050001D01*
G75*
G02*
X148425001Y-107300000I-249999J0D01*
G01*
G37*
%TD.AperFunction*%
%TA.AperFunction,SMDPad,CuDef*%
G36*
G01*
X148425001Y-101700000D02*
X147124999Y-101700000D01*
G75*
G02*
X146875000Y-101450001I0J249999D01*
G01*
X146875000Y-100749999D01*
G75*
G02*
X147124999Y-100500000I249999J0D01*
G01*
X148425001Y-100500000D01*
G75*
G02*
X148675000Y-100749999I0J-249999D01*
G01*
X148675000Y-101450001D01*
G75*
G02*
X148425001Y-101700000I-249999J0D01*
G01*
G37*
%TD.AperFunction*%
%TD*%
%TO.P,J1,4*%
%TO.N,swim*%
%TA.AperFunction,ComponentPad*%
G36*
G01*
X141245000Y-90537500D02*
X141245000Y-90862500D01*
G75*
G02*
X141082500Y-91025000I-162500J0D01*
G01*
X140557500Y-91025000D01*
G75*
G02*
X140395000Y-90862500I0J162500D01*
G01*
X140395000Y-90537500D01*
G75*
G02*
X140557500Y-90375000I162500J0D01*
G01*
X141082500Y-90375000D01*
G75*
G02*
X141245000Y-90537500I0J-162500D01*
G01*
G37*
%TD.AperFunction*%
%TO.P,J1,3*%
%TO.N,nrst*%
%TA.AperFunction,ComponentPad*%
G36*
G01*
X141245000Y-91537500D02*
X141245000Y-91862500D01*
G75*
G02*
X141082500Y-92025000I-162500J0D01*
G01*
X140557500Y-92025000D01*
G75*
G02*
X140395000Y-91862500I0J162500D01*
G01*
X140395000Y-91537500D01*
G75*
G02*
X140557500Y-91375000I162500J0D01*
G01*
X141082500Y-91375000D01*
G75*
G02*
X141245000Y-91537500I0J-162500D01*
G01*
G37*
%TD.AperFunction*%
%TO.P,J1,2*%
%TO.N,GND*%
%TA.AperFunction,ComponentPad*%
G36*
G01*
X141245000Y-92537500D02*
X141245000Y-92862500D01*
G75*
G02*
X141082500Y-93025000I-162500J0D01*
G01*
X140557500Y-93025000D01*
G75*
G02*
X140395000Y-92862500I0J162500D01*
G01*
X140395000Y-92537500D01*
G75*
G02*
X140557500Y-92375000I162500J0D01*
G01*
X141082500Y-92375000D01*
G75*
G02*
X141245000Y-92537500I0J-162500D01*
G01*
G37*
%TD.AperFunction*%
D12*
%TO.P,J1,1*%
%TO.N,+5V*%
X140820000Y-93700000D03*
%TD*%
%TO.P,R12,2*%
%TO.N,hmi_status*%
%TA.AperFunction,SMDPad,CuDef*%
G36*
G01*
X141203000Y-96615000D02*
X141753000Y-96615000D01*
G75*
G02*
X141953000Y-96815000I0J-200000D01*
G01*
X141953000Y-97215000D01*
G75*
G02*
X141753000Y-97415000I-200000J0D01*
G01*
X141203000Y-97415000D01*
G75*
G02*
X141003000Y-97215000I0J200000D01*
G01*
X141003000Y-96815000D01*
G75*
G02*
X141203000Y-96615000I200000J0D01*
G01*
G37*
%TD.AperFunction*%
%TO.P,R12,1*%
%TO.N,Net-(D2-Pad1)*%
%TA.AperFunction,SMDPad,CuDef*%
G36*
G01*
X141203000Y-94965000D02*
X141753000Y-94965000D01*
G75*
G02*
X141953000Y-95165000I0J-200000D01*
G01*
X141953000Y-95565000D01*
G75*
G02*
X141753000Y-95765000I-200000J0D01*
G01*
X141203000Y-95765000D01*
G75*
G02*
X141003000Y-95565000I0J200000D01*
G01*
X141003000Y-95165000D01*
G75*
G02*
X141203000Y-94965000I200000J0D01*
G01*
G37*
%TD.AperFunction*%
%TD*%
%TO.P,R11,2*%
%TO.N,hmi_error*%
%TA.AperFunction,SMDPad,CuDef*%
G36*
G01*
X141203000Y-99605000D02*
X141753000Y-99605000D01*
G75*
G02*
X141953000Y-99805000I0J-200000D01*
G01*
X141953000Y-100205000D01*
G75*
G02*
X141753000Y-100405000I-200000J0D01*
G01*
X141203000Y-100405000D01*
G75*
G02*
X141003000Y-100205000I0J200000D01*
G01*
X141003000Y-99805000D01*
G75*
G02*
X141203000Y-99605000I200000J0D01*
G01*
G37*
%TD.AperFunction*%
%TO.P,R11,1*%
%TO.N,Net-(D1-Pad1)*%
%TA.AperFunction,SMDPad,CuDef*%
G36*
G01*
X141203000Y-97955000D02*
X141753000Y-97955000D01*
G75*
G02*
X141953000Y-98155000I0J-200000D01*
G01*
X141953000Y-98555000D01*
G75*
G02*
X141753000Y-98755000I-200000J0D01*
G01*
X141203000Y-98755000D01*
G75*
G02*
X141003000Y-98555000I0J200000D01*
G01*
X141003000Y-98155000D01*
G75*
G02*
X141203000Y-97955000I200000J0D01*
G01*
G37*
%TD.AperFunction*%
%TD*%
%TO.P,D2,2*%
%TO.N,+5V*%
%TA.AperFunction,SMDPad,CuDef*%
G36*
G01*
X147550000Y-91696250D02*
X147550000Y-91183750D01*
G75*
G02*
X147768750Y-90965000I218750J0D01*
G01*
X148206250Y-90965000D01*
G75*
G02*
X148425000Y-91183750I0J-218750D01*
G01*
X148425000Y-91696250D01*
G75*
G02*
X148206250Y-91915000I-218750J0D01*
G01*
X147768750Y-91915000D01*
G75*
G02*
X147550000Y-91696250I0J218750D01*
G01*
G37*
%TD.AperFunction*%
%TO.P,D2,1*%
%TO.N,Net-(D2-Pad1)*%
%TA.AperFunction,SMDPad,CuDef*%
G36*
G01*
X145975000Y-91696250D02*
X145975000Y-91183750D01*
G75*
G02*
X146193750Y-90965000I218750J0D01*
G01*
X146631250Y-90965000D01*
G75*
G02*
X146850000Y-91183750I0J-218750D01*
G01*
X146850000Y-91696250D01*
G75*
G02*
X146631250Y-91915000I-218750J0D01*
G01*
X146193750Y-91915000D01*
G75*
G02*
X145975000Y-91696250I0J218750D01*
G01*
G37*
%TD.AperFunction*%
%TD*%
%TO.P,D1,2*%
%TO.N,+5V*%
%TA.AperFunction,SMDPad,CuDef*%
G36*
G01*
X147550000Y-108806250D02*
X147550000Y-108293750D01*
G75*
G02*
X147768750Y-108075000I218750J0D01*
G01*
X148206250Y-108075000D01*
G75*
G02*
X148425000Y-108293750I0J-218750D01*
G01*
X148425000Y-108806250D01*
G75*
G02*
X148206250Y-109025000I-218750J0D01*
G01*
X147768750Y-109025000D01*
G75*
G02*
X147550000Y-108806250I0J218750D01*
G01*
G37*
%TD.AperFunction*%
%TO.P,D1,1*%
%TO.N,Net-(D1-Pad1)*%
%TA.AperFunction,SMDPad,CuDef*%
G36*
G01*
X145975000Y-108806250D02*
X145975000Y-108293750D01*
G75*
G02*
X146193750Y-108075000I218750J0D01*
G01*
X146631250Y-108075000D01*
G75*
G02*
X146850000Y-108293750I0J-218750D01*
G01*
X146850000Y-108806250D01*
G75*
G02*
X146631250Y-109025000I-218750J0D01*
G01*
X146193750Y-109025000D01*
G75*
G02*
X145975000Y-108806250I0J218750D01*
G01*
G37*
%TD.AperFunction*%
%TD*%
%TO.P,C7,2*%
%TO.N,GND*%
%TA.AperFunction,SMDPad,CuDef*%
G36*
G01*
X135725000Y-93960000D02*
X135725000Y-93460000D01*
G75*
G02*
X135950000Y-93235000I225000J0D01*
G01*
X136400000Y-93235000D01*
G75*
G02*
X136625000Y-93460000I0J-225000D01*
G01*
X136625000Y-93960000D01*
G75*
G02*
X136400000Y-94185000I-225000J0D01*
G01*
X135950000Y-94185000D01*
G75*
G02*
X135725000Y-93960000I0J225000D01*
G01*
G37*
%TD.AperFunction*%
%TO.P,C7,1*%
%TO.N,+5V*%
%TA.AperFunction,SMDPad,CuDef*%
G36*
G01*
X134175000Y-93960000D02*
X134175000Y-93460000D01*
G75*
G02*
X134400000Y-93235000I225000J0D01*
G01*
X134850000Y-93235000D01*
G75*
G02*
X135075000Y-93460000I0J-225000D01*
G01*
X135075000Y-93960000D01*
G75*
G02*
X134850000Y-94185000I-225000J0D01*
G01*
X134400000Y-94185000D01*
G75*
G02*
X134175000Y-93960000I0J225000D01*
G01*
G37*
%TD.AperFunction*%
%TD*%
%TO.P,C6,2*%
%TO.N,GND*%
%TA.AperFunction,SMDPad,CuDef*%
G36*
G01*
X141140000Y-102175000D02*
X140640000Y-102175000D01*
G75*
G02*
X140415000Y-101950000I0J225000D01*
G01*
X140415000Y-101500000D01*
G75*
G02*
X140640000Y-101275000I225000J0D01*
G01*
X141140000Y-101275000D01*
G75*
G02*
X141365000Y-101500000I0J-225000D01*
G01*
X141365000Y-101950000D01*
G75*
G02*
X141140000Y-102175000I-225000J0D01*
G01*
G37*
%TD.AperFunction*%
%TO.P,C6,1*%
%TO.N,+5V*%
%TA.AperFunction,SMDPad,CuDef*%
G36*
G01*
X141140000Y-103725000D02*
X140640000Y-103725000D01*
G75*
G02*
X140415000Y-103500000I0J225000D01*
G01*
X140415000Y-103050000D01*
G75*
G02*
X140640000Y-102825000I225000J0D01*
G01*
X141140000Y-102825000D01*
G75*
G02*
X141365000Y-103050000I0J-225000D01*
G01*
X141365000Y-103500000D01*
G75*
G02*
X141140000Y-103725000I-225000J0D01*
G01*
G37*
%TD.AperFunction*%
%TD*%
%TO.P,C5,2*%
%TO.N,GND*%
%TA.AperFunction,SMDPad,CuDef*%
G36*
G01*
X134175000Y-107150000D02*
X134175000Y-107650000D01*
G75*
G02*
X133950000Y-107875000I-225000J0D01*
G01*
X133500000Y-107875000D01*
G75*
G02*
X133275000Y-107650000I0J225000D01*
G01*
X133275000Y-107150000D01*
G75*
G02*
X133500000Y-106925000I225000J0D01*
G01*
X133950000Y-106925000D01*
G75*
G02*
X134175000Y-107150000I0J-225000D01*
G01*
G37*
%TD.AperFunction*%
%TO.P,C5,1*%
%TO.N,+5V*%
%TA.AperFunction,SMDPad,CuDef*%
G36*
G01*
X135725000Y-107150000D02*
X135725000Y-107650000D01*
G75*
G02*
X135500000Y-107875000I-225000J0D01*
G01*
X135050000Y-107875000D01*
G75*
G02*
X134825000Y-107650000I0J225000D01*
G01*
X134825000Y-107150000D01*
G75*
G02*
X135050000Y-106925000I225000J0D01*
G01*
X135500000Y-106925000D01*
G75*
G02*
X135725000Y-107150000I0J-225000D01*
G01*
G37*
%TD.AperFunction*%
%TD*%
D13*
%TO.P,U3,3*%
%TO.N,+5V*%
X140340000Y-107880000D03*
%TO.P,U3,2*%
%TO.N,+3V3*%
X139390000Y-105880000D03*
%TO.P,U3,1*%
%TO.N,GND*%
X141290000Y-105880000D03*
%TD*%
%TO.P,C4,2*%
%TO.N,+3V3*%
%TA.AperFunction,SMDPad,CuDef*%
G36*
G01*
X138065000Y-106430000D02*
X137115000Y-106430000D01*
G75*
G02*
X136865000Y-106180000I0J250000D01*
G01*
X136865000Y-105680000D01*
G75*
G02*
X137115000Y-105430000I250000J0D01*
G01*
X138065000Y-105430000D01*
G75*
G02*
X138315000Y-105680000I0J-250000D01*
G01*
X138315000Y-106180000D01*
G75*
G02*
X138065000Y-106430000I-250000J0D01*
G01*
G37*
%TD.AperFunction*%
%TO.P,C4,1*%
%TO.N,GND*%
%TA.AperFunction,SMDPad,CuDef*%
G36*
G01*
X138065000Y-108330000D02*
X137115000Y-108330000D01*
G75*
G02*
X136865000Y-108080000I0J250000D01*
G01*
X136865000Y-107580000D01*
G75*
G02*
X137115000Y-107330000I250000J0D01*
G01*
X138065000Y-107330000D01*
G75*
G02*
X138315000Y-107580000I0J-250000D01*
G01*
X138315000Y-108080000D01*
G75*
G02*
X138065000Y-108330000I-250000J0D01*
G01*
G37*
%TD.AperFunction*%
%TD*%
%TO.P,C3,2*%
%TO.N,+5V*%
%TA.AperFunction,SMDPad,CuDef*%
G36*
G01*
X143370000Y-108345000D02*
X143370000Y-109295000D01*
G75*
G02*
X143120000Y-109545000I-250000J0D01*
G01*
X142620000Y-109545000D01*
G75*
G02*
X142370000Y-109295000I0J250000D01*
G01*
X142370000Y-108345000D01*
G75*
G02*
X142620000Y-108095000I250000J0D01*
G01*
X143120000Y-108095000D01*
G75*
G02*
X143370000Y-108345000I0J-250000D01*
G01*
G37*
%TD.AperFunction*%
%TO.P,C3,1*%
%TO.N,GND*%
%TA.AperFunction,SMDPad,CuDef*%
G36*
G01*
X145270000Y-108345000D02*
X145270000Y-109295000D01*
G75*
G02*
X145020000Y-109545000I-250000J0D01*
G01*
X144520000Y-109545000D01*
G75*
G02*
X144270000Y-109295000I0J250000D01*
G01*
X144270000Y-108345000D01*
G75*
G02*
X144520000Y-108095000I250000J0D01*
G01*
X145020000Y-108095000D01*
G75*
G02*
X145270000Y-108345000I0J-250000D01*
G01*
G37*
%TD.AperFunction*%
%TD*%
%TO.P,C2,2*%
%TO.N,GND*%
%TA.AperFunction,SMDPad,CuDef*%
G36*
G01*
X134175000Y-105670000D02*
X134175000Y-106170000D01*
G75*
G02*
X133950000Y-106395000I-225000J0D01*
G01*
X133500000Y-106395000D01*
G75*
G02*
X133275000Y-106170000I0J225000D01*
G01*
X133275000Y-105670000D01*
G75*
G02*
X133500000Y-105445000I225000J0D01*
G01*
X133950000Y-105445000D01*
G75*
G02*
X134175000Y-105670000I0J-225000D01*
G01*
G37*
%TD.AperFunction*%
%TO.P,C2,1*%
%TO.N,vcap*%
%TA.AperFunction,SMDPad,CuDef*%
G36*
G01*
X135725000Y-105670000D02*
X135725000Y-106170000D01*
G75*
G02*
X135500000Y-106395000I-225000J0D01*
G01*
X135050000Y-106395000D01*
G75*
G02*
X134825000Y-106170000I0J225000D01*
G01*
X134825000Y-105670000D01*
G75*
G02*
X135050000Y-105445000I225000J0D01*
G01*
X135500000Y-105445000D01*
G75*
G02*
X135725000Y-105670000I0J-225000D01*
G01*
G37*
%TD.AperFunction*%
%TD*%
%TO.P,U1,1*%
%TO.N,nrst*%
%TA.AperFunction,SMDPad,CuDef*%
G36*
G01*
X132325000Y-104900000D02*
X132175000Y-104900000D01*
G75*
G02*
X132100000Y-104825000I0J75000D01*
G01*
X132100000Y-103500000D01*
G75*
G02*
X132175000Y-103425000I75000J0D01*
G01*
X132325000Y-103425000D01*
G75*
G02*
X132400000Y-103500000I0J-75000D01*
G01*
X132400000Y-104825000D01*
G75*
G02*
X132325000Y-104900000I-75000J0D01*
G01*
G37*
%TD.AperFunction*%
%TO.P,U1,2*%
%TO.N,e22_txen*%
%TA.AperFunction,SMDPad,CuDef*%
G36*
G01*
X132825000Y-104900000D02*
X132675000Y-104900000D01*
G75*
G02*
X132600000Y-104825000I0J75000D01*
G01*
X132600000Y-103500000D01*
G75*
G02*
X132675000Y-103425000I75000J0D01*
G01*
X132825000Y-103425000D01*
G75*
G02*
X132900000Y-103500000I0J-75000D01*
G01*
X132900000Y-104825000D01*
G75*
G02*
X132825000Y-104900000I-75000J0D01*
G01*
G37*
%TD.AperFunction*%
%TO.P,U1,3*%
%TO.N,N/C*%
%TA.AperFunction,SMDPad,CuDef*%
G36*
G01*
X133325000Y-104900000D02*
X133175000Y-104900000D01*
G75*
G02*
X133100000Y-104825000I0J75000D01*
G01*
X133100000Y-103500000D01*
G75*
G02*
X133175000Y-103425000I75000J0D01*
G01*
X133325000Y-103425000D01*
G75*
G02*
X133400000Y-103500000I0J-75000D01*
G01*
X133400000Y-104825000D01*
G75*
G02*
X133325000Y-104900000I-75000J0D01*
G01*
G37*
%TD.AperFunction*%
%TO.P,U1,4*%
%TO.N,GND*%
%TA.AperFunction,SMDPad,CuDef*%
G36*
G01*
X133825000Y-104900000D02*
X133675000Y-104900000D01*
G75*
G02*
X133600000Y-104825000I0J75000D01*
G01*
X133600000Y-103500000D01*
G75*
G02*
X133675000Y-103425000I75000J0D01*
G01*
X133825000Y-103425000D01*
G75*
G02*
X133900000Y-103500000I0J-75000D01*
G01*
X133900000Y-104825000D01*
G75*
G02*
X133825000Y-104900000I-75000J0D01*
G01*
G37*
%TD.AperFunction*%
%TO.P,U1,5*%
%TA.AperFunction,SMDPad,CuDef*%
G36*
G01*
X134325000Y-104900000D02*
X134175000Y-104900000D01*
G75*
G02*
X134100000Y-104825000I0J75000D01*
G01*
X134100000Y-103500000D01*
G75*
G02*
X134175000Y-103425000I75000J0D01*
G01*
X134325000Y-103425000D01*
G75*
G02*
X134400000Y-103500000I0J-75000D01*
G01*
X134400000Y-104825000D01*
G75*
G02*
X134325000Y-104900000I-75000J0D01*
G01*
G37*
%TD.AperFunction*%
%TO.P,U1,6*%
%TO.N,vcap*%
%TA.AperFunction,SMDPad,CuDef*%
G36*
G01*
X134825000Y-104900000D02*
X134675000Y-104900000D01*
G75*
G02*
X134600000Y-104825000I0J75000D01*
G01*
X134600000Y-103500000D01*
G75*
G02*
X134675000Y-103425000I75000J0D01*
G01*
X134825000Y-103425000D01*
G75*
G02*
X134900000Y-103500000I0J-75000D01*
G01*
X134900000Y-104825000D01*
G75*
G02*
X134825000Y-104900000I-75000J0D01*
G01*
G37*
%TD.AperFunction*%
%TO.P,U1,7*%
%TO.N,+5V*%
%TA.AperFunction,SMDPad,CuDef*%
G36*
G01*
X135325000Y-104900000D02*
X135175000Y-104900000D01*
G75*
G02*
X135100000Y-104825000I0J75000D01*
G01*
X135100000Y-103500000D01*
G75*
G02*
X135175000Y-103425000I75000J0D01*
G01*
X135325000Y-103425000D01*
G75*
G02*
X135400000Y-103500000I0J-75000D01*
G01*
X135400000Y-104825000D01*
G75*
G02*
X135325000Y-104900000I-75000J0D01*
G01*
G37*
%TD.AperFunction*%
%TO.P,U1,8*%
%TA.AperFunction,SMDPad,CuDef*%
G36*
G01*
X135825000Y-104900000D02*
X135675000Y-104900000D01*
G75*
G02*
X135600000Y-104825000I0J75000D01*
G01*
X135600000Y-103500000D01*
G75*
G02*
X135675000Y-103425000I75000J0D01*
G01*
X135825000Y-103425000D01*
G75*
G02*
X135900000Y-103500000I0J-75000D01*
G01*
X135900000Y-104825000D01*
G75*
G02*
X135825000Y-104900000I-75000J0D01*
G01*
G37*
%TD.AperFunction*%
%TO.P,U1,9*%
%TO.N,e22_rxen*%
%TA.AperFunction,SMDPad,CuDef*%
G36*
G01*
X136325000Y-104900000D02*
X136175000Y-104900000D01*
G75*
G02*
X136100000Y-104825000I0J75000D01*
G01*
X136100000Y-103500000D01*
G75*
G02*
X136175000Y-103425000I75000J0D01*
G01*
X136325000Y-103425000D01*
G75*
G02*
X136400000Y-103500000I0J-75000D01*
G01*
X136400000Y-104825000D01*
G75*
G02*
X136325000Y-104900000I-75000J0D01*
G01*
G37*
%TD.AperFunction*%
%TO.P,U1,10*%
%TO.N,uart1_rx*%
%TA.AperFunction,SMDPad,CuDef*%
G36*
G01*
X136825000Y-104900000D02*
X136675000Y-104900000D01*
G75*
G02*
X136600000Y-104825000I0J75000D01*
G01*
X136600000Y-103500000D01*
G75*
G02*
X136675000Y-103425000I75000J0D01*
G01*
X136825000Y-103425000D01*
G75*
G02*
X136900000Y-103500000I0J-75000D01*
G01*
X136900000Y-104825000D01*
G75*
G02*
X136825000Y-104900000I-75000J0D01*
G01*
G37*
%TD.AperFunction*%
%TO.P,U1,11*%
%TO.N,uart1_tx*%
%TA.AperFunction,SMDPad,CuDef*%
G36*
G01*
X137325000Y-104900000D02*
X137175000Y-104900000D01*
G75*
G02*
X137100000Y-104825000I0J75000D01*
G01*
X137100000Y-103500000D01*
G75*
G02*
X137175000Y-103425000I75000J0D01*
G01*
X137325000Y-103425000D01*
G75*
G02*
X137400000Y-103500000I0J-75000D01*
G01*
X137400000Y-104825000D01*
G75*
G02*
X137325000Y-104900000I-75000J0D01*
G01*
G37*
%TD.AperFunction*%
%TO.P,U1,12*%
%TO.N,N/C*%
%TA.AperFunction,SMDPad,CuDef*%
G36*
G01*
X137825000Y-104900000D02*
X137675000Y-104900000D01*
G75*
G02*
X137600000Y-104825000I0J75000D01*
G01*
X137600000Y-103500000D01*
G75*
G02*
X137675000Y-103425000I75000J0D01*
G01*
X137825000Y-103425000D01*
G75*
G02*
X137900000Y-103500000I0J-75000D01*
G01*
X137900000Y-104825000D01*
G75*
G02*
X137825000Y-104900000I-75000J0D01*
G01*
G37*
%TD.AperFunction*%
%TO.P,U1,13*%
%TO.N,+5V*%
%TA.AperFunction,SMDPad,CuDef*%
G36*
G01*
X139825000Y-102900000D02*
X138500000Y-102900000D01*
G75*
G02*
X138425000Y-102825000I0J75000D01*
G01*
X138425000Y-102675000D01*
G75*
G02*
X138500000Y-102600000I75000J0D01*
G01*
X139825000Y-102600000D01*
G75*
G02*
X139900000Y-102675000I0J-75000D01*
G01*
X139900000Y-102825000D01*
G75*
G02*
X139825000Y-102900000I-75000J0D01*
G01*
G37*
%TD.AperFunction*%
%TO.P,U1,14*%
%TO.N,GND*%
%TA.AperFunction,SMDPad,CuDef*%
G36*
G01*
X139825000Y-102400000D02*
X138500000Y-102400000D01*
G75*
G02*
X138425000Y-102325000I0J75000D01*
G01*
X138425000Y-102175000D01*
G75*
G02*
X138500000Y-102100000I75000J0D01*
G01*
X139825000Y-102100000D01*
G75*
G02*
X139900000Y-102175000I0J-75000D01*
G01*
X139900000Y-102325000D01*
G75*
G02*
X139825000Y-102400000I-75000J0D01*
G01*
G37*
%TD.AperFunction*%
%TO.P,U1,15*%
%TO.N,N/C*%
%TA.AperFunction,SMDPad,CuDef*%
G36*
G01*
X139825000Y-101900000D02*
X138500000Y-101900000D01*
G75*
G02*
X138425000Y-101825000I0J75000D01*
G01*
X138425000Y-101675000D01*
G75*
G02*
X138500000Y-101600000I75000J0D01*
G01*
X139825000Y-101600000D01*
G75*
G02*
X139900000Y-101675000I0J-75000D01*
G01*
X139900000Y-101825000D01*
G75*
G02*
X139825000Y-101900000I-75000J0D01*
G01*
G37*
%TD.AperFunction*%
%TO.P,U1,16*%
%TA.AperFunction,SMDPad,CuDef*%
G36*
G01*
X139825000Y-101400000D02*
X138500000Y-101400000D01*
G75*
G02*
X138425000Y-101325000I0J75000D01*
G01*
X138425000Y-101175000D01*
G75*
G02*
X138500000Y-101100000I75000J0D01*
G01*
X139825000Y-101100000D01*
G75*
G02*
X139900000Y-101175000I0J-75000D01*
G01*
X139900000Y-101325000D01*
G75*
G02*
X139825000Y-101400000I-75000J0D01*
G01*
G37*
%TD.AperFunction*%
%TO.P,U1,17*%
%TO.N,i2c_sda*%
%TA.AperFunction,SMDPad,CuDef*%
G36*
G01*
X139825000Y-100900000D02*
X138500000Y-100900000D01*
G75*
G02*
X138425000Y-100825000I0J75000D01*
G01*
X138425000Y-100675000D01*
G75*
G02*
X138500000Y-100600000I75000J0D01*
G01*
X139825000Y-100600000D01*
G75*
G02*
X139900000Y-100675000I0J-75000D01*
G01*
X139900000Y-100825000D01*
G75*
G02*
X139825000Y-100900000I-75000J0D01*
G01*
G37*
%TD.AperFunction*%
%TO.P,U1,18*%
%TO.N,i2c_scl*%
%TA.AperFunction,SMDPad,CuDef*%
G36*
G01*
X139825000Y-100400000D02*
X138500000Y-100400000D01*
G75*
G02*
X138425000Y-100325000I0J75000D01*
G01*
X138425000Y-100175000D01*
G75*
G02*
X138500000Y-100100000I75000J0D01*
G01*
X139825000Y-100100000D01*
G75*
G02*
X139900000Y-100175000I0J-75000D01*
G01*
X139900000Y-100325000D01*
G75*
G02*
X139825000Y-100400000I-75000J0D01*
G01*
G37*
%TD.AperFunction*%
%TO.P,U1,19*%
%TO.N,hmi_error*%
%TA.AperFunction,SMDPad,CuDef*%
G36*
G01*
X139825000Y-99900000D02*
X138500000Y-99900000D01*
G75*
G02*
X138425000Y-99825000I0J75000D01*
G01*
X138425000Y-99675000D01*
G75*
G02*
X138500000Y-99600000I75000J0D01*
G01*
X139825000Y-99600000D01*
G75*
G02*
X139900000Y-99675000I0J-75000D01*
G01*
X139900000Y-99825000D01*
G75*
G02*
X139825000Y-99900000I-75000J0D01*
G01*
G37*
%TD.AperFunction*%
%TO.P,U1,20*%
%TA.AperFunction,SMDPad,CuDef*%
G36*
G01*
X139825000Y-99400000D02*
X138500000Y-99400000D01*
G75*
G02*
X138425000Y-99325000I0J75000D01*
G01*
X138425000Y-99175000D01*
G75*
G02*
X138500000Y-99100000I75000J0D01*
G01*
X139825000Y-99100000D01*
G75*
G02*
X139900000Y-99175000I0J-75000D01*
G01*
X139900000Y-99325000D01*
G75*
G02*
X139825000Y-99400000I-75000J0D01*
G01*
G37*
%TD.AperFunction*%
%TO.P,U1,21*%
%TO.N,N/C*%
%TA.AperFunction,SMDPad,CuDef*%
G36*
G01*
X139825000Y-98900000D02*
X138500000Y-98900000D01*
G75*
G02*
X138425000Y-98825000I0J75000D01*
G01*
X138425000Y-98675000D01*
G75*
G02*
X138500000Y-98600000I75000J0D01*
G01*
X139825000Y-98600000D01*
G75*
G02*
X139900000Y-98675000I0J-75000D01*
G01*
X139900000Y-98825000D01*
G75*
G02*
X139825000Y-98900000I-75000J0D01*
G01*
G37*
%TD.AperFunction*%
%TO.P,U1,22*%
%TA.AperFunction,SMDPad,CuDef*%
G36*
G01*
X139825000Y-98400000D02*
X138500000Y-98400000D01*
G75*
G02*
X138425000Y-98325000I0J75000D01*
G01*
X138425000Y-98175000D01*
G75*
G02*
X138500000Y-98100000I75000J0D01*
G01*
X139825000Y-98100000D01*
G75*
G02*
X139900000Y-98175000I0J-75000D01*
G01*
X139900000Y-98325000D01*
G75*
G02*
X139825000Y-98400000I-75000J0D01*
G01*
G37*
%TD.AperFunction*%
%TO.P,U1,23*%
%TO.N,hmi_status*%
%TA.AperFunction,SMDPad,CuDef*%
G36*
G01*
X139825000Y-97900000D02*
X138500000Y-97900000D01*
G75*
G02*
X138425000Y-97825000I0J75000D01*
G01*
X138425000Y-97675000D01*
G75*
G02*
X138500000Y-97600000I75000J0D01*
G01*
X139825000Y-97600000D01*
G75*
G02*
X139900000Y-97675000I0J-75000D01*
G01*
X139900000Y-97825000D01*
G75*
G02*
X139825000Y-97900000I-75000J0D01*
G01*
G37*
%TD.AperFunction*%
%TO.P,U1,24*%
%TA.AperFunction,SMDPad,CuDef*%
G36*
G01*
X139825000Y-97400000D02*
X138500000Y-97400000D01*
G75*
G02*
X138425000Y-97325000I0J75000D01*
G01*
X138425000Y-97175000D01*
G75*
G02*
X138500000Y-97100000I75000J0D01*
G01*
X139825000Y-97100000D01*
G75*
G02*
X139900000Y-97175000I0J-75000D01*
G01*
X139900000Y-97325000D01*
G75*
G02*
X139825000Y-97400000I-75000J0D01*
G01*
G37*
%TD.AperFunction*%
%TO.P,U1,25*%
%TO.N,e22_nss*%
%TA.AperFunction,SMDPad,CuDef*%
G36*
G01*
X137825000Y-96575000D02*
X137675000Y-96575000D01*
G75*
G02*
X137600000Y-96500000I0J75000D01*
G01*
X137600000Y-95175000D01*
G75*
G02*
X137675000Y-95100000I75000J0D01*
G01*
X137825000Y-95100000D01*
G75*
G02*
X137900000Y-95175000I0J-75000D01*
G01*
X137900000Y-96500000D01*
G75*
G02*
X137825000Y-96575000I-75000J0D01*
G01*
G37*
%TD.AperFunction*%
%TO.P,U1,26*%
%TO.N,pwm_ch1*%
%TA.AperFunction,SMDPad,CuDef*%
G36*
G01*
X137325000Y-96575000D02*
X137175000Y-96575000D01*
G75*
G02*
X137100000Y-96500000I0J75000D01*
G01*
X137100000Y-95175000D01*
G75*
G02*
X137175000Y-95100000I75000J0D01*
G01*
X137325000Y-95100000D01*
G75*
G02*
X137400000Y-95175000I0J-75000D01*
G01*
X137400000Y-96500000D01*
G75*
G02*
X137325000Y-96575000I-75000J0D01*
G01*
G37*
%TD.AperFunction*%
%TO.P,U1,27*%
%TO.N,pwm_ch2*%
%TA.AperFunction,SMDPad,CuDef*%
G36*
G01*
X136825000Y-96575000D02*
X136675000Y-96575000D01*
G75*
G02*
X136600000Y-96500000I0J75000D01*
G01*
X136600000Y-95175000D01*
G75*
G02*
X136675000Y-95100000I75000J0D01*
G01*
X136825000Y-95100000D01*
G75*
G02*
X136900000Y-95175000I0J-75000D01*
G01*
X136900000Y-96500000D01*
G75*
G02*
X136825000Y-96575000I-75000J0D01*
G01*
G37*
%TD.AperFunction*%
%TO.P,U1,28*%
%TO.N,pwm_ch3*%
%TA.AperFunction,SMDPad,CuDef*%
G36*
G01*
X136325000Y-96575000D02*
X136175000Y-96575000D01*
G75*
G02*
X136100000Y-96500000I0J75000D01*
G01*
X136100000Y-95175000D01*
G75*
G02*
X136175000Y-95100000I75000J0D01*
G01*
X136325000Y-95100000D01*
G75*
G02*
X136400000Y-95175000I0J-75000D01*
G01*
X136400000Y-96500000D01*
G75*
G02*
X136325000Y-96575000I-75000J0D01*
G01*
G37*
%TD.AperFunction*%
%TO.P,U1,29*%
%TO.N,pwm_ch4*%
%TA.AperFunction,SMDPad,CuDef*%
G36*
G01*
X135825000Y-96575000D02*
X135675000Y-96575000D01*
G75*
G02*
X135600000Y-96500000I0J75000D01*
G01*
X135600000Y-95175000D01*
G75*
G02*
X135675000Y-95100000I75000J0D01*
G01*
X135825000Y-95100000D01*
G75*
G02*
X135900000Y-95175000I0J-75000D01*
G01*
X135900000Y-96500000D01*
G75*
G02*
X135825000Y-96575000I-75000J0D01*
G01*
G37*
%TD.AperFunction*%
%TO.P,U1,30*%
%TO.N,spi_sck*%
%TA.AperFunction,SMDPad,CuDef*%
G36*
G01*
X135325000Y-96575000D02*
X135175000Y-96575000D01*
G75*
G02*
X135100000Y-96500000I0J75000D01*
G01*
X135100000Y-95175000D01*
G75*
G02*
X135175000Y-95100000I75000J0D01*
G01*
X135325000Y-95100000D01*
G75*
G02*
X135400000Y-95175000I0J-75000D01*
G01*
X135400000Y-96500000D01*
G75*
G02*
X135325000Y-96575000I-75000J0D01*
G01*
G37*
%TD.AperFunction*%
%TO.P,U1,31*%
%TO.N,GND*%
%TA.AperFunction,SMDPad,CuDef*%
G36*
G01*
X134825000Y-96575000D02*
X134675000Y-96575000D01*
G75*
G02*
X134600000Y-96500000I0J75000D01*
G01*
X134600000Y-95175000D01*
G75*
G02*
X134675000Y-95100000I75000J0D01*
G01*
X134825000Y-95100000D01*
G75*
G02*
X134900000Y-95175000I0J-75000D01*
G01*
X134900000Y-96500000D01*
G75*
G02*
X134825000Y-96575000I-75000J0D01*
G01*
G37*
%TD.AperFunction*%
%TO.P,U1,32*%
%TO.N,+5V*%
%TA.AperFunction,SMDPad,CuDef*%
G36*
G01*
X134325000Y-96575000D02*
X134175000Y-96575000D01*
G75*
G02*
X134100000Y-96500000I0J75000D01*
G01*
X134100000Y-95175000D01*
G75*
G02*
X134175000Y-95100000I75000J0D01*
G01*
X134325000Y-95100000D01*
G75*
G02*
X134400000Y-95175000I0J-75000D01*
G01*
X134400000Y-96500000D01*
G75*
G02*
X134325000Y-96575000I-75000J0D01*
G01*
G37*
%TD.AperFunction*%
%TO.P,U1,33*%
%TO.N,spi_mosi*%
%TA.AperFunction,SMDPad,CuDef*%
G36*
G01*
X133825000Y-96575000D02*
X133675000Y-96575000D01*
G75*
G02*
X133600000Y-96500000I0J75000D01*
G01*
X133600000Y-95175000D01*
G75*
G02*
X133675000Y-95100000I75000J0D01*
G01*
X133825000Y-95100000D01*
G75*
G02*
X133900000Y-95175000I0J-75000D01*
G01*
X133900000Y-96500000D01*
G75*
G02*
X133825000Y-96575000I-75000J0D01*
G01*
G37*
%TD.AperFunction*%
%TO.P,U1,34*%
%TO.N,spi_miso*%
%TA.AperFunction,SMDPad,CuDef*%
G36*
G01*
X133325000Y-96575000D02*
X133175000Y-96575000D01*
G75*
G02*
X133100000Y-96500000I0J75000D01*
G01*
X133100000Y-95175000D01*
G75*
G02*
X133175000Y-95100000I75000J0D01*
G01*
X133325000Y-95100000D01*
G75*
G02*
X133400000Y-95175000I0J-75000D01*
G01*
X133400000Y-96500000D01*
G75*
G02*
X133325000Y-96575000I-75000J0D01*
G01*
G37*
%TD.AperFunction*%
%TO.P,U1,35*%
%TO.N,e22_nrst*%
%TA.AperFunction,SMDPad,CuDef*%
G36*
G01*
X132825000Y-96575000D02*
X132675000Y-96575000D01*
G75*
G02*
X132600000Y-96500000I0J75000D01*
G01*
X132600000Y-95175000D01*
G75*
G02*
X132675000Y-95100000I75000J0D01*
G01*
X132825000Y-95100000D01*
G75*
G02*
X132900000Y-95175000I0J-75000D01*
G01*
X132900000Y-96500000D01*
G75*
G02*
X132825000Y-96575000I-75000J0D01*
G01*
G37*
%TD.AperFunction*%
%TO.P,U1,36*%
%TO.N,e22_busy*%
%TA.AperFunction,SMDPad,CuDef*%
G36*
G01*
X132325000Y-96575000D02*
X132175000Y-96575000D01*
G75*
G02*
X132100000Y-96500000I0J75000D01*
G01*
X132100000Y-95175000D01*
G75*
G02*
X132175000Y-95100000I75000J0D01*
G01*
X132325000Y-95100000D01*
G75*
G02*
X132400000Y-95175000I0J-75000D01*
G01*
X132400000Y-96500000D01*
G75*
G02*
X132325000Y-96575000I-75000J0D01*
G01*
G37*
%TD.AperFunction*%
%TO.P,U1,37*%
%TO.N,e22_dio1*%
%TA.AperFunction,SMDPad,CuDef*%
G36*
G01*
X131500000Y-97400000D02*
X130175000Y-97400000D01*
G75*
G02*
X130100000Y-97325000I0J75000D01*
G01*
X130100000Y-97175000D01*
G75*
G02*
X130175000Y-97100000I75000J0D01*
G01*
X131500000Y-97100000D01*
G75*
G02*
X131575000Y-97175000I0J-75000D01*
G01*
X131575000Y-97325000D01*
G75*
G02*
X131500000Y-97400000I-75000J0D01*
G01*
G37*
%TD.AperFunction*%
%TO.P,U1,38*%
%TO.N,N/C*%
%TA.AperFunction,SMDPad,CuDef*%
G36*
G01*
X131500000Y-97900000D02*
X130175000Y-97900000D01*
G75*
G02*
X130100000Y-97825000I0J75000D01*
G01*
X130100000Y-97675000D01*
G75*
G02*
X130175000Y-97600000I75000J0D01*
G01*
X131500000Y-97600000D01*
G75*
G02*
X131575000Y-97675000I0J-75000D01*
G01*
X131575000Y-97825000D01*
G75*
G02*
X131500000Y-97900000I-75000J0D01*
G01*
G37*
%TD.AperFunction*%
%TO.P,U1,39*%
%TA.AperFunction,SMDPad,CuDef*%
G36*
G01*
X131500000Y-98400000D02*
X130175000Y-98400000D01*
G75*
G02*
X130100000Y-98325000I0J75000D01*
G01*
X130100000Y-98175000D01*
G75*
G02*
X130175000Y-98100000I75000J0D01*
G01*
X131500000Y-98100000D01*
G75*
G02*
X131575000Y-98175000I0J-75000D01*
G01*
X131575000Y-98325000D01*
G75*
G02*
X131500000Y-98400000I-75000J0D01*
G01*
G37*
%TD.AperFunction*%
%TO.P,U1,40*%
%TA.AperFunction,SMDPad,CuDef*%
G36*
G01*
X131500000Y-98900000D02*
X130175000Y-98900000D01*
G75*
G02*
X130100000Y-98825000I0J75000D01*
G01*
X130100000Y-98675000D01*
G75*
G02*
X130175000Y-98600000I75000J0D01*
G01*
X131500000Y-98600000D01*
G75*
G02*
X131575000Y-98675000I0J-75000D01*
G01*
X131575000Y-98825000D01*
G75*
G02*
X131500000Y-98900000I-75000J0D01*
G01*
G37*
%TD.AperFunction*%
%TO.P,U1,41*%
%TO.N,pwm_ch5*%
%TA.AperFunction,SMDPad,CuDef*%
G36*
G01*
X131500000Y-99400000D02*
X130175000Y-99400000D01*
G75*
G02*
X130100000Y-99325000I0J75000D01*
G01*
X130100000Y-99175000D01*
G75*
G02*
X130175000Y-99100000I75000J0D01*
G01*
X131500000Y-99100000D01*
G75*
G02*
X131575000Y-99175000I0J-75000D01*
G01*
X131575000Y-99325000D01*
G75*
G02*
X131500000Y-99400000I-75000J0D01*
G01*
G37*
%TD.AperFunction*%
%TO.P,U1,42*%
%TO.N,swim*%
%TA.AperFunction,SMDPad,CuDef*%
G36*
G01*
X131500000Y-99900000D02*
X130175000Y-99900000D01*
G75*
G02*
X130100000Y-99825000I0J75000D01*
G01*
X130100000Y-99675000D01*
G75*
G02*
X130175000Y-99600000I75000J0D01*
G01*
X131500000Y-99600000D01*
G75*
G02*
X131575000Y-99675000I0J-75000D01*
G01*
X131575000Y-99825000D01*
G75*
G02*
X131500000Y-99900000I-75000J0D01*
G01*
G37*
%TD.AperFunction*%
%TO.P,U1,43*%
%TO.N,pwm_ch6*%
%TA.AperFunction,SMDPad,CuDef*%
G36*
G01*
X131500000Y-100400000D02*
X130175000Y-100400000D01*
G75*
G02*
X130100000Y-100325000I0J75000D01*
G01*
X130100000Y-100175000D01*
G75*
G02*
X130175000Y-100100000I75000J0D01*
G01*
X131500000Y-100100000D01*
G75*
G02*
X131575000Y-100175000I0J-75000D01*
G01*
X131575000Y-100325000D01*
G75*
G02*
X131500000Y-100400000I-75000J0D01*
G01*
G37*
%TD.AperFunction*%
%TO.P,U1,44*%
%TO.N,pwm_ch7*%
%TA.AperFunction,SMDPad,CuDef*%
G36*
G01*
X131500000Y-100900000D02*
X130175000Y-100900000D01*
G75*
G02*
X130100000Y-100825000I0J75000D01*
G01*
X130100000Y-100675000D01*
G75*
G02*
X130175000Y-100600000I75000J0D01*
G01*
X131500000Y-100600000D01*
G75*
G02*
X131575000Y-100675000I0J-75000D01*
G01*
X131575000Y-100825000D01*
G75*
G02*
X131500000Y-100900000I-75000J0D01*
G01*
G37*
%TD.AperFunction*%
%TO.P,U1,45*%
%TO.N,pwm_ch8*%
%TA.AperFunction,SMDPad,CuDef*%
G36*
G01*
X131500000Y-101400000D02*
X130175000Y-101400000D01*
G75*
G02*
X130100000Y-101325000I0J75000D01*
G01*
X130100000Y-101175000D01*
G75*
G02*
X130175000Y-101100000I75000J0D01*
G01*
X131500000Y-101100000D01*
G75*
G02*
X131575000Y-101175000I0J-75000D01*
G01*
X131575000Y-101325000D01*
G75*
G02*
X131500000Y-101400000I-75000J0D01*
G01*
G37*
%TD.AperFunction*%
%TO.P,U1,46*%
%TO.N,i2c_scl*%
%TA.AperFunction,SMDPad,CuDef*%
G36*
G01*
X131500000Y-101900000D02*
X130175000Y-101900000D01*
G75*
G02*
X130100000Y-101825000I0J75000D01*
G01*
X130100000Y-101675000D01*
G75*
G02*
X130175000Y-101600000I75000J0D01*
G01*
X131500000Y-101600000D01*
G75*
G02*
X131575000Y-101675000I0J-75000D01*
G01*
X131575000Y-101825000D01*
G75*
G02*
X131500000Y-101900000I-75000J0D01*
G01*
G37*
%TD.AperFunction*%
%TO.P,U1,47*%
%TO.N,i2c_sda*%
%TA.AperFunction,SMDPad,CuDef*%
G36*
G01*
X131500000Y-102400000D02*
X130175000Y-102400000D01*
G75*
G02*
X130100000Y-102325000I0J75000D01*
G01*
X130100000Y-102175000D01*
G75*
G02*
X130175000Y-102100000I75000J0D01*
G01*
X131500000Y-102100000D01*
G75*
G02*
X131575000Y-102175000I0J-75000D01*
G01*
X131575000Y-102325000D01*
G75*
G02*
X131500000Y-102400000I-75000J0D01*
G01*
G37*
%TD.AperFunction*%
%TO.P,U1,48*%
%TO.N,e22_dio2*%
%TA.AperFunction,SMDPad,CuDef*%
G36*
G01*
X131500000Y-102900000D02*
X130175000Y-102900000D01*
G75*
G02*
X130100000Y-102825000I0J75000D01*
G01*
X130100000Y-102675000D01*
G75*
G02*
X130175000Y-102600000I75000J0D01*
G01*
X131500000Y-102600000D01*
G75*
G02*
X131575000Y-102675000I0J-75000D01*
G01*
X131575000Y-102825000D01*
G75*
G02*
X131500000Y-102900000I-75000J0D01*
G01*
G37*
%TD.AperFunction*%
%TD*%
%TO.P,C8,1*%
%TO.N,nrst*%
%TA.AperFunction,SMDPad,CuDef*%
G36*
G01*
X138658000Y-93504000D02*
X139158000Y-93504000D01*
G75*
G02*
X139383000Y-93729000I0J-225000D01*
G01*
X139383000Y-94179000D01*
G75*
G02*
X139158000Y-94404000I-225000J0D01*
G01*
X138658000Y-94404000D01*
G75*
G02*
X138433000Y-94179000I0J225000D01*
G01*
X138433000Y-93729000D01*
G75*
G02*
X138658000Y-93504000I225000J0D01*
G01*
G37*
%TD.AperFunction*%
%TO.P,C8,2*%
%TO.N,GND*%
%TA.AperFunction,SMDPad,CuDef*%
G36*
G01*
X138658000Y-95054000D02*
X139158000Y-95054000D01*
G75*
G02*
X139383000Y-95279000I0J-225000D01*
G01*
X139383000Y-95729000D01*
G75*
G02*
X139158000Y-95954000I-225000J0D01*
G01*
X138658000Y-95954000D01*
G75*
G02*
X138433000Y-95729000I0J225000D01*
G01*
X138433000Y-95279000D01*
G75*
G02*
X138658000Y-95054000I225000J0D01*
G01*
G37*
%TD.AperFunction*%
%TD*%
D14*
%TO.N,e22_nss*%
X138310000Y-90290000D03*
%TO.N,spi_sck*%
X137040000Y-90290000D03*
%TO.N,spi_miso*%
X134500000Y-90290000D03*
%TO.N,spi_mosi*%
X135770000Y-90290000D03*
%TO.N,e22_rxen*%
X135770000Y-109720000D03*
%TO.N,e22_txen*%
X134500000Y-109710000D03*
%TO.N,e22_dio1*%
X130690000Y-90290000D03*
%TO.N,e22_dio2*%
X133260000Y-109730000D03*
%TO.N,e22_busy*%
X131960000Y-90290000D03*
%TO.N,e22_nrst*%
X133230000Y-90290000D03*
%TO.N,GND*%
X130545000Y-109190000D03*
X129420000Y-105250000D03*
X143920000Y-107890000D03*
X146420000Y-94750000D03*
X134000000Y-102950000D03*
X145170000Y-96600000D03*
X141870000Y-101725000D03*
D15*
X127770000Y-107610000D03*
X127740000Y-102550000D03*
D14*
X134738051Y-97088051D03*
X127610000Y-94910000D03*
X129420000Y-92250000D03*
X139190000Y-106880000D03*
X143000000Y-106500000D03*
X141290000Y-104930000D03*
X145620000Y-107740000D03*
X147200000Y-107810000D03*
X145170000Y-104400000D03*
X143009996Y-93500000D03*
X138810000Y-107830000D03*
X136580000Y-108629998D03*
X138910000Y-96450000D03*
%TO.N,+3V3*%
X132095000Y-109190000D03*
X138480000Y-104180000D03*
%TO.N,pwm_ch4*%
X135250000Y-97900000D03*
%TO.N,pwm_ch3*%
X136250000Y-97900000D03*
%TO.N,pwm_ch2*%
X137250000Y-97900000D03*
%TO.N,pwm_ch1*%
X137750000Y-97100000D03*
%TO.N,+5V*%
X145170000Y-97600000D03*
D15*
X127575000Y-105090000D03*
D14*
X133750000Y-97100000D03*
X128050000Y-92380000D03*
D15*
X127630000Y-97450000D03*
D14*
X135500000Y-102950000D03*
X141870000Y-108820000D03*
X147200000Y-90710000D03*
X147146714Y-109353286D03*
X141640000Y-104020000D03*
X142630000Y-105399994D03*
%TO.N,nrst*%
X132250000Y-102909996D03*
%TO.N,swim*%
X132080000Y-99750000D03*
%TO.N,uart1_rx*%
X136500000Y-102930000D03*
X145170000Y-102390000D03*
%TO.N,uart1_tx*%
X137500000Y-102930000D03*
X145179529Y-103390569D03*
%TO.N,i2c_sda*%
X137910000Y-101230000D03*
X145179863Y-94750022D03*
%TO.N,i2c_scl*%
X137920000Y-100250000D03*
X145170002Y-95600000D03*
%TD*%
D16*
%TO.N,e22_nss*%
X137750000Y-95034298D02*
X137750000Y-95837500D01*
X137680000Y-94964298D02*
X137750000Y-95034298D01*
X137680000Y-90920000D02*
X137680000Y-94964298D01*
X138310000Y-90290000D02*
X137680000Y-90920000D01*
%TO.N,spi_sck*%
X135272500Y-95837500D02*
X135250000Y-95837500D01*
X135274990Y-95835010D02*
X135272500Y-95837500D01*
X135500000Y-94760000D02*
X135274990Y-94985010D01*
X135274990Y-94985010D02*
X135274990Y-95835010D01*
X136540000Y-94760000D02*
X135500000Y-94760000D01*
X137040000Y-94260000D02*
X136540000Y-94760000D01*
X137040000Y-90290000D02*
X137040000Y-94260000D01*
%TO.N,spi_miso*%
X133250000Y-95034298D02*
X133250000Y-95837500D01*
X133250000Y-91790000D02*
X133250000Y-95034298D01*
X134500000Y-90540000D02*
X133250000Y-91790000D01*
X134500000Y-90290000D02*
X134500000Y-90540000D01*
%TO.N,spi_mosi*%
X133750000Y-92690000D02*
X133750000Y-95837500D01*
X135770000Y-90670000D02*
X133750000Y-92690000D01*
X135770000Y-90290000D02*
X135770000Y-90670000D01*
%TO.N,e22_rxen*%
X135770000Y-108430000D02*
X135770000Y-109720000D01*
X136510010Y-107689990D02*
X135770000Y-108430000D01*
X136510010Y-105265766D02*
X136510010Y-107689990D01*
X136250000Y-105005756D02*
X136510010Y-105265766D01*
X136250000Y-104162500D02*
X136250000Y-105005756D01*
%TO.N,e22_txen*%
X134500000Y-108880000D02*
X134500000Y-109710000D01*
X134130000Y-108510000D02*
X134500000Y-108880000D01*
X133330000Y-108510000D02*
X134130000Y-108510000D01*
X132750000Y-107930000D02*
X133330000Y-108510000D01*
X132750000Y-104162500D02*
X132750000Y-107930000D01*
%TO.N,e22_dio1*%
X130690000Y-90290000D02*
X130690000Y-96200000D01*
X130837500Y-96347500D02*
X130837500Y-97250000D01*
X130690000Y-96200000D02*
X130837500Y-96347500D01*
%TO.N,e22_dio2*%
X133260000Y-109305736D02*
X133260000Y-109730000D01*
X130837500Y-102750000D02*
X130837500Y-106883236D01*
X130837500Y-106883236D02*
X133260000Y-109305736D01*
%TO.N,e22_busy*%
X131960000Y-90290000D02*
X131960000Y-93430000D01*
X132250000Y-93720000D02*
X132250000Y-95837500D01*
X131960000Y-93430000D02*
X132250000Y-93720000D01*
%TO.N,e22_nrst*%
X132750000Y-91320000D02*
X132750000Y-95837500D01*
X133230000Y-90840000D02*
X132750000Y-91320000D01*
X133230000Y-90290000D02*
X133230000Y-90840000D01*
%TO.N,GND*%
X134750000Y-95837500D02*
X134750000Y-97076102D01*
X134750000Y-97076102D02*
X134738051Y-97088051D01*
X133750000Y-103200000D02*
X134000000Y-102950000D01*
X133750000Y-104162500D02*
X133750000Y-103200000D01*
X134250000Y-103200000D02*
X134000000Y-102950000D01*
X134250000Y-104162500D02*
X134250000Y-103200000D01*
X133750000Y-105895000D02*
X133725000Y-105920000D01*
X133750000Y-104162500D02*
X133750000Y-105895000D01*
X134250000Y-105395000D02*
X133725000Y-105920000D01*
X134250000Y-104162500D02*
X134250000Y-105395000D01*
X133725000Y-105920000D02*
X133725000Y-107400000D01*
X140365000Y-102250000D02*
X140890000Y-101725000D01*
X139162500Y-102250000D02*
X140365000Y-102250000D01*
X140890000Y-101725000D02*
X141870000Y-101725000D01*
X135438590Y-94185000D02*
X135700000Y-94185000D01*
X135700000Y-94185000D02*
X136175000Y-93710000D01*
X134750000Y-94873590D02*
X135438590Y-94185000D01*
X134750000Y-95837500D02*
X134750000Y-94873590D01*
D17*
X141290000Y-105880000D02*
X141290000Y-104930000D01*
X144770000Y-108740000D02*
X143920000Y-107890000D01*
X144770000Y-108820000D02*
X144770000Y-108740000D01*
X143900000Y-104400000D02*
X145170000Y-104400000D01*
X143900000Y-96600000D02*
X145170000Y-96600000D01*
D18*
X124230000Y-107610000D02*
X127770000Y-107610000D01*
X122950000Y-108890000D02*
X124230000Y-107610000D01*
X124210000Y-102550000D02*
X127740000Y-102550000D01*
X122950000Y-103810000D02*
X124210000Y-102550000D01*
X124230000Y-94910000D02*
X127610000Y-94910000D01*
X122950000Y-96190000D02*
X124230000Y-94910000D01*
D17*
X137590000Y-107830000D02*
X138810000Y-107830000D01*
D16*
X138908000Y-95504000D02*
X138908000Y-96448000D01*
X138908000Y-96448000D02*
X138910000Y-96450000D01*
%TO.N,+3V3*%
X139340000Y-105930000D02*
X139390000Y-105880000D01*
D17*
X137590000Y-105930000D02*
X139340000Y-105930000D01*
X138480000Y-105040000D02*
X138480000Y-104180000D01*
X137590000Y-105930000D02*
X138480000Y-105040000D01*
D16*
X138400000Y-104260000D02*
X138480000Y-104180000D01*
X138390000Y-104940000D02*
X138400000Y-104930000D01*
%TO.N,pwm_ch8*%
X128030000Y-108890000D02*
X126490000Y-108890000D01*
X128760000Y-104984998D02*
X128760000Y-108160000D01*
X129740000Y-104004998D02*
X128760000Y-104984998D01*
X129740000Y-101512149D02*
X129740000Y-104004998D01*
X128760000Y-108160000D02*
X128030000Y-108890000D01*
X130002149Y-101250000D02*
X129740000Y-101512149D01*
X130837500Y-101250000D02*
X130002149Y-101250000D01*
X126490000Y-108890000D02*
X125490000Y-108890000D01*
%TO.N,pwm_ch7*%
X127740000Y-106350000D02*
X126490000Y-106350000D01*
X128300000Y-105790000D02*
X127740000Y-106350000D01*
X128300000Y-104540000D02*
X128300000Y-105790000D01*
X129280000Y-103560000D02*
X128300000Y-104540000D01*
X129280000Y-101340000D02*
X129280000Y-103560000D01*
X129289991Y-101325748D02*
X129289991Y-101340000D01*
X129865739Y-100750000D02*
X129289991Y-101325748D01*
X130820000Y-100750000D02*
X129865739Y-100750000D01*
X129289991Y-101340000D02*
X129280000Y-101340000D01*
X130837500Y-100767500D02*
X130820000Y-100750000D01*
X130837500Y-100750000D02*
X130837500Y-100767500D01*
X126490000Y-106350000D02*
X125490000Y-106350000D01*
%TO.N,pwm_ch6*%
X128180000Y-103810000D02*
X126490000Y-103810000D01*
X128830000Y-103160000D02*
X128180000Y-103810000D01*
X128830000Y-101130000D02*
X128830000Y-103160000D01*
X129710000Y-100250000D02*
X128830000Y-101130000D01*
X130837500Y-100250000D02*
X129710000Y-100250000D01*
X126490000Y-103810000D02*
X125490000Y-103810000D01*
%TO.N,pwm_ch5*%
X126490000Y-101270000D02*
X125490000Y-101270000D01*
X127840000Y-101270000D02*
X126490000Y-101270000D01*
X129860000Y-99250000D02*
X127840000Y-101270000D01*
X130837500Y-99250000D02*
X129860000Y-99250000D01*
%TO.N,pwm_ch4*%
X135750000Y-97400000D02*
X135250000Y-97900000D01*
X135750000Y-95837500D02*
X135750000Y-97400000D01*
%TO.N,pwm_ch3*%
X136250000Y-95837500D02*
X136250000Y-97900000D01*
%TO.N,pwm_ch2*%
X136750000Y-97400000D02*
X137250000Y-97900000D01*
X136750000Y-95837500D02*
X136750000Y-97400000D01*
%TO.N,pwm_ch1*%
X137250000Y-96710000D02*
X137640000Y-97100000D01*
X137640000Y-97100000D02*
X137750000Y-97100000D01*
X137250000Y-95837500D02*
X137250000Y-96710000D01*
%TO.N,+5V*%
X133811098Y-97100000D02*
X133750000Y-97100000D01*
X134250000Y-96661098D02*
X133811098Y-97100000D01*
X134250000Y-95837500D02*
X134250000Y-96661098D01*
X135250000Y-103200000D02*
X135500000Y-102950000D01*
X135250000Y-104162500D02*
X135250000Y-103200000D01*
X135750000Y-103200000D02*
X135500000Y-102950000D01*
X135750000Y-104162500D02*
X135750000Y-103200000D01*
X135750000Y-105142166D02*
X136050010Y-105442176D01*
X135750000Y-104162500D02*
X135750000Y-105142166D01*
X136060000Y-105452166D02*
X136060000Y-106615000D01*
X136060000Y-106615000D02*
X135275000Y-107400000D01*
X136050010Y-105442176D02*
X136060000Y-105452166D01*
X135727824Y-105119990D02*
X136050010Y-105442176D01*
X135409990Y-105119990D02*
X135727824Y-105119990D01*
X135250000Y-104960000D02*
X135409990Y-105119990D01*
X135250000Y-104162500D02*
X135250000Y-104960000D01*
X140365000Y-102750000D02*
X140890000Y-103275000D01*
X139162500Y-102750000D02*
X140365000Y-102750000D01*
D17*
X142870000Y-108820000D02*
X141870000Y-108820000D01*
D16*
X134250000Y-94085000D02*
X134625000Y-93710000D01*
X134250000Y-95837500D02*
X134250000Y-94085000D01*
X147987500Y-108550000D02*
X147184214Y-109353286D01*
X147184214Y-109353286D02*
X147146714Y-109353286D01*
X142870000Y-108610000D02*
X142870000Y-108820000D01*
D17*
X142140000Y-107880000D02*
X142870000Y-108610000D01*
X140340000Y-107880000D02*
X142140000Y-107880000D01*
D16*
X141635000Y-104020000D02*
X141640000Y-104020000D01*
X140890000Y-103275000D02*
X141635000Y-104020000D01*
X147930000Y-91440000D02*
X147200000Y-90710000D01*
X147987500Y-91440000D02*
X147930000Y-91440000D01*
D17*
X143900000Y-97600000D02*
X145170000Y-97600000D01*
D18*
X121690000Y-97450000D02*
X127630000Y-97450000D01*
X120410000Y-98730000D02*
X121690000Y-97450000D01*
D17*
X143900000Y-105400000D02*
X142630006Y-105400000D01*
D16*
X142630006Y-105400000D02*
X142630000Y-105399994D01*
D18*
X121670000Y-105090000D02*
X127575000Y-105090000D01*
X120410000Y-106350000D02*
X121670000Y-105090000D01*
X121680000Y-92380000D02*
X120410000Y-93650000D01*
X128050000Y-92380000D02*
X121680000Y-92380000D01*
D16*
%TO.N,nrst*%
X132250000Y-104162500D02*
X132250000Y-102909996D01*
X138908000Y-93202000D02*
X138908000Y-93954000D01*
X140410000Y-91700000D02*
X138908000Y-93202000D01*
X140820000Y-91700000D02*
X140410000Y-91700000D01*
%TO.N,vcap*%
X134750000Y-105395000D02*
X135275000Y-105920000D01*
X134750000Y-104162500D02*
X134750000Y-105395000D01*
%TO.N,swim*%
X130837500Y-99750000D02*
X132080000Y-99750000D01*
%TO.N,uart1_rx*%
X136750000Y-103180000D02*
X136500000Y-102930000D01*
X136750000Y-104162500D02*
X136750000Y-103180000D01*
X143910000Y-102390000D02*
X143900000Y-102400000D01*
X145170000Y-102390000D02*
X143910000Y-102390000D01*
%TO.N,uart1_tx*%
X137250000Y-103180000D02*
X137500000Y-102930000D01*
X137250000Y-104162500D02*
X137250000Y-103180000D01*
X145170098Y-103400000D02*
X145179529Y-103390569D01*
X143900000Y-103400000D02*
X145170098Y-103400000D01*
%TO.N,i2c_sda*%
X135240000Y-102250000D02*
X136260000Y-101230000D01*
X136260000Y-101230000D02*
X137910000Y-101230000D01*
X130837500Y-102250000D02*
X135240000Y-102250000D01*
X137910000Y-101199298D02*
X137910000Y-101230000D01*
X138334308Y-100774990D02*
X137910000Y-101199298D01*
X139160010Y-100774990D02*
X138334308Y-100774990D01*
X139162500Y-100772500D02*
X139160010Y-100774990D01*
X139162500Y-100750000D02*
X139162500Y-100772500D01*
X145029841Y-94600000D02*
X145179863Y-94750022D01*
X143780000Y-94600000D02*
X145029841Y-94600000D01*
%TO.N,i2c_scl*%
X139162500Y-100250000D02*
X137920000Y-100250000D01*
X136450000Y-100250000D02*
X137920000Y-100250000D01*
X134950000Y-101750000D02*
X136450000Y-100250000D01*
X130837500Y-101750000D02*
X134950000Y-101750000D01*
X143900000Y-95600000D02*
X145170002Y-95600000D01*
%TO.N,Net-(D1-Pad1)*%
X146412500Y-101892500D02*
X146412500Y-108550000D01*
X142875000Y-98355000D02*
X146412500Y-101892500D01*
X141478000Y-98355000D02*
X142875000Y-98355000D01*
%TO.N,Net-(D2-Pad1)*%
X146412500Y-91440000D02*
X143040000Y-91440000D01*
X143040000Y-91440000D02*
X142260000Y-92220000D01*
X142260000Y-94583000D02*
X141478000Y-95365000D01*
X142260000Y-92220000D02*
X142260000Y-94583000D01*
%TO.N,hmi_error*%
X139162500Y-99250000D02*
X139162500Y-99750000D01*
X140575000Y-100005000D02*
X141478000Y-100005000D01*
X140320000Y-99750000D02*
X140575000Y-100005000D01*
X139162500Y-99750000D02*
X140320000Y-99750000D01*
%TO.N,hmi_status*%
X139162500Y-97750000D02*
X139162500Y-97250000D01*
X140575000Y-97015000D02*
X141478000Y-97015000D01*
X140340000Y-97250000D02*
X140575000Y-97015000D01*
X139162500Y-97250000D02*
X140340000Y-97250000D01*
%TD*%
M02*
