%TF.GenerationSoftware,KiCad,Pcbnew,5.1.8-db9833491~87~ubuntu20.04.1*%
%TF.CreationDate,2020-11-23T17:04:18+01:00*%
%TF.ProjectId,rosalyn-rx,726f7361-6c79-46e2-9d72-782e6b696361,v1.0*%
%TF.SameCoordinates,Original*%
%TF.FileFunction,Paste,Bot*%
%TF.FilePolarity,Positive*%
%FSLAX46Y46*%
G04 Gerber Fmt 4.6, Leading zero omitted, Abs format (unit mm)*
G04 Created by KiCad (PCBNEW 5.1.8-db9833491~87~ubuntu20.04.1) date 2020-11-23 17:04:18*
%MOMM*%
%LPD*%
G01*
G04 APERTURE LIST*
%ADD10R,0.750000X1.500000*%
G04 APERTURE END LIST*
%TO.C,C14*%
G36*
G01*
X149190000Y-106215000D02*
X149190000Y-105265000D01*
G75*
G02*
X149440000Y-105015000I250000J0D01*
G01*
X149940000Y-105015000D01*
G75*
G02*
X150190000Y-105265000I0J-250000D01*
G01*
X150190000Y-106215000D01*
G75*
G02*
X149940000Y-106465000I-250000J0D01*
G01*
X149440000Y-106465000D01*
G75*
G02*
X149190000Y-106215000I0J250000D01*
G01*
G37*
G36*
G01*
X151090000Y-106215000D02*
X151090000Y-105265000D01*
G75*
G02*
X151340000Y-105015000I250000J0D01*
G01*
X151840000Y-105015000D01*
G75*
G02*
X152090000Y-105265000I0J-250000D01*
G01*
X152090000Y-106215000D01*
G75*
G02*
X151840000Y-106465000I-250000J0D01*
G01*
X151340000Y-106465000D01*
G75*
G02*
X151090000Y-106215000I0J250000D01*
G01*
G37*
%TD*%
%TO.C,C15*%
G36*
G01*
X150840000Y-103575000D02*
X151340000Y-103575000D01*
G75*
G02*
X151565000Y-103800000I0J-225000D01*
G01*
X151565000Y-104250000D01*
G75*
G02*
X151340000Y-104475000I-225000J0D01*
G01*
X150840000Y-104475000D01*
G75*
G02*
X150615000Y-104250000I0J225000D01*
G01*
X150615000Y-103800000D01*
G75*
G02*
X150840000Y-103575000I225000J0D01*
G01*
G37*
G36*
G01*
X150840000Y-102025000D02*
X151340000Y-102025000D01*
G75*
G02*
X151565000Y-102250000I0J-225000D01*
G01*
X151565000Y-102700000D01*
G75*
G02*
X151340000Y-102925000I-225000J0D01*
G01*
X150840000Y-102925000D01*
G75*
G02*
X150615000Y-102700000I0J225000D01*
G01*
X150615000Y-102250000D01*
G75*
G02*
X150840000Y-102025000I225000J0D01*
G01*
G37*
%TD*%
%TO.C,C6*%
G36*
G01*
X149350000Y-103575000D02*
X149850000Y-103575000D01*
G75*
G02*
X150075000Y-103800000I0J-225000D01*
G01*
X150075000Y-104250000D01*
G75*
G02*
X149850000Y-104475000I-225000J0D01*
G01*
X149350000Y-104475000D01*
G75*
G02*
X149125000Y-104250000I0J225000D01*
G01*
X149125000Y-103800000D01*
G75*
G02*
X149350000Y-103575000I225000J0D01*
G01*
G37*
G36*
G01*
X149350000Y-102025000D02*
X149850000Y-102025000D01*
G75*
G02*
X150075000Y-102250000I0J-225000D01*
G01*
X150075000Y-102700000D01*
G75*
G02*
X149850000Y-102925000I-225000J0D01*
G01*
X149350000Y-102925000D01*
G75*
G02*
X149125000Y-102700000I0J225000D01*
G01*
X149125000Y-102250000D01*
G75*
G02*
X149350000Y-102025000I225000J0D01*
G01*
G37*
%TD*%
%TO.C,FB2*%
G36*
G01*
X151245000Y-107991250D02*
X151245000Y-107228750D01*
G75*
G02*
X151463750Y-107010000I218750J0D01*
G01*
X151901250Y-107010000D01*
G75*
G02*
X152120000Y-107228750I0J-218750D01*
G01*
X152120000Y-107991250D01*
G75*
G02*
X151901250Y-108210000I-218750J0D01*
G01*
X151463750Y-108210000D01*
G75*
G02*
X151245000Y-107991250I0J218750D01*
G01*
G37*
G36*
G01*
X149120000Y-107991250D02*
X149120000Y-107228750D01*
G75*
G02*
X149338750Y-107010000I218750J0D01*
G01*
X149776250Y-107010000D01*
G75*
G02*
X149995000Y-107228750I0J-218750D01*
G01*
X149995000Y-107991250D01*
G75*
G02*
X149776250Y-108210000I-218750J0D01*
G01*
X149338750Y-108210000D01*
G75*
G02*
X149120000Y-107991250I0J218750D01*
G01*
G37*
%TD*%
D10*
%TO.C,U2*%
X147420000Y-106500000D03*
X146150000Y-106500000D03*
X144880000Y-106500000D03*
X139310000Y-106500000D03*
X138040000Y-106500000D03*
X136770000Y-106500000D03*
X135500000Y-106500000D03*
X134230000Y-106500000D03*
X132960000Y-106500000D03*
X131690000Y-106500000D03*
X130420000Y-106500000D03*
X130420000Y-93500000D03*
X131690000Y-93500000D03*
X132960000Y-93500000D03*
X134230000Y-93500000D03*
X135500000Y-93500000D03*
X136770000Y-93500000D03*
X138040000Y-93500000D03*
X139310000Y-93500000D03*
X144880000Y-93500000D03*
X146150000Y-93500000D03*
X147420000Y-93500000D03*
%TD*%
%TO.C,U6*%
G36*
G01*
X149450000Y-101087500D02*
X149450000Y-100912500D01*
G75*
G02*
X149537500Y-100825000I87500J0D01*
G01*
X149912500Y-100825000D01*
G75*
G02*
X150000000Y-100912500I0J-87500D01*
G01*
X150000000Y-101087500D01*
G75*
G02*
X149912500Y-101175000I-87500J0D01*
G01*
X149537500Y-101175000D01*
G75*
G02*
X149450000Y-101087500I0J87500D01*
G01*
G37*
G36*
G01*
X149450000Y-100587500D02*
X149450000Y-100412500D01*
G75*
G02*
X149537500Y-100325000I87500J0D01*
G01*
X149912500Y-100325000D01*
G75*
G02*
X150000000Y-100412500I0J-87500D01*
G01*
X150000000Y-100587500D01*
G75*
G02*
X149912500Y-100675000I-87500J0D01*
G01*
X149537500Y-100675000D01*
G75*
G02*
X149450000Y-100587500I0J87500D01*
G01*
G37*
G36*
G01*
X149450000Y-100087500D02*
X149450000Y-99912500D01*
G75*
G02*
X149537500Y-99825000I87500J0D01*
G01*
X149912500Y-99825000D01*
G75*
G02*
X150000000Y-99912500I0J-87500D01*
G01*
X150000000Y-100087500D01*
G75*
G02*
X149912500Y-100175000I-87500J0D01*
G01*
X149537500Y-100175000D01*
G75*
G02*
X149450000Y-100087500I0J87500D01*
G01*
G37*
G36*
G01*
X149450000Y-99587500D02*
X149450000Y-99412500D01*
G75*
G02*
X149537500Y-99325000I87500J0D01*
G01*
X149912500Y-99325000D01*
G75*
G02*
X150000000Y-99412500I0J-87500D01*
G01*
X150000000Y-99587500D01*
G75*
G02*
X149912500Y-99675000I-87500J0D01*
G01*
X149537500Y-99675000D01*
G75*
G02*
X149450000Y-99587500I0J87500D01*
G01*
G37*
G36*
G01*
X149450000Y-99087500D02*
X149450000Y-98912500D01*
G75*
G02*
X149537500Y-98825000I87500J0D01*
G01*
X149912500Y-98825000D01*
G75*
G02*
X150000000Y-98912500I0J-87500D01*
G01*
X150000000Y-99087500D01*
G75*
G02*
X149912500Y-99175000I-87500J0D01*
G01*
X149537500Y-99175000D01*
G75*
G02*
X149450000Y-99087500I0J87500D01*
G01*
G37*
G36*
G01*
X150275000Y-98962500D02*
X150275000Y-98587500D01*
G75*
G02*
X150362500Y-98500000I87500J0D01*
G01*
X150537500Y-98500000D01*
G75*
G02*
X150625000Y-98587500I0J-87500D01*
G01*
X150625000Y-98962500D01*
G75*
G02*
X150537500Y-99050000I-87500J0D01*
G01*
X150362500Y-99050000D01*
G75*
G02*
X150275000Y-98962500I0J87500D01*
G01*
G37*
G36*
G01*
X150775000Y-98962500D02*
X150775000Y-98587500D01*
G75*
G02*
X150862500Y-98500000I87500J0D01*
G01*
X151037500Y-98500000D01*
G75*
G02*
X151125000Y-98587500I0J-87500D01*
G01*
X151125000Y-98962500D01*
G75*
G02*
X151037500Y-99050000I-87500J0D01*
G01*
X150862500Y-99050000D01*
G75*
G02*
X150775000Y-98962500I0J87500D01*
G01*
G37*
G36*
G01*
X151275000Y-98962500D02*
X151275000Y-98587500D01*
G75*
G02*
X151362500Y-98500000I87500J0D01*
G01*
X151537500Y-98500000D01*
G75*
G02*
X151625000Y-98587500I0J-87500D01*
G01*
X151625000Y-98962500D01*
G75*
G02*
X151537500Y-99050000I-87500J0D01*
G01*
X151362500Y-99050000D01*
G75*
G02*
X151275000Y-98962500I0J87500D01*
G01*
G37*
G36*
G01*
X151900000Y-99087500D02*
X151900000Y-98912500D01*
G75*
G02*
X151987500Y-98825000I87500J0D01*
G01*
X152362500Y-98825000D01*
G75*
G02*
X152450000Y-98912500I0J-87500D01*
G01*
X152450000Y-99087500D01*
G75*
G02*
X152362500Y-99175000I-87500J0D01*
G01*
X151987500Y-99175000D01*
G75*
G02*
X151900000Y-99087500I0J87500D01*
G01*
G37*
G36*
G01*
X151900000Y-99587500D02*
X151900000Y-99412500D01*
G75*
G02*
X151987500Y-99325000I87500J0D01*
G01*
X152362500Y-99325000D01*
G75*
G02*
X152450000Y-99412500I0J-87500D01*
G01*
X152450000Y-99587500D01*
G75*
G02*
X152362500Y-99675000I-87500J0D01*
G01*
X151987500Y-99675000D01*
G75*
G02*
X151900000Y-99587500I0J87500D01*
G01*
G37*
G36*
G01*
X151900000Y-100087500D02*
X151900000Y-99912500D01*
G75*
G02*
X151987500Y-99825000I87500J0D01*
G01*
X152362500Y-99825000D01*
G75*
G02*
X152450000Y-99912500I0J-87500D01*
G01*
X152450000Y-100087500D01*
G75*
G02*
X152362500Y-100175000I-87500J0D01*
G01*
X151987500Y-100175000D01*
G75*
G02*
X151900000Y-100087500I0J87500D01*
G01*
G37*
G36*
G01*
X151900000Y-100587500D02*
X151900000Y-100412500D01*
G75*
G02*
X151987500Y-100325000I87500J0D01*
G01*
X152362500Y-100325000D01*
G75*
G02*
X152450000Y-100412500I0J-87500D01*
G01*
X152450000Y-100587500D01*
G75*
G02*
X152362500Y-100675000I-87500J0D01*
G01*
X151987500Y-100675000D01*
G75*
G02*
X151900000Y-100587500I0J87500D01*
G01*
G37*
G36*
G01*
X151900000Y-101087500D02*
X151900000Y-100912500D01*
G75*
G02*
X151987500Y-100825000I87500J0D01*
G01*
X152362500Y-100825000D01*
G75*
G02*
X152450000Y-100912500I0J-87500D01*
G01*
X152450000Y-101087500D01*
G75*
G02*
X152362500Y-101175000I-87500J0D01*
G01*
X151987500Y-101175000D01*
G75*
G02*
X151900000Y-101087500I0J87500D01*
G01*
G37*
G36*
G01*
X151275000Y-101412500D02*
X151275000Y-101037500D01*
G75*
G02*
X151362500Y-100950000I87500J0D01*
G01*
X151537500Y-100950000D01*
G75*
G02*
X151625000Y-101037500I0J-87500D01*
G01*
X151625000Y-101412500D01*
G75*
G02*
X151537500Y-101500000I-87500J0D01*
G01*
X151362500Y-101500000D01*
G75*
G02*
X151275000Y-101412500I0J87500D01*
G01*
G37*
G36*
G01*
X150775000Y-101412500D02*
X150775000Y-101037500D01*
G75*
G02*
X150862500Y-100950000I87500J0D01*
G01*
X151037500Y-100950000D01*
G75*
G02*
X151125000Y-101037500I0J-87500D01*
G01*
X151125000Y-101412500D01*
G75*
G02*
X151037500Y-101500000I-87500J0D01*
G01*
X150862500Y-101500000D01*
G75*
G02*
X150775000Y-101412500I0J87500D01*
G01*
G37*
G36*
G01*
X150275000Y-101412500D02*
X150275000Y-101037500D01*
G75*
G02*
X150362500Y-100950000I87500J0D01*
G01*
X150537500Y-100950000D01*
G75*
G02*
X150625000Y-101037500I0J-87500D01*
G01*
X150625000Y-101412500D01*
G75*
G02*
X150537500Y-101500000I-87500J0D01*
G01*
X150362500Y-101500000D01*
G75*
G02*
X150275000Y-101412500I0J87500D01*
G01*
G37*
%TD*%
%TO.C,C13*%
G36*
G01*
X152350000Y-102025000D02*
X152850000Y-102025000D01*
G75*
G02*
X153075000Y-102250000I0J-225000D01*
G01*
X153075000Y-102700000D01*
G75*
G02*
X152850000Y-102925000I-225000J0D01*
G01*
X152350000Y-102925000D01*
G75*
G02*
X152125000Y-102700000I0J225000D01*
G01*
X152125000Y-102250000D01*
G75*
G02*
X152350000Y-102025000I225000J0D01*
G01*
G37*
G36*
G01*
X152350000Y-103575000D02*
X152850000Y-103575000D01*
G75*
G02*
X153075000Y-103800000I0J-225000D01*
G01*
X153075000Y-104250000D01*
G75*
G02*
X152850000Y-104475000I-225000J0D01*
G01*
X152350000Y-104475000D01*
G75*
G02*
X152125000Y-104250000I0J225000D01*
G01*
X152125000Y-103800000D01*
G75*
G02*
X152350000Y-103575000I225000J0D01*
G01*
G37*
%TD*%
M02*
