M48
; DRILL file {KiCad 5.1.8-db9833491~87~ubuntu20.04.1} date Mon Nov 23 17:04:16 2020
; FORMAT={-:-/ absolute / inch / decimal}
; #@! TF.CreationDate,2020-11-23T17:04:16+01:00
; #@! TF.GenerationSoftware,Kicad,Pcbnew,5.1.8-db9833491~87~ubuntu20.04.1
; #@! TF.FileFunction,Plated,1,4,PTH
FMAT,2
INCH
T1C0.0157
T2C0.0394
%
G90
G05
T1
X5.0004Y-3.5886
X5.0004Y-4.2846
X5.0839Y-4.0835
X5.0846Y-3.7898
X5.0933Y-4.1902
X5.0945Y-3.6469
X5.1346Y-4.2461
X5.1346Y-3.7303
X5.1846Y-4.2465
X5.1961Y-4.0622
X5.2256Y-4.0268
X5.2346Y-3.6075
X5.2346Y-4.2465
X5.237Y-3.7693
X5.2567Y-4.1047
X5.2587Y-4.1402
X5.2799Y-3.7591
X5.2976Y-4.278
X5.3516Y-3.7949
X5.3563Y-4.278
X5.3965Y-4.0792
X5.4243Y-4.0076
X5.4319Y-4.0492
X5.4346Y-4.2744
X5.4465Y-3.6094
X5.4614Y-4.0362
X5.4618Y-3.9768
X5.4819Y-3.9
X5.4846Y-4.2744
X5.4863Y-4.0157
X5.5232Y-3.8783
X5.5335Y-4.278
X5.5354Y-3.6693
X5.5591Y-3.7165
X5.5642Y-3.8429
X5.565Y-4.0539
X5.5768Y-3.8839
X5.5846Y-4.1496
X5.586Y-4.2974
X5.6012Y-3.963
X5.6063Y-3.6693
X5.6165Y-4.0146
X5.6197Y-3.887
X5.6248Y-4.1528
X5.6339Y-3.9303
X5.6466Y-3.8485
X5.6472Y-4.0496
X5.6535Y-3.6772
X5.6634Y-4.1524
X5.6634Y-4.3035
X5.6756Y-3.7484
X5.7039Y-3.628
X5.7154Y-4.1343
X5.7543Y-4.1398
X5.7551Y-3.7988
X5.7626Y-4.2555
X5.763Y-3.9793
X5.7945Y-3.9256
X5.7969Y-4.0484
X5.7972Y-4.0135
X5.8011Y-3.9823
X5.8035Y-4.1398
X5.8039Y-3.628
X5.8551Y-3.8894
X5.9134Y-3.8587
X5.9201Y-3.7626
X5.9571Y-3.9539
X5.9717Y-4.2839
X6.0114Y-4.163
T2
X4.7406Y-3.587
X4.7406Y-3.687
X4.7406Y-3.787
X4.7406Y-3.887
X4.7406Y-3.987
X4.7406Y-4.087
X4.7406Y-4.187
X4.7406Y-4.287
X4.8406Y-3.587
X4.8406Y-3.687
X4.8406Y-3.787
X4.8406Y-3.887
X4.8406Y-3.987
X4.8406Y-4.087
X4.8406Y-4.187
X4.8406Y-4.287
X4.9406Y-3.587
X4.9406Y-3.687
X4.9406Y-3.787
X4.9406Y-3.887
X4.9406Y-3.987
X4.9406Y-4.087
X4.9406Y-4.187
X4.9406Y-4.287
T0
M30
