%TF.GenerationSoftware,KiCad,Pcbnew,5.1.8-db9833491~87~ubuntu20.04.1*%
%TF.CreationDate,2020-11-05T18:06:58+01:00*%
%TF.ProjectId,rosalyn-rx,726f7361-6c79-46e2-9d72-782e6b696361,v1.0*%
%TF.SameCoordinates,Original*%
%TF.FileFunction,Legend,Bot*%
%TF.FilePolarity,Positive*%
%FSLAX46Y46*%
G04 Gerber Fmt 4.6, Leading zero omitted, Abs format (unit mm)*
G04 Created by KiCad (PCBNEW 5.1.8-db9833491~87~ubuntu20.04.1) date 2020-11-05 18:06:58*
%MOMM*%
%LPD*%
G01*
G04 APERTURE LIST*
%ADD10C,0.150000*%
%ADD11C,0.125000*%
%ADD12C,0.120000*%
%ADD13C,0.100000*%
G04 APERTURE END LIST*
D10*
X142019047Y-98562380D02*
X142019047Y-99276666D01*
X142066666Y-99419523D01*
X142161904Y-99514761D01*
X142304761Y-99562380D01*
X142400000Y-99562380D01*
X141066666Y-99562380D02*
X141542857Y-99562380D01*
X141542857Y-98562380D01*
X140161904Y-99467142D02*
X140209523Y-99514761D01*
X140352380Y-99562380D01*
X140447619Y-99562380D01*
X140590476Y-99514761D01*
X140685714Y-99419523D01*
X140733333Y-99324285D01*
X140780952Y-99133809D01*
X140780952Y-98990952D01*
X140733333Y-98800476D01*
X140685714Y-98705238D01*
X140590476Y-98610000D01*
X140447619Y-98562380D01*
X140352380Y-98562380D01*
X140209523Y-98610000D01*
X140161904Y-98657619D01*
X139447619Y-98562380D02*
X139447619Y-99276666D01*
X139495238Y-99419523D01*
X139590476Y-99514761D01*
X139733333Y-99562380D01*
X139828571Y-99562380D01*
X138495238Y-99562380D02*
X138971428Y-99562380D01*
X138971428Y-98562380D01*
X137590476Y-99467142D02*
X137638095Y-99514761D01*
X137780952Y-99562380D01*
X137876190Y-99562380D01*
X138019047Y-99514761D01*
X138114285Y-99419523D01*
X138161904Y-99324285D01*
X138209523Y-99133809D01*
X138209523Y-98990952D01*
X138161904Y-98800476D01*
X138114285Y-98705238D01*
X138019047Y-98610000D01*
X137876190Y-98562380D01*
X137780952Y-98562380D01*
X137638095Y-98610000D01*
X137590476Y-98657619D01*
X136876190Y-98562380D02*
X136876190Y-99276666D01*
X136923809Y-99419523D01*
X137019047Y-99514761D01*
X137161904Y-99562380D01*
X137257142Y-99562380D01*
X135923809Y-99562380D02*
X136400000Y-99562380D01*
X136400000Y-98562380D01*
X135019047Y-99467142D02*
X135066666Y-99514761D01*
X135209523Y-99562380D01*
X135304761Y-99562380D01*
X135447619Y-99514761D01*
X135542857Y-99419523D01*
X135590476Y-99324285D01*
X135638095Y-99133809D01*
X135638095Y-98990952D01*
X135590476Y-98800476D01*
X135542857Y-98705238D01*
X135447619Y-98610000D01*
X135304761Y-98562380D01*
X135209523Y-98562380D01*
X135066666Y-98610000D01*
X135019047Y-98657619D01*
X134304761Y-98562380D02*
X134304761Y-99276666D01*
X134352380Y-99419523D01*
X134447619Y-99514761D01*
X134590476Y-99562380D01*
X134685714Y-99562380D01*
X133352380Y-99562380D02*
X133828571Y-99562380D01*
X133828571Y-98562380D01*
X132447619Y-99467142D02*
X132495238Y-99514761D01*
X132638095Y-99562380D01*
X132733333Y-99562380D01*
X132876190Y-99514761D01*
X132971428Y-99419523D01*
X133019047Y-99324285D01*
X133066666Y-99133809D01*
X133066666Y-98990952D01*
X133019047Y-98800476D01*
X132971428Y-98705238D01*
X132876190Y-98610000D01*
X132733333Y-98562380D01*
X132638095Y-98562380D01*
X132495238Y-98610000D01*
X132447619Y-98657619D01*
D11*
X148502380Y-94873809D02*
X148526190Y-94945238D01*
X148526190Y-95064285D01*
X148502380Y-95111904D01*
X148478571Y-95135714D01*
X148430952Y-95159523D01*
X148383333Y-95159523D01*
X148335714Y-95135714D01*
X148311904Y-95111904D01*
X148288095Y-95064285D01*
X148264285Y-94969047D01*
X148240476Y-94921428D01*
X148216666Y-94897619D01*
X148169047Y-94873809D01*
X148121428Y-94873809D01*
X148073809Y-94897619D01*
X148050000Y-94921428D01*
X148026190Y-94969047D01*
X148026190Y-95088095D01*
X148050000Y-95159523D01*
X148502380Y-95564285D02*
X148526190Y-95516666D01*
X148526190Y-95421428D01*
X148502380Y-95373809D01*
X148454761Y-95350000D01*
X148264285Y-95350000D01*
X148216666Y-95373809D01*
X148192857Y-95421428D01*
X148192857Y-95516666D01*
X148216666Y-95564285D01*
X148264285Y-95588095D01*
X148311904Y-95588095D01*
X148359523Y-95350000D01*
X148526190Y-95802380D02*
X148192857Y-95802380D01*
X148288095Y-95802380D02*
X148240476Y-95826190D01*
X148216666Y-95850000D01*
X148192857Y-95897619D01*
X148192857Y-95945238D01*
X148526190Y-96111904D02*
X148192857Y-96111904D01*
X148026190Y-96111904D02*
X148050000Y-96088095D01*
X148073809Y-96111904D01*
X148050000Y-96135714D01*
X148026190Y-96111904D01*
X148073809Y-96111904D01*
X148526190Y-96564285D02*
X148264285Y-96564285D01*
X148216666Y-96540476D01*
X148192857Y-96492857D01*
X148192857Y-96397619D01*
X148216666Y-96350000D01*
X148502380Y-96564285D02*
X148526190Y-96516666D01*
X148526190Y-96397619D01*
X148502380Y-96350000D01*
X148454761Y-96326190D01*
X148407142Y-96326190D01*
X148359523Y-96350000D01*
X148335714Y-96397619D01*
X148335714Y-96516666D01*
X148311904Y-96564285D01*
X148526190Y-96873809D02*
X148502380Y-96826190D01*
X148454761Y-96802380D01*
X148026190Y-96802380D01*
X148073809Y-97040476D02*
X148050000Y-97064285D01*
X148026190Y-97111904D01*
X148026190Y-97230952D01*
X148050000Y-97278571D01*
X148073809Y-97302380D01*
X148121428Y-97326190D01*
X148169047Y-97326190D01*
X148240476Y-97302380D01*
X148526190Y-97016666D01*
X148526190Y-97326190D01*
X148502380Y-102693809D02*
X148526190Y-102765238D01*
X148526190Y-102884285D01*
X148502380Y-102931904D01*
X148478571Y-102955714D01*
X148430952Y-102979523D01*
X148383333Y-102979523D01*
X148335714Y-102955714D01*
X148311904Y-102931904D01*
X148288095Y-102884285D01*
X148264285Y-102789047D01*
X148240476Y-102741428D01*
X148216666Y-102717619D01*
X148169047Y-102693809D01*
X148121428Y-102693809D01*
X148073809Y-102717619D01*
X148050000Y-102741428D01*
X148026190Y-102789047D01*
X148026190Y-102908095D01*
X148050000Y-102979523D01*
X148502380Y-103384285D02*
X148526190Y-103336666D01*
X148526190Y-103241428D01*
X148502380Y-103193809D01*
X148454761Y-103170000D01*
X148264285Y-103170000D01*
X148216666Y-103193809D01*
X148192857Y-103241428D01*
X148192857Y-103336666D01*
X148216666Y-103384285D01*
X148264285Y-103408095D01*
X148311904Y-103408095D01*
X148359523Y-103170000D01*
X148526190Y-103622380D02*
X148192857Y-103622380D01*
X148288095Y-103622380D02*
X148240476Y-103646190D01*
X148216666Y-103670000D01*
X148192857Y-103717619D01*
X148192857Y-103765238D01*
X148526190Y-103931904D02*
X148192857Y-103931904D01*
X148026190Y-103931904D02*
X148050000Y-103908095D01*
X148073809Y-103931904D01*
X148050000Y-103955714D01*
X148026190Y-103931904D01*
X148073809Y-103931904D01*
X148526190Y-104384285D02*
X148264285Y-104384285D01*
X148216666Y-104360476D01*
X148192857Y-104312857D01*
X148192857Y-104217619D01*
X148216666Y-104170000D01*
X148502380Y-104384285D02*
X148526190Y-104336666D01*
X148526190Y-104217619D01*
X148502380Y-104170000D01*
X148454761Y-104146190D01*
X148407142Y-104146190D01*
X148359523Y-104170000D01*
X148335714Y-104217619D01*
X148335714Y-104336666D01*
X148311904Y-104384285D01*
X148526190Y-104693809D02*
X148502380Y-104646190D01*
X148454761Y-104622380D01*
X148026190Y-104622380D01*
X148526190Y-105146190D02*
X148526190Y-104860476D01*
X148526190Y-105003333D02*
X148026190Y-105003333D01*
X148097619Y-104955714D01*
X148145238Y-104908095D01*
X148169047Y-104860476D01*
D10*
%TO.C,U2*%
X146584214Y-96550000D02*
G75*
G03*
X146584214Y-96550000I-1414214J0D01*
G01*
X142470000Y-95000000D02*
X128420000Y-95000000D01*
X142470000Y-99000000D02*
X142470000Y-95000000D01*
X147170000Y-99000000D02*
X142470000Y-99000000D01*
X147170000Y-105000000D02*
X147170000Y-99000000D01*
X128420000Y-105000000D02*
X147170000Y-105000000D01*
X128420000Y-95000000D02*
X128420000Y-105000000D01*
X127020000Y-92650000D02*
X127020000Y-107350000D01*
X147720000Y-92650000D02*
X127020000Y-92650000D01*
X147720000Y-107350000D02*
X147720000Y-92650000D01*
X127020000Y-107350000D02*
X147720000Y-107350000D01*
D12*
%TO.C,C1*%
X131440580Y-108720000D02*
X131159420Y-108720000D01*
X131440580Y-107700000D02*
X131159420Y-107700000D01*
%TO.C,R10*%
X133610000Y-91416359D02*
X133610000Y-91723641D01*
X132850000Y-91416359D02*
X132850000Y-91723641D01*
%TO.C,R9*%
X132340000Y-91416359D02*
X132340000Y-91723641D01*
X131580000Y-91416359D02*
X131580000Y-91723641D01*
%TO.C,R8*%
X132880000Y-108603641D02*
X132880000Y-108296359D01*
X133640000Y-108603641D02*
X133640000Y-108296359D01*
%TO.C,R7*%
X131070000Y-91416359D02*
X131070000Y-91723641D01*
X130310000Y-91416359D02*
X130310000Y-91723641D01*
%TO.C,R6*%
X134120000Y-108583641D02*
X134120000Y-108276359D01*
X134880000Y-108583641D02*
X134880000Y-108276359D01*
%TO.C,R5*%
X135390000Y-108583641D02*
X135390000Y-108276359D01*
X136150000Y-108583641D02*
X136150000Y-108276359D01*
%TO.C,R4*%
X135390000Y-91723641D02*
X135390000Y-91416359D01*
X136150000Y-91723641D02*
X136150000Y-91416359D01*
%TO.C,R3*%
X134120000Y-91723641D02*
X134120000Y-91416359D01*
X134880000Y-91723641D02*
X134880000Y-91416359D01*
%TO.C,R2*%
X136660000Y-91723641D02*
X136660000Y-91416359D01*
X137420000Y-91723641D02*
X137420000Y-91416359D01*
%TO.C,R1*%
X137930000Y-91723641D02*
X137930000Y-91416359D01*
X138690000Y-91723641D02*
X138690000Y-91416359D01*
%TO.C,U2*%
D11*
X137380952Y-103936190D02*
X137380952Y-104340952D01*
X137357142Y-104388571D01*
X137333333Y-104412380D01*
X137285714Y-104436190D01*
X137190476Y-104436190D01*
X137142857Y-104412380D01*
X137119047Y-104388571D01*
X137095238Y-104340952D01*
X137095238Y-103936190D01*
X136880952Y-103983809D02*
X136857142Y-103960000D01*
X136809523Y-103936190D01*
X136690476Y-103936190D01*
X136642857Y-103960000D01*
X136619047Y-103983809D01*
X136595238Y-104031428D01*
X136595238Y-104079047D01*
X136619047Y-104150476D01*
X136904761Y-104436190D01*
X136595238Y-104436190D01*
%TO.C,C1*%
D13*
X131366666Y-109422857D02*
X131385714Y-109441904D01*
X131442857Y-109460952D01*
X131480952Y-109460952D01*
X131538095Y-109441904D01*
X131576190Y-109403809D01*
X131595238Y-109365714D01*
X131614285Y-109289523D01*
X131614285Y-109232380D01*
X131595238Y-109156190D01*
X131576190Y-109118095D01*
X131538095Y-109080000D01*
X131480952Y-109060952D01*
X131442857Y-109060952D01*
X131385714Y-109080000D01*
X131366666Y-109099047D01*
X130985714Y-109460952D02*
X131214285Y-109460952D01*
X131100000Y-109460952D02*
X131100000Y-109060952D01*
X131138095Y-109118095D01*
X131176190Y-109156190D01*
X131214285Y-109175238D01*
%TO.C,R10*%
X133960952Y-90012857D02*
X133770476Y-89879523D01*
X133960952Y-89784285D02*
X133560952Y-89784285D01*
X133560952Y-89936666D01*
X133580000Y-89974761D01*
X133599047Y-89993809D01*
X133637142Y-90012857D01*
X133694285Y-90012857D01*
X133732380Y-89993809D01*
X133751428Y-89974761D01*
X133770476Y-89936666D01*
X133770476Y-89784285D01*
X133960952Y-90393809D02*
X133960952Y-90165238D01*
X133960952Y-90279523D02*
X133560952Y-90279523D01*
X133618095Y-90241428D01*
X133656190Y-90203333D01*
X133675238Y-90165238D01*
X133560952Y-90641428D02*
X133560952Y-90679523D01*
X133580000Y-90717619D01*
X133599047Y-90736666D01*
X133637142Y-90755714D01*
X133713333Y-90774761D01*
X133808571Y-90774761D01*
X133884761Y-90755714D01*
X133922857Y-90736666D01*
X133941904Y-90717619D01*
X133960952Y-90679523D01*
X133960952Y-90641428D01*
X133941904Y-90603333D01*
X133922857Y-90584285D01*
X133884761Y-90565238D01*
X133808571Y-90546190D01*
X133713333Y-90546190D01*
X133637142Y-90565238D01*
X133599047Y-90584285D01*
X133580000Y-90603333D01*
X133560952Y-90641428D01*
%TO.C,R9*%
X132700952Y-90173333D02*
X132510476Y-90040000D01*
X132700952Y-89944761D02*
X132300952Y-89944761D01*
X132300952Y-90097142D01*
X132320000Y-90135238D01*
X132339047Y-90154285D01*
X132377142Y-90173333D01*
X132434285Y-90173333D01*
X132472380Y-90154285D01*
X132491428Y-90135238D01*
X132510476Y-90097142D01*
X132510476Y-89944761D01*
X132700952Y-90363809D02*
X132700952Y-90440000D01*
X132681904Y-90478095D01*
X132662857Y-90497142D01*
X132605714Y-90535238D01*
X132529523Y-90554285D01*
X132377142Y-90554285D01*
X132339047Y-90535238D01*
X132320000Y-90516190D01*
X132300952Y-90478095D01*
X132300952Y-90401904D01*
X132320000Y-90363809D01*
X132339047Y-90344761D01*
X132377142Y-90325714D01*
X132472380Y-90325714D01*
X132510476Y-90344761D01*
X132529523Y-90363809D01*
X132548571Y-90401904D01*
X132548571Y-90478095D01*
X132529523Y-90516190D01*
X132510476Y-90535238D01*
X132472380Y-90554285D01*
%TO.C,R8*%
X132910952Y-109703333D02*
X132720476Y-109570000D01*
X132910952Y-109474761D02*
X132510952Y-109474761D01*
X132510952Y-109627142D01*
X132530000Y-109665238D01*
X132549047Y-109684285D01*
X132587142Y-109703333D01*
X132644285Y-109703333D01*
X132682380Y-109684285D01*
X132701428Y-109665238D01*
X132720476Y-109627142D01*
X132720476Y-109474761D01*
X132682380Y-109931904D02*
X132663333Y-109893809D01*
X132644285Y-109874761D01*
X132606190Y-109855714D01*
X132587142Y-109855714D01*
X132549047Y-109874761D01*
X132530000Y-109893809D01*
X132510952Y-109931904D01*
X132510952Y-110008095D01*
X132530000Y-110046190D01*
X132549047Y-110065238D01*
X132587142Y-110084285D01*
X132606190Y-110084285D01*
X132644285Y-110065238D01*
X132663333Y-110046190D01*
X132682380Y-110008095D01*
X132682380Y-109931904D01*
X132701428Y-109893809D01*
X132720476Y-109874761D01*
X132758571Y-109855714D01*
X132834761Y-109855714D01*
X132872857Y-109874761D01*
X132891904Y-109893809D01*
X132910952Y-109931904D01*
X132910952Y-110008095D01*
X132891904Y-110046190D01*
X132872857Y-110065238D01*
X132834761Y-110084285D01*
X132758571Y-110084285D01*
X132720476Y-110065238D01*
X132701428Y-110046190D01*
X132682380Y-110008095D01*
%TO.C,R7*%
X131450952Y-90163333D02*
X131260476Y-90030000D01*
X131450952Y-89934761D02*
X131050952Y-89934761D01*
X131050952Y-90087142D01*
X131070000Y-90125238D01*
X131089047Y-90144285D01*
X131127142Y-90163333D01*
X131184285Y-90163333D01*
X131222380Y-90144285D01*
X131241428Y-90125238D01*
X131260476Y-90087142D01*
X131260476Y-89934761D01*
X131050952Y-90296666D02*
X131050952Y-90563333D01*
X131450952Y-90391904D01*
%TO.C,R6*%
X134150952Y-109683333D02*
X133960476Y-109550000D01*
X134150952Y-109454761D02*
X133750952Y-109454761D01*
X133750952Y-109607142D01*
X133770000Y-109645238D01*
X133789047Y-109664285D01*
X133827142Y-109683333D01*
X133884285Y-109683333D01*
X133922380Y-109664285D01*
X133941428Y-109645238D01*
X133960476Y-109607142D01*
X133960476Y-109454761D01*
X133750952Y-110026190D02*
X133750952Y-109950000D01*
X133770000Y-109911904D01*
X133789047Y-109892857D01*
X133846190Y-109854761D01*
X133922380Y-109835714D01*
X134074761Y-109835714D01*
X134112857Y-109854761D01*
X134131904Y-109873809D01*
X134150952Y-109911904D01*
X134150952Y-109988095D01*
X134131904Y-110026190D01*
X134112857Y-110045238D01*
X134074761Y-110064285D01*
X133979523Y-110064285D01*
X133941428Y-110045238D01*
X133922380Y-110026190D01*
X133903333Y-109988095D01*
X133903333Y-109911904D01*
X133922380Y-109873809D01*
X133941428Y-109854761D01*
X133979523Y-109835714D01*
%TO.C,R5*%
X135420952Y-109683333D02*
X135230476Y-109550000D01*
X135420952Y-109454761D02*
X135020952Y-109454761D01*
X135020952Y-109607142D01*
X135040000Y-109645238D01*
X135059047Y-109664285D01*
X135097142Y-109683333D01*
X135154285Y-109683333D01*
X135192380Y-109664285D01*
X135211428Y-109645238D01*
X135230476Y-109607142D01*
X135230476Y-109454761D01*
X135020952Y-110045238D02*
X135020952Y-109854761D01*
X135211428Y-109835714D01*
X135192380Y-109854761D01*
X135173333Y-109892857D01*
X135173333Y-109988095D01*
X135192380Y-110026190D01*
X135211428Y-110045238D01*
X135249523Y-110064285D01*
X135344761Y-110064285D01*
X135382857Y-110045238D01*
X135401904Y-110026190D01*
X135420952Y-109988095D01*
X135420952Y-109892857D01*
X135401904Y-109854761D01*
X135382857Y-109835714D01*
%TO.C,R4*%
X136520952Y-90173333D02*
X136330476Y-90040000D01*
X136520952Y-89944761D02*
X136120952Y-89944761D01*
X136120952Y-90097142D01*
X136140000Y-90135238D01*
X136159047Y-90154285D01*
X136197142Y-90173333D01*
X136254285Y-90173333D01*
X136292380Y-90154285D01*
X136311428Y-90135238D01*
X136330476Y-90097142D01*
X136330476Y-89944761D01*
X136254285Y-90516190D02*
X136520952Y-90516190D01*
X136101904Y-90420952D02*
X136387619Y-90325714D01*
X136387619Y-90573333D01*
%TO.C,R3*%
X135240952Y-90173333D02*
X135050476Y-90040000D01*
X135240952Y-89944761D02*
X134840952Y-89944761D01*
X134840952Y-90097142D01*
X134860000Y-90135238D01*
X134879047Y-90154285D01*
X134917142Y-90173333D01*
X134974285Y-90173333D01*
X135012380Y-90154285D01*
X135031428Y-90135238D01*
X135050476Y-90097142D01*
X135050476Y-89944761D01*
X134840952Y-90306666D02*
X134840952Y-90554285D01*
X134993333Y-90420952D01*
X134993333Y-90478095D01*
X135012380Y-90516190D01*
X135031428Y-90535238D01*
X135069523Y-90554285D01*
X135164761Y-90554285D01*
X135202857Y-90535238D01*
X135221904Y-90516190D01*
X135240952Y-90478095D01*
X135240952Y-90363809D01*
X135221904Y-90325714D01*
X135202857Y-90306666D01*
%TO.C,R2*%
X137780952Y-90183333D02*
X137590476Y-90050000D01*
X137780952Y-89954761D02*
X137380952Y-89954761D01*
X137380952Y-90107142D01*
X137400000Y-90145238D01*
X137419047Y-90164285D01*
X137457142Y-90183333D01*
X137514285Y-90183333D01*
X137552380Y-90164285D01*
X137571428Y-90145238D01*
X137590476Y-90107142D01*
X137590476Y-89954761D01*
X137419047Y-90335714D02*
X137400000Y-90354761D01*
X137380952Y-90392857D01*
X137380952Y-90488095D01*
X137400000Y-90526190D01*
X137419047Y-90545238D01*
X137457142Y-90564285D01*
X137495238Y-90564285D01*
X137552380Y-90545238D01*
X137780952Y-90316666D01*
X137780952Y-90564285D01*
%TO.C,R1*%
X139030952Y-90193333D02*
X138840476Y-90060000D01*
X139030952Y-89964761D02*
X138630952Y-89964761D01*
X138630952Y-90117142D01*
X138650000Y-90155238D01*
X138669047Y-90174285D01*
X138707142Y-90193333D01*
X138764285Y-90193333D01*
X138802380Y-90174285D01*
X138821428Y-90155238D01*
X138840476Y-90117142D01*
X138840476Y-89964761D01*
X139030952Y-90574285D02*
X139030952Y-90345714D01*
X139030952Y-90460000D02*
X138630952Y-90460000D01*
X138688095Y-90421904D01*
X138726190Y-90383809D01*
X138745238Y-90345714D01*
%TD*%
M02*
